<?xml version="1.0" encoding="UTF-8"?>
<!DOCTYPE svg PUBLIC "-//W3C//DTD SVG 1.1//EN" "http://www.w3.org/Graphics/SVG/1.1/DTD/svg11.dtd">
<!-- Creator: CorelDRAW 2017 -->
<svg xmlns="http://www.w3.org/2000/svg" xml:space="preserve" width="1.70666in" height="1.70666in" version="1.1" style="shape-rendering:geometricPrecision; text-rendering:geometricPrecision; image-rendering:optimizeQuality; fill-rule:evenodd; clip-rule:evenodd"
viewBox="0 0 1707 1707"
 xmlns:xlink="http://www.w3.org/1999/xlink"
 enable-background="new 0 0 295.82 295.82">
 <defs>
  <style type="text/css">
   <![CDATA[
    .fil0 {fill:none}
    .fil1 {fill:#FE6700}
   ]]>
  </style>
 </defs>
 <g id="Layer_x0020_1">
  <metadata id="CorelCorpID_0Corel-Layer"/>
  <rect class="fil0" width="1707" height="1707"/>
  <g id="_529667929456">
   <g>
    <g>
     <path class="fil1" d="M888 459c-53,-18 -114,0 -158,35 -44,35 -70,88 -70,149 0,26 18,44 44,44 26,0 44,-18 44,-44 0,-26 9,-61 35,-79 26,-18 53,-26 88,-18 44,9 70,44 79,79 9,44 0,79 -35,105 -70,53 -105,132 -105,211 0,26 18,44 44,44 26,0 44,-18 35,-44 0,-53 35,-105 79,-140 61,-53 88,-123 70,-193 -18,-79 -79,-132 -149,-149l0 0z"/>
     <path class="fil1" d="M818 1169c-9,9 -9,26 -9,35 0,9 0,18 9,26 9,9 26,18 35,18 9,0 26,-9 26,-18 9,0 18,-18 18,-26 0,-18 -9,-26 -18,-35 -18,-18 -44,-18 -61,0z"/>
     <path class="fil1" d="M853 108c-412,0 -746,333 -746,746 0,412 333,746 746,746 412,0 746,-333 746,-746 0,-412 -333,-746 -746,-746zm0 1404c-360,0 -658,-298 -658,-658 0,-360 298,-658 658,-658 360,0 658,298 658,658 0,360 -298,658 -658,658z"/>
    </g>
   </g>
  </g>
 </g>
</svg>
