<?xml version="1.0" encoding="UTF-8"?>
<!DOCTYPE svg PUBLIC "-//W3C//DTD SVG 1.1//EN" "http://www.w3.org/Graphics/SVG/1.1/DTD/svg11.dtd">
<!-- Creator: CorelDRAW X7 -->
<svg xmlns="http://www.w3.org/2000/svg" xml:space="preserve" width="512px" height="512px" version="1.1" style="shape-rendering:geometricPrecision; text-rendering:geometricPrecision; image-rendering:optimizeQuality; fill-rule:evenodd; clip-rule:evenodd"
viewBox="0 0 512 512"
 xmlns:xlink="http://www.w3.org/1999/xlink"
 enable-background="new 0 0 650 900"
 xmlns:dc="http://purl.org/dc/elements/1.1/"
 xmlns:cc="http://creativecommons.org/ns#"
 xmlns:rdf="http://www.w3.org/1999/02/22-rdf-syntax-ns#"
 xmlns:svg="http://www.w3.org/2000/svg"
 xmlns:sodipodi="http://sodipodi.sourceforge.net/DTD/sodipodi-0.dtd"
 xmlns:inkscape="http://www.inkscape.org/namespaces/inkscape">
 <defs>
  <style type="text/css">
   <![CDATA[
    .fil0 {fill:none}
    .fil1 {fill:#FE6700}
    .fil2 {fill:white;fill-rule:nonzero}
   ]]>
  </style>
 </defs>
 <g id="Layer_x0020_1">
  <metadata id="CorelCorpID_0Corel-Layer"/>
  <rect class="fil0" width="512" height="512"/>
  <g id="_651375530496">
   <g>
    <path class="fil1" d="M141 10c-16,0 -28,12 -28,28l0 17 286 0 0 -17c0,-16 -12,-28 -28,-28l-230 0zm-28 68l0 333 286 0 0 -333 -286 0zm0 356l0 40c0,16 12,28 28,28l230 0c16,0 28,-12 28,-28l0 -40 -286 0zm143 17c9,0 17,8 17,17 0,10 -8,17 -17,17 -9,0 -17,-7 -17,-17 0,-9 8,-17 17,-17z" display="inline"/>
   </g>
  </g>
  <path class="fil2" d="M237 288c0,-11 2,-21 4,-27 3,-7 7,-13 13,-17 6,-5 10,-10 13,-14 3,-4 5,-8 5,-13 0,-12 -5,-18 -16,-18 -4,0 -8,2 -11,5 -3,4 -5,8 -5,14l-40 0c1,-16 6,-28 15,-37 10,-8 24,-13 41,-13 18,0 31,4 41,12 10,8 15,20 15,35 0,6 -2,12 -4,18 -3,5 -7,11 -13,16l-13 13c-4,4 -7,7 -8,11 -2,4 -3,9 -3,15l-34 0zm-4 36c0,-6 2,-11 6,-14 4,-4 9,-6 16,-6 6,0 11,2 15,6 5,3 7,8 7,14 0,6 -2,10 -7,14 -4,4 -9,6 -15,6 -7,0 -12,-2 -16,-6 -4,-4 -6,-8 -6,-14z"/>
 </g>
</svg>
