<?xml version="1.0" encoding="UTF-8"?>
<!DOCTYPE svg PUBLIC "-//W3C//DTD SVG 1.1//EN" "http://www.w3.org/Graphics/SVG/1.1/DTD/svg11.dtd">
<!-- Creator: CorelDRAW 2017 -->
<svg xmlns="http://www.w3.org/2000/svg" xml:space="preserve" width="0.106665in" height="0.106665in" version="1.1" style="shape-rendering:geometricPrecision; text-rendering:geometricPrecision; image-rendering:optimizeQuality; fill-rule:evenodd; clip-rule:evenodd"
viewBox="0 0 106.67 106.67"
 xmlns:xlink="http://www.w3.org/1999/xlink">
 <defs>
  <style type="text/css">
   <![CDATA[
    .fil0 {fill:none}
    .fil1 {fill:#FE6700}
    .fil2 {fill:#FE6700;fill-rule:nonzero}
   ]]>
  </style>
 </defs>
 <g id="Layer_x0020_1">
  <metadata id="CorelCorpID_0Corel-Layer"/>
  <rect class="fil0" x="-0" y="-0" width="106.67" height="106.67"/>
  <path class="fil1" d="M98.74 60.61l-1.49 0 0 -13.4c0,-2.12 -1.06,-4 -2.67,-5.14l0 -1.82c0,-2.65 -2.15,-4.8 -4.8,-4.8l-1.11 0 4.25 -6.24c1.43,-2.09 0.88,-4.95 -1.21,-6.37l-28.84 -19.65c-1.01,-0.69 -2.23,-0.94 -3.44,-0.72 -1.2,0.23 -2.25,0.91 -2.94,1.92l-24.89 36.52 -6.93 0 1.67 -16.92c0.02,-0.19 0.15,-0.35 0.31,-0.42 2.15,-0.81 4.02,-2.33 5.26,-4.27 0.09,-0.15 0.28,-0.24 0.47,-0.22l10.87 1.07c0.78,0.07 1.47,-0.49 1.55,-1.27 0.07,-0.78 -0.49,-1.47 -1.27,-1.55l-10.86 -1.07c-1.26,-0.12 -2.46,0.46 -3.14,1.52 -0.91,1.43 -2.28,2.54 -3.86,3.14 -1.19,0.45 -2.01,1.52 -2.14,2.8l-1.7 17.19 -1.81 0 2.64 -26.75c0.09,-0.96 0.96,-1.67 1.92,-1.57l21.95 2.17c0.78,0.07 1.47,-0.49 1.55,-1.27 0.07,-0.78 -0.49,-1.47 -1.27,-1.55l-21.95 -2.17c-2.52,-0.25 -4.77,1.59 -5.02,4.11l-2.13 21.56 -3.63 0c-2.65,0 -4.8,2.15 -4.8,4.8l0 1.24c-2.17,1 -3.67,3.19 -3.67,5.72l0 48.29c0,3.47 2.82,6.3 6.3,6.3l79.03 0c3.47,0 6.3,-2.83 6.3,-6.3l0 -13.4 1.49 0c1.76,0 3.19,-1.43 3.19,-3.18l0 -15.12c0,-1.76 -1.43,-3.19 -3.19,-3.19zm-8.95 -22.33l0 0c1.08,0 1.96,0.88 1.96,1.97l0 0.72c-0.26,-0.03 -0.52,-0.05 -0.8,-0.05l-6.01 0 1.8 -2.64 3.04 0zm-30.94 -32.29c0.26,-0.39 0.67,-0.65 1.13,-0.74 0.11,-0.02 0.22,-0.03 0.33,-0.03 0.35,0 0.69,0.1 0.98,0.3l28.84 19.65c0.8,0.55 1.01,1.64 0.46,2.44l-9.06 13.3 -2.17 0 4.45 -6.52c0.72,-1.06 0.78,-2.41 0.15,-3.52 -0.83,-1.47 -1.17,-3.2 -0.95,-4.88 0.16,-1.25 -0.39,-2.47 -1.43,-3.18l-14.95 -10.19c-1.05,-0.72 -2.38,-0.78 -3.48,-0.17 -1.48,0.82 -3.22,1.14 -4.89,0.91 -1.24,-0.18 -2.5,0.39 -3.21,1.43l-17.8 26.12 -2.17 0 23.8 -34.93zm0.63 24.06c-6.17,0 -11.23,4.81 -11.65,10.87l-7.18 0 16.72 -24.53c0,0 0,0 0,0 0.09,-0.14 0.25,-0.22 0.41,-0.22 0.02,0 0.04,0 0.06,0 2.28,0.32 4.64,-0.11 6.66,-1.23 0.16,-0.09 0.36,-0.07 0.52,0.03l14.95 10.19c0.15,0.11 0.24,0.29 0.22,0.47 -0.3,2.28 0.16,4.64 1.29,6.65 0.09,0.16 0.08,0.37 -0.03,0.52l-5.53 8.12 -4.8 0c-0.41,-6.07 -5.48,-10.87 -11.65,-10.87zm8.8 10.87l-17.61 0c0.41,-4.5 4.2,-8.04 8.8,-8.04 4.61,0 8.4,3.54 8.8,8.04zm-56.14 -0.67c0,-1.09 0.88,-1.97 1.97,-1.97l3.35 0 -0.26 2.64 -5.06 0 0 -0.67zm-3.67 6.96c0,-1.91 1.55,-3.46 3.46,-3.46l79.03 0c1.91,0 3.46,1.56 3.46,3.46l0 3.93 -85.96 0 0 -3.93zm85.96 48.29c0,1.91 -1.56,3.46 -3.46,3.46l-79.03 0c-1.91,0 -3.46,-1.55 -3.46,-3.46l0 -3.93 7.64 0c0.78,0 1.41,-0.63 1.41,-1.41 0,-0.78 -0.63,-1.42 -1.41,-1.42l-7.64 0 0 -34.76 85.96 0 0 6.63 -13.47 0 0 0c-4.24,0 -7.92,2.47 -9.66,6.06 -0.01,0.01 -0.01,0.02 -0.02,0.04 -0.02,0.03 -0.03,0.06 -0.04,0.09 -0.21,0.44 -0.39,0.9 -0.54,1.37 0,0 -0,0 -0,0 -0.31,1.01 -0.48,2.08 -0.48,3.19 0,5.92 4.82,10.74 10.74,10.74l0 0 13.47 0 0 6.64 -69.25 0c-0.78,0 -1.42,0.63 -1.42,1.42 0,0.78 0.64,1.41 1.42,1.41l69.25 0 0 3.93zm4.67 -16.58c0,0.19 -0.16,0.35 -0.35,0.35l-17.79 0c-3,0 -5.61,-1.68 -6.95,-4.14 -0.06,-0.11 -0.12,-0.23 -0.17,-0.34 -0.11,-0.23 -0.21,-0.47 -0.3,-0.71 -0.31,-0.85 -0.48,-1.76 -0.48,-2.72 0,-0.95 0.17,-1.87 0.48,-2.72 0.09,-0.24 0.19,-0.48 0.3,-0.71 0.06,-0.12 0.11,-0.23 0.17,-0.34 1.34,-2.46 3.96,-4.14 6.95,-4.14l17.79 0c0.19,0 0.35,0.16 0.35,0.35l0 15.12z"/>
  <path class="fil2" d="M98.76 47.21l0 11.9c1.28,0 2.45,0.54 3.3,1.37 0.85,0.85 1.38,2.03 1.38,3.31l0 15.12c0,1.29 -0.53,2.46 -1.37,3.31 -0.85,0.84 -2.02,1.37 -3.3,1.37l0 11.9c0,2.15 -0.87,4.09 -2.29,5.51 -1.41,1.41 -3.36,2.29 -5.51,2.29l-79.03 0c-2.15,0 -4.1,-0.87 -5.51,-2.29 -1.41,-1.41 -2.29,-3.36 -2.29,-5.51l0 -48.29c0,-1.53 0.46,-2.98 1.23,-4.19 0.62,-0.97 1.46,-1.8 2.44,-2.41l0 -0.36c0,-1.73 0.71,-3.31 1.85,-4.45 1.14,-1.14 2.72,-1.85 4.45,-1.85l2.27 0 2 -20.21c0.17,-1.67 1,-3.13 2.2,-4.11 1.2,-0.98 2.78,-1.51 4.45,-1.35l21.96 2.17c0.8,0.07 1.49,0.47 1.96,1.04 0.18,0.22 0.33,0.46 0.43,0.72l5.9 -8.66c0.46,-0.67 1.04,-1.24 1.7,-1.67 0.67,-0.43 1.41,-0.74 2.19,-0.88 0.78,-0.15 1.59,-0.13 2.36,0.02 0.79,0.16 1.54,0.48 2.2,0.94l28.83 19.65c1.39,0.94 2.27,2.37 2.55,3.89 0.29,1.52 -0,3.17 -0.95,4.56l-2.79 4.1c1.1,0.29 2.09,0.87 2.87,1.64 1.14,1.14 1.85,2.72 1.85,4.45l0 1.1c0.73,0.64 1.35,1.42 1.8,2.28 0.56,1.07 0.87,2.3 0.87,3.58zm-5.67 -4.48l0 -0.13 -0.39 -0.04 0.39 0.17zm-62.26 -3.32l12.12 -17.78 -10.11 -1c-0.64,0.89 -1.4,1.7 -2.24,2.39 -0.85,0.69 -1.8,1.27 -2.8,1.71l-1.45 14.67 4.49 0zm15.09 -22.14l0.69 -1.02 -2.09 -0.2c0.44,0.19 0.83,0.48 1.13,0.83l0.27 0.38zm14.23 -10.51l-3.59 5.23c0.61,-0.16 1.25,-0.2 1.88,-0.11 0.68,0.09 1.38,0.07 2.05,-0.05 0.67,-0.12 1.32,-0.35 1.92,-0.69 0.8,-0.44 1.69,-0.64 2.56,-0.59 0.52,0.03 1.04,0.14 1.53,0.33 -0.81,-0.55 -5.84,-4.34 -6.35,-4.12zm29.13 19.65l-6.04 -4.11c0.35,0.39 0.65,0.82 0.85,1.29 0.35,0.79 0.5,1.69 0.38,2.6 -0.09,0.67 -0.06,1.37 0.07,2.04 0.13,0.68 0.37,1.33 0.7,1.91 0.32,0.57 0.52,1.17 0.59,1.79l3.51 -5.15 0.04 -0.2 -0.11 -0.17zm-38.79 5.68c2.35,-2.2 5.52,-3.55 8.98,-3.55 3.46,0 6.63,1.35 8.98,3.55 2.04,1.9 3.48,4.46 3.99,7.33l2.69 0 4.74 -6.96c-0.49,-0.98 -0.84,-2.04 -1.05,-3.11 -0.2,-1.07 -0.27,-2.19 -0.19,-3.28l-13.97 -9.52c-0.99,0.48 -2.04,0.83 -3.13,1.02 -1.07,0.2 -2.18,0.26 -3.27,0.16l-14.78 21.69 3.02 0c0.51,-2.87 1.95,-5.43 3.99,-7.33zm2.01 7.33l13.95 0c-0.4,-1.21 -1.11,-2.28 -2.03,-3.12 -1.3,-1.19 -3.04,-1.92 -4.95,-1.92 -1.91,0 -3.65,0.73 -4.95,1.92 -0.92,0.84 -1.63,1.92 -2.03,3.13zm-41.96 6.41c-0.35,0.35 -0.57,0.85 -0.57,1.39l0 2.43 82.96 0 0 -2.43c0,-0.54 -0.22,-1.04 -0.57,-1.39 -0.35,-0.35 -0.85,-0.57 -1.39,-0.57l-79.03 0c-0.54,0 -1.04,0.22 -1.39,0.57zm81.81 51.06c0.35,-0.35 0.57,-0.85 0.57,-1.39l0 -2.43 -67.75 0c-0.8,0 -1.54,-0.33 -2.06,-0.85 -0.53,-0.52 -0.86,-1.26 -0.86,-2.06 0,-0.79 0.32,-1.52 0.85,-2.05 0.53,-0.54 1.27,-0.87 2.07,-0.87l67.75 0 0 -3.64 -11.97 0c-3.37,0 -6.44,-1.38 -8.65,-3.59 -2.21,-2.21 -3.59,-5.28 -3.59,-8.65 0,-0.59 0.05,-1.2 0.14,-1.83 0.08,-0.6 0.23,-1.21 0.41,-1.8 0.15,-0.26 0.5,-1.33 0.7,-1.75 1.02,-2.06 2.59,-3.79 4.51,-5 1.88,-1.18 4.11,-1.87 6.48,-1.87l11.97 0 0 -3.63 -82.96 0 0 31.76 6.14 0c0.8,0 1.54,0.33 2.06,0.85 0.53,0.54 0.85,1.27 0.85,2.06 0,0.8 -0.33,1.54 -0.85,2.06 -0.52,0.52 -1.26,0.85 -2.06,0.85l-6.14 0 0 2.43c0,0.54 0.22,1.04 0.57,1.39 0.35,0.36 0.85,0.57 1.39,0.57l79.03 0c0.54,0 1.04,-0.22 1.39,-0.57zm-11.39 -19.12l16.64 0 0 -12.82 -16.64 0c-1.19,0 -2.31,0.33 -3.27,0.89 -0.98,0.59 -1.81,1.44 -2.36,2.44 -0.36,0.71 -0.47,1.15 -0.68,1.94l-0.1 1.13 0.1 1.13c0.21,0.8 0.32,1.23 0.68,1.95 0.55,1 1.38,1.85 2.36,2.44 0.96,0.56 2.07,0.89 3.27,0.89z"/>
 </g>
</svg>
