<?xml version="1.0" encoding="UTF-8"?>
<!DOCTYPE svg PUBLIC "-//W3C//DTD SVG 1.1//EN" "http://www.w3.org/Graphics/SVG/1.1/DTD/svg11.dtd">
<!-- Creator: CorelDRAW X7 -->
<svg xmlns="http://www.w3.org/2000/svg" xml:space="preserve" width="512px" height="512px" version="1.1" style="shape-rendering:geometricPrecision; text-rendering:geometricPrecision; image-rendering:optimizeQuality; fill-rule:evenodd; clip-rule:evenodd"
viewBox="0 0 512 512"
 xmlns:xlink="http://www.w3.org/1999/xlink"
 xmlns:dc="http://purl.org/dc/elements/1.1/"
 xmlns:cc="http://creativecommons.org/ns#"
 xmlns:rdf="http://www.w3.org/1999/02/22-rdf-syntax-ns#"
 xmlns:svg="http://www.w3.org/2000/svg"
 xmlns:sodipodi="http://sodipodi.sourceforge.net/DTD/sodipodi-0.dtd"
 xmlns:inkscape="http://www.inkscape.org/namespaces/inkscape">
 <defs>
  <style type="text/css">
   <![CDATA[
    .fil0 {fill:none}
    .fil1 {fill:#FE6700}
   ]]>
  </style>
 </defs>
 <g id="Layer_x0020_1">
  <metadata id="CorelCorpID_0Corel-Layer"/>
  <rect class="fil0" width="512" height="512"/>
  <path class="fil1" d="M26 40c-9,0 -17,7 -17,16 0,9 8,16 17,16l52 0 56 265c2,10 9,19 17,18l272 0c9,1 17,-7 17,-16 0,-8 -8,-16 -17,-16l-259 0 -7 -33 288 0c7,0 14,-5 16,-13l7 -32c-24,19 -55,31 -89,31 -26,0 -50,-7 -71,-18l-54 0 0 -49 3 0c-14,-23 -22,-49 -22,-77 0,-13 2,-26 5,-38l-124 0 -9 -41c-1,-8 -8,-13 -16,-13l-65 0zm459 134l0 0 7 -32 0 0 0 0 0 0 0 0 0 -1 0 0 0 0 0 0 0 0 0 0 0 -1 0 0 0 0 0 0 0 0 0 -1 0 0 0 0 1 0 0 0 0 0 0 -1 0 0 0 0 0 0 0 0 0 0 0 0 0 0 0 -1 0 0 0 0 0 0 0 0 0 0 0 0 0 -2 0 0 0 0 0 0 0 -1 0 0 0 0 0 0 0 -2 0 -1 0 0 0 0 0 -2 0 0 0 -1 0 0 0 0c0,-1 0,-2 -1,-3l0 0 0 0c0,-1 0,-2 0,-3l0 0 0 0 0 -1 0 0 0 0 0 0 0 -1 0 -1 0 0 0 -1 0 0 0 0 0 -1 0 -1 0 0 -1 -1 0 0 0 -1 0 -1 0 -1 0 0 0 -1 0 0 -1 -1 0 -1 0 0 0 0 0 -1 0 0 0 0 0 -1 0 0 0 0 0 -1 -1 -1 0 0 0 0 0 -1 0 0 0 0 0 -1 0 -1 0 0 -1 -1 0 0 0 0 0 -1 0 0 0 0 0 -1 0 0 -1 -1 0 0 0 -1 0 0 0 0 0 -1 0 0 0 0 -1 -1 0 0c-1,-1 -2,-1 -3,-1l-63 0 -22 33 64 0 -11 49 -26 0 15 21 -30 0 -14 -21 -33 0 0 -3 -16 24 -30 0 46 -65 -26 -38 -66 0 0 0 0 1 0 0 0 0 -1 1 0 0 0 0 0 1 0 0 0 0 0 1 0 0 -1 1 0 0 0 1 0 0 0 1 0 0 0 0 0 1 -1 0 0 0 0 1 0 0 0 1 0 0 0 1 0 0 0 1 0 0 -1 0 0 1 0 1 0 1 0 0 0 0c0,1 -1,1 -1,2l0 1 0 1 0 0c0,1 0,2 0,3l0 0 0 0 -1 1 0 0 0 0c0,2 0,3 0,4l0 1 0 1 0 0 0 1 0 1 0 0 0 1 0 0 0 1 66 0 0 49 -58 0 0 0 0 1 1 1 0 0 0 1 0 0 0 0 1 1 0 0 0 1 0 0 0 0 0 1 1 0 0 1 0 0 0 1 0 0 1 0 0 1 0 0c1,1 1,2 2,3l0 1 1 1 0 0 1 1 0 0 0 1 1 1 0 0 0 1c1,0 1,1 2,2l0 0c0,1 1,1 1,2l0 0 1 1 0 0 1 1 0 0 0 1 0 0 1 1 0 0 0 1 0 0 1 0 0 0 0 1 1 0 0 1 1 0 0 1 0 0 0 0 1 1 1 1 0 0 0 1 38 0 0 27 0 0 1 0 0 1 0 0 1 0 0 0 0 0 0 0 1 1 0 0 0 0 1 0 0 0 0 0 1 0 0 1 1 0 1 0 0 0 0 0 0 0 1 0 0 1 0 0 1 0 0 0 0 0 1 0 0 0 0 0 1 0 0 1 0 0 1 0 0 0 0 0 1 0 0 0 1 1 0 0 0 0 1 0 0 0 1 0 0 0 0 0 1 0 0 1 1 0 0 0 0 0 1 0 1 0 0 0 1 0 0 0 1 1 1 0 1 0 0 0 1 0 0 0c2,1 3,1 4,1l1 0 1 0 0 0 1 1 0 -37 80 0 -5 21 1 -1 1 0 0 0c0,-1 1,-1 2,-1l0 0 0 -1 1 0 0 0 1 -1 0 0 1 -1 0 0 1 0 0 0 0 -1 0 0 1 0 0 0 0 0 0 -1 1 0 0 0 0 0 0 0 1 -1 0 0 0 0 0 0 1 0 0 -1 0 0 0 0 1 0 0 0 0 0 0 -1 1 0 0 0 0 0 0 0 1 -1 0 0 0 0 1 -1 0 0 0 0 0 0 1 -1 0 0 0 0 0 0 1 -1 0 0 0 0 0 0 1 -1 0 0 0 0 1 -1 0 0 1 -1 1 -1 0 0 0 0 1 -1 0 0 0 0 1 -1 0 0 1 -1 0 0 1 -1 0 0 1 -1 0 0 0 0 1 -1 0 0 0 0 1 -1 0 0 0 0 0 -1 0 0 1 0 0 0 0 -1 0 0 0 0 1 -1 0 0c1,-1 1,-1 2,-2l0 0 0 0 1 -1 0 -1 0 0 0 -1 1 0 0 -1 0 0 0 0 1 -1 0 0 1 -1 0 0 0 0 0 0 0 -1 0 0 1 -1 0 0 0 -1 1 0 0 -1 0 0 0 -1 0 0 1 0 0 0 0 -1 0 0 0 0c1,-1 1,-2 2,-2l0 0 0 0 0 -1 0 -1 0 0 1 -1 0 0 0 0 0 -1 0 0 1 0 0 -1 0 0 0 -1 1 0 0 -1 0 -1 0 0 0 0 1 -1 0 0 0 0 0 -1 0 0 1 -2zm-93 -80l-27 0 14 20 13 -20zm-269 33l99 0 0 49 -89 0 -10 -49zm17 82l82 0 0 49 -72 0 -10 -49zm71 157c-30,0 -55,25 -55,55 0,30 25,54 55,54 30,0 54,-24 54,-54 0,-30 -24,-55 -54,-55zm152 0c-30,0 -54,25 -54,55 0,30 24,54 54,54 30,0 55,-24 55,-54 0,-30 -25,-55 -55,-55zm-152 33c12,0 22,10 22,22 0,12 -10,22 -22,22 -12,0 -22,-10 -22,-22 0,-12 10,-22 22,-22zm152 0c12,0 22,10 22,22 0,12 -10,22 -22,22 -12,0 -22,-10 -22,-22 0,-12 10,-22 22,-22z" display="inline"/>
  <path class="fil1" d="M379 8c68,0 124,56 124,124 0,69 -56,125 -124,125 -69,0 -125,-56 -125,-125 0,-68 56,-124 125,-124zm0 106l30 -47 30 0 -45 65 46 65 -30 0 -31 -47 -32 47 -30 0 46 -65 -45 -65 30 0 31 47z"/>
 </g>
</svg>
