<?xml version="1.0" encoding="UTF-8"?>
<!DOCTYPE svg PUBLIC "-//W3C//DTD SVG 1.1//EN" "http://www.w3.org/Graphics/SVG/1.1/DTD/svg11.dtd">
<!-- Creator: CorelDRAW 2017 -->
<svg xmlns="http://www.w3.org/2000/svg" xml:space="preserve" width="1.70666in" height="1.70666in" version="1.1" style="shape-rendering:geometricPrecision; text-rendering:geometricPrecision; image-rendering:optimizeQuality; fill-rule:evenodd; clip-rule:evenodd"
viewBox="0 0 1707 1707"
 xmlns:xlink="http://www.w3.org/1999/xlink">
 <defs>
  <style type="text/css">
   <![CDATA[
    .str0 {stroke:#FE6700;stroke-width:6.66535}
    .fil0 {fill:none}
    .fil1 {fill:#FE6700}
   ]]>
  </style>
 </defs>
 <g id="Layer_x0020_1">
  <metadata id="CorelCorpID_0Corel-Layer"/>
  <rect class="fil0" width="1707" height="1707"/>
  <g id="_529697943584">
   <path class="fil1" d="M1520 1302c109,-108 158,-234 146,-374 -10,-118 -63,-211 -84,-246 -29,-46 -90,-122 -122,-162l187 -78 -185 -54c-3,-12 -8,-24 -13,-35 32,-25 57,-66 51,-107 -8,-54 -53,-95 -105,-95 -3,0 -7,0 -10,0 -9,1 -18,3 -26,6 -20,-31 -54,-51 -90,-51 -5,0 -11,0 -16,1 -42,6 -75,37 -87,78 -9,0 -18,1 -27,3 -55,13 -91,69 -81,127 8,45 46,77 86,88 -6,32 -5,66 2,102 20,100 25,166 14,223 -13,74 -74,127 -171,148 -44,10 -91,15 -140,15 -68,0 -125,-10 -155,-16 15,-61 43,-221 -43,-338 -63,-86 -172,-130 -324,-130 -29,0 -60,2 -93,5 -12,1 -21,11 -22,23 -1,12 7,23 18,26 20,6 147,44 261,170 -33,-16 -70,-26 -112,-26 -100,0 -212,57 -332,170 -7,7 -10,18 -6,27 4,9 13,16 23,16l5 0 5 -2c14,-6 90,-36 199,-36 34,0 68,3 102,9 -51,11 -97,37 -136,77 -64,65 -111,170 -141,311 -2,7 0,15 5,21 5,6 12,9 19,9 9,0 17,-5 21,-12 16,-28 167,-263 492,-275 -5,45 -6,134 33,235 32,84 100,156 195,208 59,32 125,54 193,66l0 173 105 0 0 -48 -57 0 0 -118c20,2 40,3 60,3 0,0 0,0 0,0 20,0 40,-1 59,-3l0 167 105 0 0 -48 -57 0 0 -125c97,-18 183,-61 247,-124zm-54 -862l35 10 -39 16c2,-9 3,-18 4,-27zm-1292 635c26,-77 59,-136 98,-177 44,-45 97,-68 157,-68 59,0 116,22 157,43 -203,21 -337,123 -412,202zm98 -345c-41,0 -79,4 -110,10 79,-58 151,-88 217,-88 120,0 194,102 232,175 -106,-64 -219,-97 -338,-97zm384 74c-82,-197 -218,-299 -312,-349 126,3 216,40 267,110 53,74 54,171 46,239zm500 -446c-24,-6 -48,-25 -52,-49 -5,-32 15,-65 44,-72 4,-1 8,-2 13,-2 3,0 5,0 8,1 2,0 4,0 5,0 17,0 31,-12 34,-29 5,-27 25,-47 50,-51 3,0 6,-1 8,-1 22,0 43,14 53,35 6,12 18,20 31,20 6,0 11,-1 16,-4 6,-4 13,-6 21,-6 2,0 3,0 5,0 28,0 53,23 57,53 3,21 -12,45 -31,60 -9,-10 -20,-18 -32,-25 -24,-15 -52,-23 -84,-23 -12,0 -24,1 -37,3 -3,0 -5,1 -8,2 -10,2 -19,5 -28,9 0,0 0,0 -1,0 -2,1 -4,2 -6,3 -1,1 -2,1 -3,2 -1,1 -2,1 -4,2 -2,1 -4,3 -6,4 0,0 -1,0 -1,0 -23,16 -42,39 -54,68zm9 1030c0,0 0,0 0,0 -206,0 -396,-106 -452,-252 -35,-92 -33,-173 -30,-213 33,7 92,17 165,17 52,0 103,-5 151,-16 117,-26 191,-92 208,-187 11,-63 7,-135 -15,-241 -8,-38 -7,-74 3,-105l0 0c0,0 0,0 0,0 1,-2 1,-4 2,-6 8,-22 23,-47 49,-61 0,0 1,0 1,-1 0,0 1,0 1,-1 6,-3 12,-5 19,-7 0,0 0,0 0,0 1,0 3,-1 4,-1 1,0 2,0 3,-1 9,-1 19,-2 27,-2 21,0 40,4 55,12 14,8 26,18 37,33 14,20 22,42 23,65 0,17 -2,31 -5,42 -3,11 -8,22 -14,33l-9 15 11 13c1,1 101,121 139,182 46,73 179,329 -54,560 -78,77 -192,120 -321,120z"/>
   <path class="fil1" d="M1337 882c-36,0 -92,14 -151,80 -105,118 -232,131 -282,131 -11,0 -18,-1 -18,-1l-70 -8 50 49c6,5 137,132 326,132 5,0 11,0 16,0 99,-4 174,-32 221,-85 48,-53 53,-114 53,-138 0,-90 -65,-161 -147,-161zm-130 335c-5,0 -9,0 -14,0 -104,0 -191,-45 -242,-79 70,-9 178,-40 271,-144 37,-42 77,-64 115,-64 55,0 99,49 99,112 0,39 -16,166 -228,174z"/>
   <path class="fil1" d="M1439 608l-37 31c0,0 41,51 82,110l40 -27c-42,-61 -83,-111 -85,-113z"/>
   <rect class="fil1" transform="matrix(0.857102 -0.419248 0.419248 0.857102 1498.64 769.758)" width="51" height="54"/>
   <path class="fil1" d="M745 972l-48 0c0,56 27,143 63,207l42 -24c-32,-55 -57,-135 -57,-182z"/>
   <rect class="fil1" x="1296" y="370" width="49" height="48"/>
  </g>
  <g id="_529697936672">
   <path class="fil1 str0" d="M634 1495c38,-38 55,-82 51,-131 -4,-41 -22,-74 -30,-86 -10,-16 -32,-43 -43,-57l65 -27 -65 -19c-1,-4 -3,-8 -5,-12 11,-9 20,-23 18,-37 -3,-19 -19,-33 -37,-33 -1,0 -2,0 -4,0 -3,0 -6,1 -9,2 -7,-11 -19,-18 -31,-18 -2,0 -4,0 -6,0 -15,2 -26,13 -31,27 -3,0 -6,0 -9,1 -19,5 -32,24 -28,44 3,16 16,27 30,31 -2,11 -2,23 1,36 7,35 9,58 5,78 -5,26 -26,44 -60,52 -15,3 -32,5 -49,5 -24,0 -44,-3 -54,-6 5,-21 15,-77 -15,-118 -22,-30 -60,-46 -113,-46 -10,0 -21,1 -33,2 -4,0 -7,4 -8,8 0,4 2,8 6,9 7,2 52,15 92,60 -11,-6 -25,-9 -39,-9 -35,0 -74,20 -116,60 -3,2 -3,6 -2,10 1,3 4,5 8,5l2 0 2 -1c5,-2 32,-13 70,-13 12,0 24,1 36,3 -18,4 -34,13 -48,27 -22,23 -39,60 -49,109 -1,3 0,5 2,7 2,2 4,3 7,3 3,0 6,-2 7,-4 6,-10 59,-92 172,-96 -2,16 -2,47 11,82 11,29 35,55 68,73 20,11 44,19 68,23l0 61 37 0 0 -17 -20 0 0 -41c7,1 14,1 21,1 0,0 0,0 0,0 7,0 14,0 21,-1l0 58 37 0 0 -17 -20 0 0 -44c34,-6 64,-21 87,-44zm-19 -302l12 4 -14 6c1,-3 1,-6 1,-9zm-452 222c9,-27 21,-48 34,-62 15,-16 34,-24 55,-24 21,0 40,8 55,15 -71,7 -118,43 -144,71zm34 -121c-15,0 -28,1 -39,3 28,-20 53,-31 76,-31 42,0 68,36 81,61 -37,-22 -77,-34 -118,-34zm135 26c-29,-69 -76,-105 -109,-122 44,1 76,14 93,38 19,26 19,60 16,84zm175 -156c-8,-2 -17,-9 -18,-17 -2,-11 5,-23 16,-25 1,0 3,-1 4,-1 1,0 2,0 3,0 1,0 1,0 2,0 6,0 11,-4 12,-10 2,-9 9,-17 17,-18 1,0 2,0 3,0 8,0 15,5 18,12 2,4 6,7 11,7 2,0 4,-1 6,-1 2,-1 5,-2 7,-2 1,0 1,0 2,0 10,0 19,8 20,19 1,7 -4,16 -11,21 -3,-3 -7,-6 -11,-9 -9,-5 -18,-8 -29,-8 -4,0 -9,0 -13,1 -1,0 -2,0 -3,1 -3,1 -7,2 -10,3 0,0 0,0 0,0 -1,0 -1,1 -2,1 0,0 -1,0 -1,1 0,0 -1,0 -1,1 -1,0 -2,1 -2,1 0,0 0,0 0,0 -8,5 -15,13 -19,24zm3 360c0,0 0,0 0,0 -72,0 -139,-37 -158,-88 -12,-32 -12,-61 -10,-74 11,2 32,6 58,6 18,0 36,-2 53,-6 41,-9 67,-32 73,-65 4,-22 2,-47 -5,-84 -3,-13 -2,-26 1,-37l0 0c0,0 0,0 0,0 0,-1 0,-1 1,-2 3,-8 8,-17 17,-21 0,0 0,0 0,0 0,0 0,0 0,0 2,-1 4,-2 7,-2 0,0 0,0 0,0 0,0 1,0 1,0 0,0 1,0 1,0 3,0 7,-1 10,-1 7,0 14,1 19,4 5,3 9,6 13,12 5,7 8,15 8,23 0,6 -1,11 -2,15 -1,4 -3,8 -5,11l-3 5 4 5c0,0 35,42 49,64 16,26 63,115 -19,196 -27,27 -67,42 -112,42z"/>
   <path class="fil1 str0" d="M572 1348c-12,0 -31,5 -50,28 -35,41 -77,46 -93,46 -4,0 -6,0 -6,0l-23 -3 17 17c2,2 46,46 108,46 2,0 4,0 5,0 33,-1 58,-11 73,-30 16,-18 18,-40 18,-48 0,-32 -21,-56 -49,-56zm-43 117c-2,0 -3,0 -5,0 -35,0 -63,-16 -80,-28 23,-3 59,-14 90,-50 12,-15 25,-22 38,-22 18,0 33,17 33,39 0,14 -5,58 -76,61z"/>
   <path class="fil1 str0" d="M587 1256l-13 11c0,0 15,18 29,38l14 -10c-15,-21 -29,-39 -30,-40z"/>
   <rect class="fil1 str0" transform="matrix(0.300046 -0.146767 0.146767 0.300046 609.715 1315.9)" width="51" height="54"/>
   <path class="fil1 str0" d="M372 1381l-17 0c0,20 9,50 22,72l15 -8c-11,-19 -20,-47 -20,-64z"/>
   <rect class="fil1 str0" x="555" y="1169" width="17" height="17"/>
  </g>
 </g>
</svg>
