<?xml version="1.0" encoding="UTF-8"?>
<!DOCTYPE svg PUBLIC "-//W3C//DTD SVG 1.1//EN" "http://www.w3.org/Graphics/SVG/1.1/DTD/svg11.dtd">
<!-- Creator: CorelDRAW 2017 -->
<svg xmlns="http://www.w3.org/2000/svg" xml:space="preserve" width="1.70666in" height="1.70666in" version="1.1" style="shape-rendering:geometricPrecision; text-rendering:geometricPrecision; image-rendering:optimizeQuality; fill-rule:evenodd; clip-rule:evenodd"
viewBox="0 0 1707 1707"
 xmlns:xlink="http://www.w3.org/1999/xlink"
 xmlns:dc="http://purl.org/dc/elements/1.1/"
 xmlns:cc="http://creativecommons.org/ns#"
 xmlns:rdf="http://www.w3.org/1999/02/22-rdf-syntax-ns#"
 xmlns:svg="http://www.w3.org/2000/svg"
 xmlns:sodipodi="http://sodipodi.sourceforge.net/DTD/sodipodi-0.dtd"
 xmlns:inkscape="http://www.inkscape.org/namespaces/inkscape">
 <defs>
  <style type="text/css">
   <![CDATA[
    .fil0 {fill:none}
    .fil1 {fill:#FE6700;fill-rule:nonzero}
   ]]>
  </style>
 </defs>
 <g id="Layer_x0020_1">
  <metadata id="CorelCorpID_0Corel-Layer"/>
  <rect class="fil0" width="1707" height="1707"/>
  <g id="_529650797984">
   <g>
    <path class="fil1" d="M629 112c-3,0 -5,0 -7,1 -46,14 -74,58 -75,106 -105,19 -192,97 -221,204 -28,106 8,218 90,287 -41,17 -80,39 -115,66l-16 -16c0,0 -1,-1 -1,-1 -5,-5 -11,-8 -18,-8 0,0 0,0 0,0 -3,0 -6,1 -9,2l-1 0 -112 45c-7,3 -13,9 -15,16 -27,91 -42,179 -42,263 0,162 43,303 137,390 91,85 220,127 375,127l0 0c154,0 284,-43 375,-127 9,-8 17,-18 25,-27 1,2 2,3 3,5 0,0 0,0 0,1l0 1 0 0c1,1 1,2 1,3 0,0 0,1 0,1l0 1c2,3 5,6 8,8 37,57 95,94 161,113 70,20 149,25 228,20 71,-4 138,-14 200,-29 11,-3 20,-13 20,-25 0,-8 -4,-15 -10,-20l-67 -53 43 -160c1,-2 1,-4 1,-7 0,-10 -6,-19 -14,-23l-123 -61 9 -137c0,-1 0,-1 0,-2 0,-10 -6,-19 -14,-23l-126 -63 -22 -152c-2,-12 -12,-22 -25,-22l0 0c0,0 0,0 -1,0 -6,0 -12,2 -17,7 -53,48 -103,106 -150,172 -3,-33 -9,-66 -16,-99 -2,-8 -8,-15 -15,-18l-121 -49c-1,-3 -3,-5 -5,-7 -47,-49 -105,-87 -168,-112 82,-69 119,-181 90,-288 -26,-99 -104,-173 -200,-198 55,-14 112,-14 167,1 2,1 5,1 8,1 14,0 26,-11 26,-26 0,-12 -8,-22 -20,-25 -49,-13 -100,-16 -149,-10 -33,4 -65,13 -96,26 7,-15 18,-26 32,-30 11,-3 18,-13 18,-25 0,-14 -11,-26 -26,-26 0,0 0,0 0,0l0 0zm-31 154c104,0 195,70 222,171 27,100 -16,204 -104,257 -11,3 -19,13 -19,25 0,12 8,22 19,25 51,14 98,38 141,70l-131 87 -139 -93c-4,-3 -9,-4 -14,-4 -5,0 -10,1 -14,4l-136 91 -85 -84c43,-32 91,-57 143,-71 11,-3 19,-13 19,-25 0,-12 -9,-23 -21,-25 -87,-53 -129,-157 -103,-256 27,-101 118,-171 222,-171zm-89 128c-21,0 -38,17 -38,38 0,21 17,38 38,38 21,0 38,-17 38,-38 0,-21 -17,-38 -38,-38l0 0zm205 0c-21,0 -38,17 -38,38 0,21 17,38 38,38 21,0 38,-17 38,-38 0,-21 -17,-38 -38,-38l0 0zm-114 128c0,0 -1,0 -1,0 -19,0 -38,11 -51,30l51 72 51 -72c-13,-19 -31,-30 -50,-30l0 0zm-340 286l141 141c5,5 11,7 18,7 5,0 10,-2 14,-4l139 -93 139 93c4,3 9,4 14,4 5,0 10,-1 14,-4l142 -95 158 63c11,54 18,107 18,157 0,153 -41,279 -120,353 -79,74 -195,114 -340,114l0 0c-145,0 -260,-40 -340,-114 -79,-74 -120,-200 -120,-353 0,-75 14,-155 38,-237l84 -34zm995 96l16 109c1,8 6,16 14,19l123 61 -9 137c0,1 0,1 0,2 0,10 6,19 14,23l120 59 -42 156c-1,2 -1,4 -1,7 0,8 4,15 10,20l33 26c-44,8 -87,17 -135,20 -75,5 -149,1 -211,-18 -62,-18 -112,-50 -140,-99 0,0 0,0 0,-1 -6,-10 -10,-20 -14,-31 52,-84 76,-193 77,-314 4,-6 8,-12 12,-18 41,-62 87,-111 134,-159z"/>
   </g>
  </g>
 </g>
</svg>
