<?xml version="1.0" encoding="utf-8"?>
<!-- Generator: Adobe Illustrator 22.1.0, SVG Export Plug-In . SVG Version: 6.00 Build 0)  -->
<svg version="1.1" id="Capa_1" xmlns="http://www.w3.org/2000/svg" xmlns:xlink="http://www.w3.org/1999/xlink" x="0px" y="0px"
	 viewBox="0 0 512 512" style="enable-background:new 0 0 512 512;" xml:space="preserve">
<style type="text/css">
	.st0{fill:#FF6600;}
</style>
<g>
	<g>
		<path class="st0" d="M492.5,118.3L266.4,3.7l-0.1,0c-10.1-5-22-4.9-32,0.3C233.6,4.3,19.6,117.9,18.9,118.3
			C7.2,124.4,0,136.4,0,149.6v212.9c0,13.2,7.2,25.1,18.9,31.2L234.2,508l0.1,0.1c5.1,2.7,10.7,4,16.3,4c5.4,0,10.8-1.2,15.7-3.7
			l226.2-114.6c12-6,19.5-18.1,19.5-31.5V149.8C512,136.4,504.5,124.3,492.5,118.3z M247.7,9.7l240.8,124.8l-115.7,58.3L143.4,67.2
			 M19.1,373.1V157.4L242.6,274v223.6 M255,262L24.3,133l106.5-60.7l228,128.4L255,262z M492.4,371.6l-227,123.1V278.6l102.4-61.2
			l1,55.4c0.7,10,7,15,10,15c8.3,0,11-6.7,11-15v-66.3l102.6-49.1"/>
	</g>
</g>
<g>
	<g>
		<path class="st0" d="M190,293.7c-16.5,8.7-17.9,10.1-25,14.3l-57.2,35.5l-21-35.5c-4-7.3-5.5-12.6-10.8-12.5
			c-6.8,3.6-1.7,10.4,2.3,17.6l17.2,31.1c0,0.1,0.1,0.1,0.1,0.2c0,0,0,0.1,0.1,0.1c0.1,0.1,0.1,0.2,0.2,0.3c0.1,0.1,0.2,0.3,0.3,0.4
			c0.1,0.1,0.2,0.3,0.3,0.4c0.1,0.1,0.2,0.3,0.3,0.4c0.1,0.1,0.2,0.3,0.3,0.4c0.1,0.1,0.2,0.3,0.3,0.4c0.1,0.1,0.2,0.2,0.3,0.4
			c0.1,0.1,0.2,0.2,0.3,0.4c0.1,0.1,0.2,0.2,0.4,0.4c0.1,0.1,0.2,0.2,0.4,0.3c0.1,0.1,0.3,0.2,0.4,0.3c0.1,0.1,0.2,0.2,0.4,0.3
			c0.1,0.1,0.3,0.2,0.4,0.3c0.1,0.1,0.2,0.2,0.4,0.3c0.2,0.1,0.3,0.2,0.5,0.3c0.1,0.1,0.2,0.2,0.4,0.2c0.2,0.1,0.3,0.2,0.5,0.3
			c0.1,0.1,0.2,0.1,0.4,0.2c0.2,0.1,0.3,0.2,0.5,0.2c0.1,0.1,0.3,0.1,0.4,0.2c0.2,0.1,0.3,0.1,0.5,0.2c0.1,0,0.3,0.1,0.4,0.1
			c0.2,0.1,0.3,0.1,0.5,0.2c0.1,0,0.3,0.1,0.4,0.1c0.2,0,0.3,0.1,0.5,0.1c0.1,0,0.3,0.1,0.4,0.1c0.2,0,0.3,0.1,0.5,0.1
			c0.2,0,0.3,0.1,0.5,0.1c0.2,0,0.3,0,0.5,0c0.2,0,0.3,0,0.5,0c0.1,0,0.3,0,0.4,0c0.2,0,0.4,0,0.6,0c0.3,0,0.6,0,1,0
			c0.1,0,0.2,0,0.2,0c0.2,0,0.5,0,0.7-0.1c0.1,0,0.2,0,0.4-0.1c0.2,0,0.4-0.1,0.6-0.1c0.1,0,0.3-0.1,0.4-0.1c0.2,0,0.3-0.1,0.5-0.1
			c0.1,0,0.3-0.1,0.4-0.1c0.2,0,0.3-0.1,0.5-0.1c0.2,0,0.3-0.1,0.5-0.2c0.2-0.1,0.3-0.1,0.5-0.2c0.2-0.1,0.3-0.1,0.4-0.2
			c0.2-0.1,0.3-0.1,0.5-0.2c0.1-0.1,0.3-0.1,0.4-0.2c0.1,0,0.2-0.1,0.3-0.1c0,0,0.1,0,0.1-0.1c0.1,0,0.2-0.1,0.2-0.1l60.8-36.5
			C213.8,292.3,205.8,284.5,190,293.7z"/>
	</g>
</g>
</svg>
