<?xml version="1.0" encoding="UTF-8"?>
<!DOCTYPE svg PUBLIC "-//W3C//DTD SVG 1.1//EN" "http://www.w3.org/Graphics/SVG/1.1/DTD/svg11.dtd">
<!-- Creator: CorelDRAW 2017 -->
<svg xmlns="http://www.w3.org/2000/svg" xml:space="preserve" width="0.0799961in" height="0.0799961in" version="1.1" style="shape-rendering:geometricPrecision; text-rendering:geometricPrecision; image-rendering:optimizeQuality; fill-rule:evenodd; clip-rule:evenodd"
viewBox="0 0 80 80"
 xmlns:xlink="http://www.w3.org/1999/xlink"
 xmlns:dc="http://purl.org/dc/elements/1.1/"
 xmlns:cc="http://creativecommons.org/ns#"
 xmlns:rdf="http://www.w3.org/1999/02/22-rdf-syntax-ns#"
 xmlns:svg="http://www.w3.org/2000/svg"
 xmlns:sodipodi="http://sodipodi.sourceforge.net/DTD/sodipodi-0.dtd"
 xmlns:inkscape="http://www.inkscape.org/namespaces/inkscape">
 <defs>
  <style type="text/css">
   <![CDATA[
    .fil0 {fill:none}
    .fil2 {fill:white}
    .fil1 {fill:white;fill-rule:nonzero}
   ]]>
  </style>
 </defs>
 <g id="Layer_x0020_1">
  <metadata id="CorelCorpID_0Corel-Layer"/>
  <rect class="fil0" x="-0" y="-0" width="80" height="80"/>
  <g id="_127852370880">
   <g>
    <path class="fil1" d="M7.03 38.47c-2.1,0 -3.83,1.74 -3.83,3.83l0 1.54c0,2.1 1.73,3.83 3.83,3.83l65.93 0c2.09,0 3.83,-1.73 3.83,-3.83l0 -1.54c0,-2.09 -1.73,-3.83 -3.83,-3.83l-65.93 0zm0 3.06l65.93 0c0.45,0 0.76,0.31 0.76,0.77l0 1.54c0,0.45 -0.31,0.76 -0.76,0.76l-65.93 0c-0.45,0 -0.76,-0.31 -0.76,-0.76l0 -1.54c0,-0.45 0.31,-0.77 0.76,-0.77z"/>
    <path class="fil2" d="M10.08 44.6c-0.83,0.01 -1.51,0.69 -1.51,1.53 0,0.06 0,0.12 0.01,0.17 0,0 0.24,2.47 0.78,5.46 0.54,2.99 1.31,6.48 2.66,8.91 0.17,0.29 0.39,0.75 0.78,1.23 0.39,0.48 1.1,1.1 2.11,1.09 2.29,-0.02 5.35,-0.02 7.64,0 0.01,0 0.01,0 0.01,0 0,0 0.01,0 0.01,0 1.02,0 1.72,-0.65 2.09,-1.12 0.37,-0.47 0.59,-0.9 0.73,-1.12 0.91,-1.41 1.61,-3.35 2.15,-5.02 0.35,-1.04 0.42,-1.35 0.57,-1.91l2.37 0c0.18,0.54 0.28,0.89 0.7,1.97 0.64,1.66 1.44,3.59 2.37,4.98 0.41,0.62 0.98,1.58 2.21,2.09 0.19,0.08 0.4,0.13 0.6,0.13 0,0 0,0 0.01,0 2.29,-0.02 5.35,-0.02 7.64,0 -0.01,0 -0,0 -0,0 0.2,0 0.41,-0.04 0.59,-0.12 1.22,-0.5 1.81,-1.46 2.23,-2.12 0.91,-1.41 1.61,-3.35 2.16,-5.02 0.35,-1.04 0.42,-1.35 0.57,-1.91l2.37 0c0.18,0.54 0.28,0.89 0.7,1.97 0.64,1.67 1.43,3.6 2.37,4.98 0.13,0.19 0.35,0.61 0.71,1.08 0.37,0.47 1.07,1.14 2.11,1.13 2.28,-0.02 5.35,-0.02 7.64,0 0.01,0 0.01,0 0.01,0 0,0 0,0 0.01,0 1,0 1.7,-0.61 2.09,-1.09 0.39,-0.48 0.62,-0.94 0.79,-1.25 1.32,-2.45 1.99,-5.94 2.44,-8.93 0.45,-3 0.61,-5.46 0.61,-5.46 0,-0.06 0.01,-0.11 0.01,-0.17 0,-0.85 -0.69,-1.54 -1.53,-1.54 -0.83,0 -1.52,0.66 -1.54,1.49 0,0 -0.16,2.35 -0.59,5.21 -0.43,2.86 -1.2,6.25 -2.11,7.93 -0.17,0.31 -0.33,0.6 -0.44,0.73 -2.19,-0.02 -4.92,-0.02 -7.11,0 -0.12,-0.16 -0.29,-0.47 -0.55,-0.86 -0.61,-0.91 -1.44,-2.79 -2.05,-4.37 -0.61,-1.58 -1.02,-2.87 -1.02,-2.87 -0.2,-0.64 -0.79,-1.07 -1.46,-1.07l-4.6 0c-0.69,0 -1.3,0.47 -1.48,1.15 0,0 -0.34,1.29 -0.86,2.87 -0.52,1.57 -1.26,3.45 -1.82,4.32 -0.31,0.48 -0.58,0.73 -0.73,0.83 -2.09,-0.01 -4.6,-0.01 -6.69,0 -0.14,-0.1 -0.41,-0.35 -0.75,-0.86 -0.61,-0.91 -1.44,-2.78 -2.05,-4.36 -0.61,-1.58 -1.02,-2.87 -1.02,-2.87 -0.19,-0.63 -0.79,-1.07 -1.45,-1.07 0,0 0,0 0,0l-4.6 0c-0.7,0 -1.31,0.47 -1.49,1.15 0,0 -0.34,1.29 -0.86,2.87 -0.52,1.57 -1.26,3.45 -1.82,4.32 -0.24,0.38 -0.41,0.68 -0.53,0.83 -2.19,-0.02 -4.93,-0.02 -7.12,0 -0.11,-0.14 -0.27,-0.43 -0.46,-0.75 -0.94,-1.69 -1.81,-5.09 -2.32,-7.95 -0.52,-2.86 -0.75,-5.22 -0.75,-5.22 -0.06,-0.79 -0.72,-1.4 -1.52,-1.4 -0,0 -0.02,0 -0.02,0l-0.01 0z"/>
    <path class="fil2" d="M18.53 23.13c-0.76,0 -1.51,0.19 -2.2,0.57 -3.78,2.04 -5.58,6.28 -6.66,9.87 -0.41,1.37 -0.35,2.91 -0.28,4.23 0.07,1.32 0.22,2.4 0.22,2.4 0.11,0.76 0.76,1.34 1.53,1.34 0.85,0 1.54,-0.69 1.54,-1.54 0,-0.08 -0,-0.15 -0.02,-0.23 0,0 -0.13,-0.96 -0.2,-2.15 -0.07,-1.19 -0.01,-2.64 0.15,-3.17 0.98,-3.28 2.69,-6.7 5.18,-8.05 0.35,-0.19 1.16,-0.19 1.5,0 2.5,1.35 4.2,4.77 5.18,8.05 0.16,0.53 0.22,1.99 0.15,3.17 -0.07,1.19 -0.2,2.15 -0.2,2.15 -0.01,0.08 -0.02,0.15 -0.02,0.23 0,0.85 0.69,1.54 1.54,1.54 0.77,0 1.42,-0.57 1.52,-1.34 0,0 0.15,-1.07 0.22,-2.4 0.08,-1.32 0.14,-2.85 -0.28,-4.23 -1.08,-3.59 -2.89,-7.83 -6.66,-9.87 -0.7,-0.37 -1.45,-0.57 -2.2,-0.57l-0.01 0z"/>
    <path class="fil2" d="M40 23.13c-0.76,0 -1.51,0.19 -2.2,0.57 -3.78,2.04 -5.58,6.28 -6.66,9.87 -0.41,1.37 -0.35,2.91 -0.28,4.23 0.08,1.32 0.23,2.4 0.23,2.4 0.11,0.76 0.76,1.34 1.53,1.34 0.85,0 1.54,-0.69 1.54,-1.54 0,-0.08 -0,-0.15 -0.02,-0.23 0,0 -0.13,-0.96 -0.2,-2.15 -0.07,-1.19 -0.01,-2.64 0.15,-3.17 0.98,-3.28 2.69,-6.7 5.18,-8.05 0.35,-0.19 1.16,-0.19 1.5,0 2.5,1.35 4.2,4.77 5.18,8.05 0.16,0.53 0.22,1.99 0.15,3.17 -0.07,1.19 -0.2,2.15 -0.2,2.15 -0.02,0.08 -0.03,0.15 -0.03,0.23 0,0.85 0.69,1.54 1.54,1.54 0.77,0 1.42,-0.57 1.52,-1.34 0,0 0.16,-1.07 0.23,-2.4 0.08,-1.32 0.13,-2.85 -0.28,-4.23 -1.08,-3.59 -2.89,-7.83 -6.66,-9.87 -0.7,-0.37 -1.45,-0.57 -2.2,-0.57z"/>
    <path class="fil2" d="M61.46 23.13c-0.76,0 -1.51,0.19 -2.2,0.57 -3.78,2.04 -5.58,6.27 -6.66,9.86 -0.41,1.37 -0.35,2.91 -0.28,4.23 0.08,1.32 0.23,2.4 0.23,2.4 0.1,0.76 0.75,1.34 1.52,1.34 0.85,0 1.54,-0.69 1.54,-1.54 0,-0.08 -0,-0.15 -0.02,-0.23 0,0 -0.13,-0.96 -0.2,-2.15 -0.07,-1.19 -0.01,-2.64 0.15,-3.17 0.98,-3.28 2.69,-6.7 5.18,-8.05 0.35,-0.19 1.16,-0.19 1.5,0 2.5,1.35 4.2,4.77 5.18,8.05 0.16,0.53 0.22,1.99 0.15,3.17 -0.07,1.19 -0.2,2.15 -0.2,2.15 -0.01,0.08 -0.02,0.15 -0.02,0.23 0,0.85 0.69,1.54 1.54,1.54 0.77,0 1.42,-0.57 1.52,-1.34 0,0 0.15,-1.07 0.22,-2.4 0.08,-1.32 0.14,-2.85 -0.28,-4.23 -1.08,-3.59 -2.89,-7.82 -6.66,-9.86 -0.7,-0.37 -1.45,-0.57 -2.2,-0.57z"/>
    <path class="fil2" d="M28.88 17c-0.71,0 -1.41,0.15 -2.08,0.46 -3.68,1.65 -5.56,5.22 -6.63,8.21 -0.07,0.18 -0.1,0.37 -0.1,0.56 0,0.85 0.69,1.54 1.53,1.54 0.67,0 1.26,-0.43 1.46,-1.06 0.95,-2.63 2.52,-5.33 5.01,-6.45 0.37,-0.17 1.28,-0.17 1.65,0 2.49,1.12 4.06,3.82 5.01,6.45 0.2,0.63 0.8,1.06 1.46,1.06 0.85,0 1.53,-0.69 1.53,-1.54 0,-0.2 -0.04,-0.39 -0.11,-0.57 -1.08,-2.99 -2.96,-6.55 -6.63,-8.21 -0.67,-0.3 -1.38,-0.46 -2.08,-0.46l-0.01 0z"/>
    <path class="fil2" d="M51.11 17c-0.7,0 -1.41,0.15 -2.08,0.46 -3.68,1.65 -5.56,5.22 -6.63,8.21 -0.07,0.18 -0.11,0.37 -0.11,0.56 0,0.85 0.69,1.54 1.54,1.54 0.67,0 1.25,-0.43 1.46,-1.06 0.95,-2.63 2.52,-5.33 5.01,-6.45 0.37,-0.17 1.29,-0.17 1.65,0 2.49,1.12 4.06,3.82 5.01,6.45 0.2,0.63 0.79,1.06 1.46,1.06 0.85,0 1.54,-0.69 1.54,-1.54 0,-0.2 -0.04,-0.39 -0.11,-0.57 -1.08,-2.99 -2.96,-6.55 -6.63,-8.21 -0.67,-0.3 -1.37,-0.46 -2.08,-0.46l-0 0z"/>
   </g>
  </g>
 </g>
</svg>
