<?xml version="1.0" encoding="UTF-8"?>
<!DOCTYPE svg PUBLIC "-//W3C//DTD SVG 1.1//EN" "http://www.w3.org/Graphics/SVG/1.1/DTD/svg11.dtd">
<!-- Creator: CorelDRAW 2017 -->
<svg xmlns="http://www.w3.org/2000/svg" xml:space="preserve" width="1.70667in" height="1.70667in" version="1.1" style="shape-rendering:geometricPrecision; text-rendering:geometricPrecision; image-rendering:optimizeQuality; fill-rule:evenodd; clip-rule:evenodd"
viewBox="0 0 1707 1707"
 xmlns:xlink="http://www.w3.org/1999/xlink">
 <defs>
  <style type="text/css">
   <![CDATA[
    .fil0 {fill:none}
    .fil1 {fill:#FF6602}
    .fil2 {fill:#FF6702}
   ]]>
  </style>
 </defs>
 <g id="Layer_x0020_1">
  <metadata id="CorelCorpID_0Corel-Layer"/>
  <rect class="fil0" width="1707" height="1707"/>
  <g id="_228475626832">
   <path class="fil1" d="M1178 1103c0,-87 43,-143 131,-143l287 0 0 262 -293 0c-62,0 -125,-56 -125,-119zm-154 -1048l8 0c16,4 41,30 103,92 73,73 47,64 129,64 129,-1 258,0 387,0l0 1441c-335,0 -670,0 -1004,0l-382 0c-44,-4 -80,-10 -102,-21 -48,-23 -100,-82 -107,-142l-1 -1004 0 -10c0,-99 1,-130 51,-189 20,-24 44,-43 74,-57 37,-16 52,-19 106,-19l374 0c68,1 53,0 89,-36 36,-37 86,-97 129,-120 31,7 59,39 75,62 45,-30 56,-58 71,-62zm522 661c0,28 13,31 50,31l0 156c-104,0 -304,-14 -375,19 -166,77 -118,356 81,356l293 0 0 212c-29,0 -50,-4 -50,31 0,24 25,25 50,25l0 50 -1323 0c-88,0 -162,-46 -162,-131l4 -87c0,-15 -4,-19 -4,-44 0,-116 -9,-688 6,-755 59,40 79,62 175,62l1304 0 0 50c-20,0 -50,-5 -50,25zm-516 -373l243 240 -482 2 239 -242zm-906 23l-3 13 3 -13zm1135 -100l337 0 0 318c-34,-1 -27,-5 -64,-42l-167 -164c11,-16 14,-17 25,-37 -8,-9 2,4 -9,-10 -5,-7 -6,-9 -10,-15 -29,0 -55,5 -74,-8 -11,-7 -32,-32 -39,-42zm-686 318l457 -460 462 459c-33,2 -64,2 -95,2 -49,0 -41,0 -67,-27 -34,-35 -272,-282 -296,-284 -28,-2 -84,67 -104,87l-193 193c-42,44 -43,30 -164,30zm-449 -218c24,-102 142,-100 212,-100 106,0 212,0 318,0 -15,22 -37,39 -56,57l-236 238c-17,18 -14,22 -45,24 -73,4 -147,-16 -183,-79 -23,-39 -23,-56 -23,-115 23,27 30,34 66,10 26,-17 52,-22 33,-60 -43,-21 -56,17 -87,25zm299 218l460 -463 31 34c-19,29 -338,339 -399,403 -34,36 -27,26 -92,26z"/>
   <path class="fil2" d="M1334 1140c-67,0 -69,-100 0,-100 69,0 64,100 0,100zm-6 56c115,0 140,-124 83,-183 -61,-62 -192,-26 -186,81 3,56 46,101 103,101z"/>
   <path class="fil1" d="M585 1515c0,37 50,31 69,31 54,0 50,-56 19,-56 -44,0 -87,-9 -87,25z"/>
   <path class="fil1" d="M1384 1515c0,37 50,31 69,31 54,0 50,-56 19,-56 -44,0 -87,-9 -87,25z"/>
   <path class="fil1" d="M585 716c0,37 50,31 69,31 54,0 50,-56 19,-56 -44,0 -87,-9 -87,25z"/>
   <path class="fil1" d="M1384 716c0,37 50,31 69,31 54,0 50,-56 19,-56 -44,0 -87,-9 -87,25z"/>
   <path class="fil2" d="M947 747c19,0 69,6 69,-31 0,-34 -44,-25 -87,-25 -32,0 -36,56 19,56z"/>
   <path class="fil2" d="M947 1546c19,0 69,6 69,-31 0,-34 -44,-25 -87,-25 -32,0 -36,56 19,56z"/>
   <path class="fil1" d="M117 672c0,23 100,97 100,25 0,-20 -50,-46 -69,-56 -13,7 -31,11 -31,31z"/>
   <path class="fil2" d="M1440 342c0,40 26,31 81,31 34,0 34,-56 0,-56 -40,0 -81,-8 -81,25z"/>
   <path class="fil1" d="M267 342c0,40 26,31 81,31 34,0 34,-56 0,-56 -40,0 -81,-8 -81,25z"/>
   <path class="fil1" d="M423 348c26,30 8,25 75,25 55,0 43,-56 12,-56 -77,0 -68,-6 -87,31z"/>
   <path class="fil1" d="M117 1471c0,23 100,97 100,25 0,-20 -17,-23 -31,-32 -15,-10 -19,-15 -38,-24 -13,7 -31,11 -31,31z"/>
   <path class="fil1" d="M467 1546l62 -6c13,-56 4,-50 -81,-50 -30,0 -35,56 19,56z"/>
   <path class="fil1" d="M1265 1546l62 -6c13,-56 4,-50 -81,-50 -30,0 -35,56 19,56z"/>
   <path class="fil1" d="M467 747l62 -6c13,-56 4,-50 -81,-50 -30,0 -35,56 19,56z"/>
   <path class="fil1" d="M1265 747l62 -6c13,-56 4,-50 -81,-50 -30,0 -35,56 19,56z"/>
   <path class="fil1" d="M267 710c0,17 3,17 6,31l62 6c37,0 37,-13 37,-50 -18,-4 -106,-21 -106,12z"/>
   <path class="fil1" d="M1065 710c0,17 3,17 6,31l62 6c37,0 37,-13 37,-50 -18,-4 -106,-21 -106,12z"/>
   <path class="fil1" d="M267 1508c0,17 3,17 6,31l62 6c37,0 37,-13 37,-50 -18,-4 -106,-21 -106,12z"/>
   <path class="fil1" d="M1065 1508c0,17 3,17 6,31l62 6c37,0 37,-13 37,-50 -18,-4 -106,-21 -106,12z"/>
   <path class="fil1" d="M747 716c0,48 106,38 106,6 0,-40 -26,-31 -81,-31 -15,0 -25,10 -25,25z"/>
   <path class="fil1" d="M747 1515c0,48 106,38 106,6 0,-40 -26,-31 -81,-31 -15,0 -25,10 -25,25z"/>
  </g>
 </g>
</svg>
