<?xml version="1.0" encoding="UTF-8"?>
<!DOCTYPE svg PUBLIC "-//W3C//DTD SVG 1.1//EN" "http://www.w3.org/Graphics/SVG/1.1/DTD/svg11.dtd">
<!-- Creator: CorelDRAW X7 -->
<svg xmlns="http://www.w3.org/2000/svg" xml:space="preserve" width="512px" height="512px" version="1.1" style="shape-rendering:geometricPrecision; text-rendering:geometricPrecision; image-rendering:optimizeQuality; fill-rule:evenodd; clip-rule:evenodd"
viewBox="0 0 512 512"
 xmlns:xlink="http://www.w3.org/1999/xlink">
 <defs>
  <style type="text/css">
   <![CDATA[
    .fil0 {fill:none}
    .fil1 {fill:#FF6600}
   ]]>
  </style>
 </defs>
 <g id="Layer_x0020_1">
  <metadata id="CorelCorpID_0Corel-Layer"/>
  <rect class="fil0" width="512" height="512"/>
  <g id="_434148425664">
   <g>
    <g>
     <path class="fil1" d="M201 193c-38,0 -69,29 -71,66l0 0 0 62 142 0 0 -62 0 0c-3,-37 -34,-66 -71,-66zm-4 111l-50 0 0 -42 0 -2c2,-26 23,-48 50,-50l0 94 0 0zm57 0l-49 0 0 -94c26,2 47,24 49,50l0 2 0 42 0 0z"/>
     <path class="fil1" d="M499 94c0,0 0,0 0,0 -17,-40 -57,-68 -103,-68 -46,0 -86,28 -103,68 -2,6 -4,12 -6,18 7,4 15,8 22,12l0 25 -13 -13 -89 -37 -89 37 -74 74 -37 76 14 0 4 0 27 0 0 200 78 0 142 0 74 0 17 0 72 0 26 0 26 0 0 -364c0,0 10,-6 16,-9 -1,0 -1,0 2,-1 0,0 -3,-10 -6,-18zm-190 10c4,-12 11,-23 21,-32 16,-17 37,-26 60,-28 -9,10 -30,35 -35,76 -6,-1 -12,-3 -18,-4 -10,-4 -20,-8 -28,-12zm-121 311l-41 40 0 -81 41 41zm-28 -54l81 0 -40 41 -41 -41zm0 107l41 -41 40 41 -81 0zm94 -13l-41 -40 41 -41 0 81zm91 -129l0 142 -73 0 0 -124 -142 0 0 124 -61 0 0 -151 0 -31 0 -18 0 -1 7 -14 62 -67 69 -34 70 34 61 67 7 11 0 62 0 0zm6 -83l-66 -72 -78 -36 -78 36 -66 72 -11 25 -1 0 -17 0 25 -48 69 -69 79 -34 80 34 68 69 25 48 -17 0 0 0 -12 -25zm34 225l-22 0 0 -182 22 0 0 182zm84 0l-8 0 0 -312 -26 5 0 307 -24 0 0 -307 -26 0 0 80 -15 -31 -8 -8 0 -41 -26 -6 0 21 -9 -9 0 -36c21,7 44,11 69,11 26,0 51,-4 73,-12l0 338 0 0zm-14 -352c-6,2 -13,3 -20,5 0,0 0,0 0,-1 -5,-41 -26,-66 -35,-76 23,1 46,11 62,28 10,9 17,20 21,32 -8,4 -18,8 -28,12z"/>
    </g>
   </g>
   <g>
   </g>
   <g>
   </g>
   <g>
   </g>
   <g>
   </g>
   <g>
   </g>
   <g>
   </g>
   <g>
   </g>
   <g>
   </g>
   <g>
   </g>
   <g>
   </g>
   <g>
   </g>
   <g>
   </g>
   <g>
   </g>
   <g>
   </g>
   <g>
   </g>
  </g>
 </g>
</svg>
