<?xml version="1.0" encoding="UTF-8"?>
<!DOCTYPE svg PUBLIC "-//W3C//DTD SVG 1.1//EN" "http://www.w3.org/Graphics/SVG/1.1/DTD/svg11.dtd">
<!-- Creator: CorelDRAW 2017 -->
<svg xmlns="http://www.w3.org/2000/svg" xml:space="preserve" width="0.106665in" height="0.106665in" version="1.1" style="shape-rendering:geometricPrecision; text-rendering:geometricPrecision; image-rendering:optimizeQuality; fill-rule:evenodd; clip-rule:evenodd"
viewBox="0 0 106.67 106.67"
 xmlns:xlink="http://www.w3.org/1999/xlink">
 <defs>
  <style type="text/css">
   <![CDATA[
    .fil0 {fill:none}
    .fil1 {fill:#FE6700}
   ]]>
  </style>
 </defs>
 <g id="Layer_x0020_1">
  <metadata id="CorelCorpID_0Corel-Layer"/>
  <rect class="fil0" x="-0" y="-0" width="106.67" height="106.67"/>
  <g id="_202555710304">
   <path class="fil1" d="M84.39 61.22l-31.13 0 -4.56 4.56 8.72 0 0 27.75 -21.23 0c-6.46,0 -11.89,-4.45 -13.43,-10.45 -0.17,0 -0.33,0.01 -0.5,0.01 -1.43,0 -2.85,-0.14 -4.26,-0.41 1.45,8.72 9.04,15.4 18.18,15.4l48.2 0c10.16,0 18.43,-8.26 18.43,-18.43 0,-10.16 -8.26,-18.43 -18.43,-18.43zm-4.2 32.07l-15.26 0c-1.08,0 -1.95,-0.87 -1.95,-1.95 0,-1.08 0.87,-1.95 1.95,-1.95l15.26 0c1.08,0 1.95,0.87 1.95,1.95 0,1.08 -0.87,1.95 -1.95,1.95zm7.79 0l-0.76 0c-1.08,0 -1.95,-0.87 -1.95,-1.95 0,-1.08 0.87,-1.95 1.95,-1.95l0.76 0c1.08,0 1.95,0.87 1.95,1.95 0,1.08 -0.87,1.95 -1.95,1.95zm-18.6 -79.31c-3.47,-3.47 -8.1,-5.38 -13.03,-5.38 -4.94,0 -9.56,1.91 -13.03,5.38l-34.08 34.08c-3.47,3.46 -5.38,8.09 -5.38,13.03 0,4.94 1.91,9.56 5.38,13.03 3.59,3.59 8.31,5.39 13.03,5.39 4.72,0 9.44,-1.8 13.03,-5.39l34.08 -34.08c3.47,-3.47 5.38,-8.09 5.38,-13.03 0,-4.93 -1.91,-9.56 -5.38,-13.03zm-37.31 56.92c-5.41,5.41 -14.21,5.41 -19.61,0 -2.61,-2.61 -4.04,-6.09 -4.04,-9.81 0,-3.72 1.44,-7.2 4.04,-9.81l15.01 -15.01 19.62 19.61 -15.02 15.02zm30.95 -31.28l-10.79 10.79c-0.38,0.38 -0.88,0.57 -1.38,0.57 -0.5,0 -1,-0.19 -1.38,-0.57 -0.76,-0.76 -0.76,-2 0,-2.76l10.79 -10.79c0.76,-0.76 2,-0.76 2.76,0 0.76,0.76 0.76,2 0,2.76zm5.5 -5.5l-0.54 0.54c-0.38,0.38 -0.88,0.57 -1.38,0.57 -0.5,0 -1,-0.19 -1.38,-0.57 -0.76,-0.76 -0.76,-2 0,-2.76l0.54 -0.54c0.76,-0.76 2,-0.76 2.76,0 0.76,0.76 0.76,2 0,2.76z"/>
   <g>
   </g>
   <g>
   </g>
   <g>
   </g>
   <g>
   </g>
   <g>
   </g>
   <g>
   </g>
   <g>
   </g>
   <g>
   </g>
   <g>
   </g>
   <g>
   </g>
   <g>
   </g>
   <g>
   </g>
   <g>
   </g>
   <g>
   </g>
   <g>
   </g>
  </g>
 </g>
</svg>
