<?xml version="1.0" encoding="UTF-8"?>
<!DOCTYPE svg PUBLIC "-//W3C//DTD SVG 1.1//EN" "http://www.w3.org/Graphics/SVG/1.1/DTD/svg11.dtd">
<!-- Creator: CorelDRAW 2017 -->
<svg xmlns="http://www.w3.org/2000/svg" xml:space="preserve" width="0.106665in" height="0.106665in" version="1.1" style="shape-rendering:geometricPrecision; text-rendering:geometricPrecision; image-rendering:optimizeQuality; fill-rule:evenodd; clip-rule:evenodd"
viewBox="0 0 106.67 106.67"
 xmlns:xlink="http://www.w3.org/1999/xlink">
 <defs>
  <style type="text/css">
   <![CDATA[
    .fil0 {fill:none}
    .fil1 {fill:#FE6700}
   ]]>
  </style>
 </defs>
 <g id="Layer_x0020_1">
  <metadata id="CorelCorpID_0Corel-Layer"/>
  <rect class="fil0" x="-0" y="-0" width="106.67" height="106.67"/>
  <g id="_202558550160">
   <g>
    <path class="fil1" d="M98.36 19.7l-90.05 0c-3.62,0 -6.57,2.95 -6.57,6.57l0 54.12c0,3.63 2.95,6.57 6.57,6.57l90.05 0c3.62,0 6.57,-2.95 6.57,-6.57l0 -54.12c0,-3.62 -2.95,-6.57 -6.57,-6.57zm2.19 60.69c0,1.21 -0.98,2.19 -2.19,2.19l-90.05 0c-1.2,0 -2.19,-0.98 -2.19,-2.19l0 -54.12c0,-1.21 0.98,-2.19 2.19,-2.19l90.05 0c1.2,0 2.19,0.98 2.19,2.19l0 54.12z"/>
   </g>
  </g>
  <g id="_202558549616">
   <g>
    <path class="fil1" d="M88.78 38.92l-23.52 0c-1.21,0 -2.19,0.98 -2.19,2.19 0,1.21 0.98,2.19 2.19,2.19l23.52 0c1.21,0 2.19,-0.98 2.19,-2.19 0,-1.21 -0.98,-2.19 -2.19,-2.19z"/>
   </g>
  </g>
  <g id="_202558558736">
   <g>
    <path class="fil1" d="M88.78 51.14l-23.52 0c-1.21,0 -2.19,0.98 -2.19,2.19 0,1.21 0.98,2.19 2.19,2.19l23.52 0c1.21,0 2.19,-0.98 2.19,-2.19 0,-1.21 -0.98,-2.19 -2.19,-2.19z"/>
   </g>
  </g>
  <path class="fil1" d="M44.47 39.03c0.58,-0.11 1.18,-0.17 1.79,-0.17 2.66,0 5.07,1.08 6.82,2.83 1.75,1.75 2.83,4.16 2.83,6.82l0 5.24 -2.91 0 -0.61 -3.7c-0.06,-0.35 -0.17,-0.7 -0.33,-1.01 -0.17,-0.31 -0.37,-0.61 -0.63,-0.86 -0.4,-0.4 -0.89,-0.69 -1.41,-0.85 -0.53,-0.16 -1.09,-0.2 -1.65,-0.1l-0.14 0.03c-0.8,0.2 -1.48,0.67 -1.97,1.3 -0.48,0.62 -0.77,1.41 -0.77,2.25 0,0.36 0.07,0.7 0.2,1.02 0.13,0.31 0.32,0.61 0.57,0.85 0.25,0.25 0.54,0.44 0.85,0.57 0.31,0.13 0.65,0.2 1,0.2l2.93 0 0 17.87c0,0.91 -0.37,1.73 -0.96,2.32 -0.59,0.59 -1.41,0.96 -2.32,0.96l-35.66 0 2.5 -7.98c0.51,-1.64 1.48,-3.07 2.75,-4.17 1.26,-1.09 2.83,-1.83 4.53,-2.1l3.14 -0.48c-0.37,-0.22 -0.71,-0.46 -1.02,-0.69 -0.44,-0.33 -0.83,-0.68 -1.17,-1.01 -0.6,-0.59 -1.09,-1.29 -1.45,-2.05 -0.36,-0.76 -0.59,-1.58 -0.68,-2.43 -0.87,-0.15 -1.64,-0.58 -2.22,-1.19 -0.67,-0.71 -1.08,-1.66 -1.08,-2.71l0 -4.36 -0.69 0c-0.77,0 -1.46,-0.31 -1.97,-0.81 -0.5,-0.5 -0.82,-1.2 -0.82,-1.97 0,-0.63 0.22,-1.22 0.58,-1.7 0.36,-0.47 0.88,-0.83 1.49,-0.99 0.37,-0.1 0.79,-0.2 1.27,-0.32 0.31,-0.07 0.67,-0.15 1.07,-0.24 0.81,-2.58 2.39,-4.77 4.46,-6.33 2.14,-1.61 4.78,-2.54 7.61,-2.54 2.83,0 5.48,0.94 7.61,2.55 2.07,1.56 3.65,3.75 4.46,6.33l0.41 0.09c0.51,-0.2 1.04,-0.35 1.58,-0.46zm-10.59 32.09l-1.89 0 0 -2.4 2.4 0 0 2.4 -0.5 0zm0 -3.47l-1.89 0 0 -2.4 2.4 0 0 2.4 -0.5 0zm0.69 -16.98l1.89 0 0 0.5c0,1.67 -0.68,3.19 -1.78,4.28l-0 0c-1.1,1.1 -2.61,1.78 -4.28,1.78 -1.67,0 -3.19,-0.68 -4.28,-1.78l0 0c-1.1,-1.1 -1.78,-2.61 -1.78,-4.28l0 -0.5 2.39 0 0 0.5c0,1.01 0.41,1.93 1.07,2.59 0.66,0.67 1.58,1.07 2.59,1.07 1.01,0 1.93,-0.41 2.59,-1.07 0.67,-0.67 1.07,-1.58 1.07,-2.59l0 -0.5 0.5 0zm-18.17 -8.26c-0.05,0.06 -0.08,0.15 -0.08,0.24 0,0.11 0.04,0.2 0.11,0.28 0.07,0.07 0.17,0.11 0.28,0.11l21.74 0c0.29,-0.43 0.61,-0.83 0.96,-1.2 0.16,-0.17 0.32,-0.33 0.49,-0.48l-0.65 -0.11 -0.5 -0.08 0.37 -2.36 0.61 0.09c-0.77,-1.67 -1.96,-3.07 -3.42,-4.11 -1.68,-1.18 -3.73,-1.86 -5.91,-1.86 -2.18,0 -4.22,0.68 -5.9,1.86 -1.46,1.03 -2.66,2.44 -3.42,4.11 1.11,-0.18 2.35,-0.34 3.7,-0.46 1.72,-0.16 3.61,-0.26 5.62,-0.26 1.29,0 2.59,0.04 3.91,0.13 1.3,0.09 2.6,0.21 3.89,0.38l0.5 0.06 -0.31 2.37 -0.5 -0.07c-1.23,-0.16 -2.48,-0.28 -3.73,-0.36 -1.24,-0.08 -2.49,-0.12 -3.75,-0.12 -2.65,0 -5.04,0.18 -7.11,0.43 -2.98,0.37 -5.28,0.89 -6.68,1.27 -0.09,0.02 -0.16,0.07 -0.21,0.14zm22.28 25.02l1.87 -0.23 0.63 5.01 3.43 0 -0.01 -0.05c-0.07,-0.27 -0.12,-0.55 -0.12,-0.84l0 -2.18 -0.56 -1.8c-0.37,-1.2 -1.09,-2.26 -2.02,-3.06 -0.93,-0.8 -2.08,-1.35 -3.33,-1.54l-3.26 -0.5c-0.33,0.57 -0.84,1.19 -1.57,1.68 -0.57,0.39 -1.28,0.7 -2.13,0.85l0 7.45 7.17 0 -0.59 -4.71 0.5 -0.06zm-10.22 -6.21c-0.31,-0.06 -0.61,-0.13 -0.89,-0.21 0.11,0.19 0.26,0.43 0.5,0.66 0.45,0.43 1.17,0.81 2.33,0.81 1.15,0 1.88,-0.39 2.33,-0.81 0.24,-0.23 0.4,-0.46 0.5,-0.66 -0.29,0.08 -0.58,0.15 -0.89,0.21 -0.61,0.12 -1.26,0.19 -1.94,0.19 -0.68,0 -1.33,-0.07 -1.94,-0.19zm14.21 0.63c0.67,0.46 1.28,1.02 1.81,1.64l0 -5.11c-1.02,-0.29 -1.96,-0.72 -2.82,-1.27 -0.72,-0.46 -1.38,-1.02 -1.96,-1.64 -0.13,0.36 -0.29,0.71 -0.47,1.05 -0.33,0.61 -0.75,1.17 -1.25,1.66 -0.34,0.33 -0.73,0.68 -1.17,1.01 -0.31,0.24 -0.65,0.47 -1.02,0.69l3.13 0.48c1.37,0.21 2.65,0.73 3.75,1.5zm-22.5 -15.85l0 -0.57 -0.39 0 0 0.72c0.13,-0.06 0.25,-0.1 0.39,-0.15zm-0.1 2.89c-0.18,0.26 -0.29,0.57 -0.29,0.9 0,0.39 0.14,0.74 0.37,1.01 0.08,0.1 0.17,0.18 0.27,0.26l-0.23 -2.32c-0.04,0.05 -0.08,0.1 -0.12,0.15zm2.49 -0.5l0.51 5.05c0.06,0.59 0.22,1.15 0.46,1.66 0.24,0.51 0.57,0.98 0.97,1.37 0.59,0.58 1.38,1.22 2.37,1.71 0.98,0.48 2.16,0.83 3.53,0.83 1.19,0 2.22,-0.26 3.11,-0.64 1.18,-0.51 2.11,-1.24 2.78,-1.9 0.4,-0.39 0.73,-0.86 0.97,-1.37 0.24,-0.52 0.4,-1.08 0.46,-1.67l0.08 -0.79c-0.3,-0.65 -0.54,-1.35 -0.7,-2.07 -0.17,-0.74 -0.26,-1.52 -0.26,-2.3 0,-0.61 0.06,-1.22 0.18,-1.8 0.07,-0.36 0.16,-0.7 0.27,-1.05l-14.72 0 0 2.96zm-3.67 15.88c-0.93,0.8 -1.65,1.86 -2.02,3.06l-1.52 4.87 4.26 0 0.63 -5 2.38 0.3 -0.59 4.71 7.17 0 0 -7.45c-0.85,-0.15 -1.56,-0.46 -2.13,-0.85 -0.72,-0.49 -1.24,-1.11 -1.57,-1.69l-3.26 0.5c-1.25,0.19 -2.4,0.74 -3.33,1.54zm28.23 7.68c0.16,0.16 0.38,0.26 0.63,0.26 0.24,0 0.47,-0.1 0.63,-0.26l0 -0c0.16,-0.16 0.26,-0.38 0.26,-0.63l0 -6.44 -1.77 0 0 6.44c0,0.25 0.1,0.47 0.26,0.63l0 0zm5.97 -25.45l0.16 0.16c-0.33,-1.26 -0.99,-2.38 -1.89,-3.27 -1.32,-1.32 -3.13,-2.13 -5.13,-2.13 -1.93,0 -3.69,0.79 -4.95,2.06 -1.27,1.27 -2.06,3.02 -2.06,4.96 0,1.96 0.7,3.78 1.88,5.19 1.19,1.42 2.85,2.43 4.78,2.78l0.98 0.18 0 6.05 1.77 0 0 -6.63 -0.54 0c-0.67,0 -1.32,-0.13 -1.92,-0.38 -0.6,-0.25 -1.15,-0.62 -1.63,-1.09 -0.47,-0.47 -0.84,-1.03 -1.09,-1.63 -0.25,-0.61 -0.38,-1.26 -0.38,-1.93 0,-1.39 0.47,-2.69 1.28,-3.73 0.81,-1.04 1.96,-1.81 3.32,-2.15 0.06,-0.01 0.2,-0.04 0.24,-0.04 0.94,-0.17 1.9,-0.11 2.79,0.17 0.89,0.28 1.71,0.77 2.39,1.44z"/>
  <g id="_202558559344">
   <g>
    <path class="fil1" d="M88.78 64.16l-23.52 0c-1.21,0 -2.19,0.98 -2.19,2.19 0,1.21 0.98,2.19 2.19,2.19l23.52 0c1.21,0 2.19,-0.98 2.19,-2.19 0,-1.21 -0.98,-2.19 -2.19,-2.19z"/>
   </g>
  </g>
 </g>
</svg>
