<?xml version="1.0" encoding="UTF-8"?>
<!DOCTYPE svg PUBLIC "-//W3C//DTD SVG 1.1//EN" "http://www.w3.org/Graphics/SVG/1.1/DTD/svg11.dtd">
<!-- Creator: CorelDRAW X7 -->
<svg xmlns="http://www.w3.org/2000/svg" xml:space="preserve" width="512px" height="512px" version="1.1" style="shape-rendering:geometricPrecision; text-rendering:geometricPrecision; image-rendering:optimizeQuality; fill-rule:evenodd; clip-rule:evenodd"
viewBox="0 0 512 512"
 xmlns:xlink="http://www.w3.org/1999/xlink"
 enable-background="new 0 0 650 900">
 <defs>
  <style type="text/css">
   <![CDATA[
    .fil0 {fill:none}
    .fil1 {fill:#FE6700}
   ]]>
  </style>
 </defs>
 <g id="Layer_x0020_1">
  <metadata id="CorelCorpID_0Corel-Layer"/>
  <rect class="fil0" width="512" height="512"/>
  <path class="fil1" d="M365 75l36 0c16,0 29,12 29,29l0 370c0,16 -13,29 -29,29l-290 0c-16,0 -29,-13 -29,-29l0 -370c0,-16 13,-29 29,-29l36 0 0 -8c0,-16 13,-29 29,-29l34 0c1,-3 3,-5 5,-8 10,-13 23,-21 41,-21 18,0 31,8 41,21 2,3 4,5 5,8l34 0c16,0 29,13 29,29l0 8zm-218 29c-22,0 -36,0 -36,0 0,0 0,370 0,370 0,0 290,0 290,0 0,0 0,-370 0,-370 0,0 -14,0 -36,0l0 7c0,16 -13,29 -29,29l-160 0c-16,0 -29,-13 -29,-29l0 -7 0 0zm189 7l0 -44 -44 0c-6,0 -12,-4 -14,-11 0,-2 -2,-5 -5,-9 -4,-6 -9,-9 -17,-9 -8,0 -13,3 -17,9 -3,4 -5,7 -5,9 -2,7 -8,11 -14,11l-44 0 0 44 160 0zm14 87c8,0 15,6 15,14 0,8 -7,15 -15,15l-94 0c-8,0 -15,-7 -15,-15 0,-8 7,-14 15,-14l94 0zm0 87c8,0 15,7 15,15 0,8 -7,14 -15,14l-94 0c-8,0 -14,-6 -14,-14 0,-8 6,-15 14,-15l94 0zm-178 -83l4 4 19 -18c6,-6 15,-6 20,0 6,5 6,15 0,20l-29 29c-5,6 -14,6 -20,0l-15 -14c-5,-6 -5,-15 0,-21 6,-5 15,-5 21,0zm0 87l4 5 19 -19c6,-6 15,-6 20,0 6,5 6,15 0,20l-29 29c-5,6 -14,6 -20,0l-15 -14c-5,-6 -5,-15 0,-21 6,-5 15,-5 21,0zm178 83c8,0 15,7 15,15 0,8 -7,14 -15,14l-94 0c-8,0 -14,-6 -14,-14 0,-8 6,-15 14,-15l94 0zm-178 4l4 5 19 -19c6,-6 15,-6 20,0 6,6 6,15 0,20l-29 29c-5,6 -14,6 -20,0l-15 -14c-5,-6 -5,-15 0,-21 6,-5 15,-5 21,0z"/>
 </g>
</svg>
