<?xml version="1.0" encoding="UTF-8"?>
<!DOCTYPE svg PUBLIC "-//W3C//DTD SVG 1.1//EN" "http://www.w3.org/Graphics/SVG/1.1/DTD/svg11.dtd">
<!-- Creator: CorelDRAW X7 -->
<svg xmlns="http://www.w3.org/2000/svg" xml:space="preserve" width="512px" height="512px" version="1.1" style="shape-rendering:geometricPrecision; text-rendering:geometricPrecision; image-rendering:optimizeQuality; fill-rule:evenodd; clip-rule:evenodd"
viewBox="0 0 512 512"
 xmlns:xlink="http://www.w3.org/1999/xlink"
 enable-background="new 0 0 100 100">
 <defs>
  <style type="text/css">
   <![CDATA[
    .fil0 {fill:none}
    .fil1 {fill:#FE6700}
   ]]>
  </style>
 </defs>
 <g id="Layer_x0020_1">
  <metadata id="CorelCorpID_0Corel-Layer"/>
  <rect class="fil0" width="512" height="512"/>
  <g id="_651530924608">
   <path class="fil1" d="M275 33c-123,0 -223,100 -223,223l-38 0 65 81 64 -81 -48 0c0,-99 81,-180 180,-180 99,0 180,81 180,180 0,99 -81,180 -180,180 -48,0 -94,-19 -128,-53l-30 30c42,42 98,66 158,66 123,0 223,-100 223,-223 0,-123 -100,-223 -223,-223zm-21 105l0 128 73 59 27 -34 -58 -45 0 -108 -42 0z"/>
  </g>
 </g>
</svg>
