<?xml version="1.0" encoding="UTF-8"?>
<!DOCTYPE svg PUBLIC "-//W3C//DTD SVG 1.1//EN" "http://www.w3.org/Graphics/SVG/1.1/DTD/svg11.dtd">
<!-- Creator: CorelDRAW X7 -->
<svg xmlns="http://www.w3.org/2000/svg" xml:space="preserve" width="512px" height="512px" version="1.1" style="shape-rendering:geometricPrecision; text-rendering:geometricPrecision; image-rendering:optimizeQuality; fill-rule:evenodd; clip-rule:evenodd"
viewBox="0 0 512 512"
 xmlns:xlink="http://www.w3.org/1999/xlink"
 enable-background="new 0 0 20 20">
 <defs>
  <style type="text/css">
   <![CDATA[
    .fil0 {fill:none}
    .fil1 {fill:#FE6700}
    .fil3 {fill:white}
    .fil2 {fill:white;fill-rule:nonzero}
   ]]>
  </style>
 </defs>
 <g id="Layer_x0020_1">
  <metadata id="CorelCorpID_0Corel-Layer"/>
  <rect class="fil0" width="512" height="512"/>
  <g id="_434151858768">
   <path class="fil1" d="M53 409l0 -265c0,-7 5,-12 11,-12l35 0c0,13 -1,21 6,28 2,3 7,5 12,5l115 0c5,0 9,-2 12,-5 7,-6 5,-16 5,-28l35 0c7,0 11,5 11,12l0 265c0,6 -4,11 -8,11l-225 0c-2,0 -5,-2 -6,-4 -2,-2 -3,-4 -3,-7zm105 -350c0,-16 18,-24 28,-13 10,11 3,31 -12,31 -9,0 -16,-9 -16,-18zm-36 0l-5 0c-10,0 -18,7 -18,17l0 13 -34 0c-29,0 -52,24 -52,55l0 266c0,21 13,39 28,47 4,3 13,6 20,6l227 0c24,0 47,-25 47,-53l0 -266c0,-15 -4,-25 -11,-35 -2,-2 -2,-3 -3,-4 -2,-2 -2,-2 -4,-3 -1,-1 -1,-2 -3,-3 -9,-6 -19,-10 -30,-10l-35 0 0 -14c0,-8 -8,-16 -16,-16l-6 0c0,-45 -54,-75 -89,-39 -8,8 -16,23 -16,39z"/>
   <path class="fil1" d="M163 217l0 4c0,8 7,14 14,14l80 0c4,0 8,-2 10,-4 9,-9 4,-27 -12,-27l-76 0c-9,0 -16,7 -16,13z"/>
   <path class="fil1" d="M163 288l0 4c0,8 6,14 14,14l80 0c4,0 8,-1 10,-4 8,-8 5,-27 -13,-27l-74 0c-5,0 -8,1 -11,3 -3,2 -6,6 -6,10z"/>
   <path class="fil1" d="M163 360c0,6 -1,8 3,13 2,2 6,5 9,5l82 0c17,0 23,-32 -5,-32l-70 0c-10,0 -19,5 -19,14z"/>
   <path class="fil1" d="M104 353c-5,-4 -4,-6 -13,-6 -8,0 -14,7 -14,16 0,9 6,13 10,18 6,6 9,11 18,11 8,0 16,-11 23,-19l15 -16c7,-12 -2,-25 -12,-25 -11,0 -19,16 -27,21z"/>
   <path class="fil1" d="M104 282c-4,-3 -7,-8 -16,-5 -7,2 -11,8 -11,16 0,8 7,13 11,17 4,5 8,11 16,12 8,0 12,-6 16,-11 5,-5 24,-23 25,-30 2,-8 -2,-15 -8,-18 -4,-2 -7,-2 -10,-1 -7,2 -17,16 -23,20z"/>
   <path class="fil1" d="M104 211c-5,-4 -7,-8 -16,-5 -9,2 -11,10 -11,18 0,5 8,12 11,15 10,11 17,17 30,4l25 -28c7,-11 0,-25 -13,-25 -10,0 -19,16 -26,21z"/>
  </g>
  <circle class="fil1" cx="373" cy="375" r="127"/>
  <path class="fil2" d="M373 240c37,0 71,15 95,40 25,24 40,58 40,95 0,37 -15,71 -40,95 -24,25 -58,40 -95,40 -37,0 -71,-15 -95,-40 -25,-24 -40,-58 -40,-95 0,-37 15,-71 40,-95 24,-25 58,-40 95,-40zm84 51c-22,-21 -51,-35 -84,-35 -33,0 -63,14 -84,35 -22,22 -35,51 -35,84 0,33 13,63 35,84 21,22 51,35 84,35 33,0 62,-13 84,-35 21,-21 35,-51 35,-84 0,-33 -14,-62 -35,-84z"/>
  <g id="_434151863120">
   <g>
    <path class="fil3" d="M465 350l-58 -40c-3,-2 -6,0 -6,3l0 25 -118 0c-2,0 -4,1 -4,3l0 12c0,1 2,3 4,3l180 0c4,0 5,-4 2,-6z"/>
    <path class="fil3" d="M345 437l0 -24 118 0c2,0 4,-2 4,-4l0 -11c0,-2 -2,-4 -4,-4l-180 0c-4,0 -5,5 -2,6l58 40c3,2 6,0 6,-3z"/>
   </g>
  </g>
 </g>
</svg>
