<?xml version="1.0" encoding="utf-8"?>
<!-- Generator: Adobe Illustrator 13.0.0, SVG Export Plug-In . SVG Version: 6.00 Build 14948)  -->
<!DOCTYPE svg PUBLIC "-//W3C//DTD SVG 1.1//EN" "http://www.w3.org/Graphics/SVG/1.1/DTD/svg11.dtd">
<svg version="1.1" id="Capa_1" xmlns="http://www.w3.org/2000/svg" xmlns:xlink="http://www.w3.org/1999/xlink" x="0px" y="0px"
	 width="512px" height="512px" viewBox="0 0 512 512" enable-background="new 0 0 512 512" xml:space="preserve">
<g>
	<path fill="#FF6600" d="M76.3,21.761v467.479h358.4v-385l-82.479-82.479H76.3z M356.787,48.36l51.313,51.313h-51.313V48.36z
		 M91.883,473.657V37.343h249.322v77.914h77.913v358.401H91.883z"/>
	<path fill="#FF6600" d="M123.048,68.509h15.583v15.582h-15.583V68.509z"/>
	<path fill="#FF6600" d="M154.213,68.509h155.826v15.582H154.213V68.509z"/>
	<path fill="#FF6600" d="M123.048,99.674h186.991v15.583H123.048V99.674z"/>
	<path fill="#FF6600" d="M123.048,146.421v296.07h264.905v-296.07H123.048z M138.631,162.004h54.539v31.165h-54.539V162.004z
		 M138.631,208.752h54.539v171.409h-54.539V208.752z M138.631,426.909v-31.166h54.539v31.166H138.631z M372.37,426.909H208.752
		v-31.166H372.37V426.909z M372.37,380.161H208.752V208.752H372.37V380.161z M372.37,162.004v31.165H208.752v-31.165H372.37z"/>
	<path fill="#FF6600" d="M224.335,232.126h15.582v15.583h-15.582V232.126z"/>
	<path fill="#FF6600" d="M255.5,232.126h93.496v15.583H255.5V232.126z"/>
	<path fill="#FF6600" d="M224.335,263.291h124.661v15.583H224.335V263.291z"/>
	<path fill="#FF6600" d="M224.335,294.456h124.661v15.583H224.335V294.456z"/>
	<path fill="#FF6600" d="M224.335,325.622h124.661v15.583H224.335V325.622z"/>
</g>
</svg>
