<?xml version="1.0" encoding="UTF-8"?>
<!DOCTYPE svg PUBLIC "-//W3C//DTD SVG 1.1//EN" "http://www.w3.org/Graphics/SVG/1.1/DTD/svg11.dtd">
<!-- Creator: CorelDRAW X7 -->
<svg xmlns="http://www.w3.org/2000/svg" xml:space="preserve" width="512px" height="512px" version="1.1" style="shape-rendering:geometricPrecision; text-rendering:geometricPrecision; image-rendering:optimizeQuality; fill-rule:evenodd; clip-rule:evenodd"
viewBox="0 0 512 512"
 xmlns:xlink="http://www.w3.org/1999/xlink">
 <defs>
  <style type="text/css">
   <![CDATA[
    .fil0 {fill:none}
    .fil1 {fill:#FE6700}
   ]]>
  </style>
 </defs>
 <g id="Layer_x0020_1">
  <metadata id="CorelCorpID_0Corel-Layer"/>
  <rect class="fil0" width="512" height="512"/>
 </g>
 <g id="Layer_x0020_1_0">
  <metadata id="CorelCorpID_1Corel-Layer"/>
  <path class="fil1" d="M214 286c-9,-14 -19,-26 -30,-35 -12,-9 -25,-14 -38,-14 -13,0 -26,5 -38,14 -11,9 -21,21 -30,35 -17,29 -27,65 -27,98 0,16 3,31 8,44 4,13 11,23 20,32 17,16 40,24 67,24 27,0 50,-8 67,-24 9,-9 16,-19 20,-32 5,-13 8,-28 8,-44 0,-33 -10,-69 -27,-98zm145 130c-3,6 -6,9 -7,17l-6 -2c1,-3 3,-5 5,-8 2,-3 4,-6 8,-7zm2 -2l-2 2 2 -2zm0 0l0 -1 0 1zm0 -1l0 0zm3 -7l0 0zm0 0c3,-6 2,-10 7,-13 1,3 1,6 -3,10 -3,3 0,2 -4,3zm-178 -318c17,0 24,5 31,15 3,4 9,9 11,12 3,4 2,14 0,19 -1,5 -6,8 -12,11 -10,6 -3,3 -8,11 -5,8 -4,8 -7,17 -2,8 -5,11 -5,20l6 -6c-1,15 -3,25 -3,44 8,-2 2,-1 5,0 0,8 1,17 3,23 3,7 7,10 10,17 6,13 11,22 20,34 5,7 10,10 16,15l21 28c4,5 10,8 12,15l3 -9c5,4 6,5 10,11 2,3 4,5 7,4l3 -1c2,7 8,10 14,13 2,2 6,8 9,8 4,0 0,-2 4,-1 4,1 8,7 10,11 -4,5 -5,3 -8,8l-1 2c-6,8 -5,3 -8,15 -12,1 -16,1 -28,-4 -10,-5 -14,-5 -22,6 5,-1 9,-3 15,-3 0,6 -1,5 2,10l13 1c-9,0 -16,3 -22,3 -11,-1 -13,-14 -31,-4 -5,3 -7,4 -9,10 5,-1 15,-7 18,-7 10,3 -2,17 9,17 14,0 12,-10 32,0 -1,4 -2,7 -4,10 -8,9 -18,-1 -18,21l3 0c3,-12 9,-13 24,-13 4,-7 5,-11 13,-17 13,-9 16,-12 28,-6 4,1 7,1 10,3 3,-4 2,-2 4,-7l18 0 0 -10c-6,-1 -9,-2 -13,-5 2,-5 3,-10 7,-15 5,-5 9,-8 13,-13 -4,-15 -8,-4 -2,-29l40 -56c6,-12 20,-27 23,-38 -8,2 -2,1 -5,0 2,-6 7,-16 7,-21l0 -2c0,0 0,0 0,0 1,-7 3,-8 7,-14 -37,0 -31,-23 -48,-36 -9,-8 -44,-25 -51,-34 7,1 6,2 5,-4 -1,-4 -7,-7 -8,-10 -2,-5 -1,1 0,-2 0,-1 1,-2 2,-2 6,-8 -2,7 1,-2 -5,-3 -2,0 -4,-5 0,-1 0,-1 0,-1 0,-1 -1,-1 -1,-1 0,-1 0,-1 0,-1l-5 -15c-1,-7 0,-3 0,-10 8,2 3,1 5,0l0 -9c0,0 1,0 1,0l2 0c6,-3 3,-16 0,-21 -3,-8 -1,-11 -7,-18 -4,-6 -1,-7 -10,-16 -8,-8 -17,-15 -27,-20 -6,-4 -32,-6 -40,-6 -3,0 -11,4 -14,5 -12,3 -8,-3 -26,9 -10,7 -10,16 -17,21 -13,8 -21,6 -33,25z"/>
 </g>
</svg>
