<?xml version="1.0" encoding="UTF-8"?>
<!DOCTYPE svg PUBLIC "-//W3C//DTD SVG 1.1//EN" "http://www.w3.org/Graphics/SVG/1.1/DTD/svg11.dtd">
<!-- Creator: CorelDRAW 2017 -->
<svg xmlns="http://www.w3.org/2000/svg" xml:space="preserve" width="1.70666in" height="1.70666in" version="1.1" style="shape-rendering:geometricPrecision; text-rendering:geometricPrecision; image-rendering:optimizeQuality; fill-rule:evenodd; clip-rule:evenodd"
viewBox="0 0 1707 1707"
 xmlns:xlink="http://www.w3.org/1999/xlink">
 <defs>
  <style type="text/css">
   <![CDATA[
    .fil0 {fill:none}
    .fil6 {fill:#FEFEFE}
    .fil2 {fill:#E6E7E8}
    .fil1 {fill:#CACCCE}
    .fil3 {fill:#BDBFC1}
    .fil4 {fill:#A9ABAE}
    .fil5 {fill:#848688}
   ]]>
  </style>
 </defs>
 <g id="Layer_x0020_1">
  <metadata id="CorelCorpID_0Corel-Layer"/>
  <rect class="fil0" width="1707" height="1707"/>
  <path class="fil1" d="M1447 1386c0,0 -185,36 -581,36l-9 0c-33,0 -65,0 -96,-1l0 0c-34,-1 -67,-1 -97,-2 -269,-9 -396,-33 -396,-33 179,-158 207,-574 211,-718 -2,-16 -3,-33 -3,-50 0,-140 76,-262 188,-329 30,-18 62,-31 97,-40 31,-8 63,-12 97,-12 3,0 6,0 9,0 207,5 373,174 373,381 0,17 -1,34 -3,50 4,144 32,560 211,718z"/>
  <path class="fil2" d="M1253 1386c0,0 -157,30 -492,35l0 0c-34,-1 -67,-1 -97,-2 -90,-3 -164,-8 -223,-13 -117,-10 -173,-21 -173,-21 179,-158 207,-574 211,-718 0,-2 -1,-5 -1,-7 -2,-14 -2,-29 -2,-43 0,-140 76,-262 188,-329 30,-18 62,-31 97,-40 164,43 285,192 285,369 0,17 -1,34 -3,50 4,144 32,560 211,718z"/>
  <path class="fil3" d="M1051 1422c0,103 -80,187 -181,193 -4,0 -8,0 -12,0 -107,0 -193,-87 -193,-193 0,-1 0,-2 0,-3 6,0 12,0 17,1 52,2 110,2 173,3l6 0c3,0 6,0 9,0 59,0 114,-1 163,-3 6,0 12,0 17,-1 0,1 0,2 0,3z"/>
  <path class="fil4" d="M1033 1420c-29,63 -91,108 -163,112 -4,0 -8,0 -12,0 -78,0 -145,-46 -176,-113 52,2 110,2 173,3l6 0c3,0 6,0 9,0 59,0 114,-1 163,-3z"/>
  <path class="fil5" d="M1259 669c0,-2 0,-3 1,-5 0,-2 0,-4 1,-6 0,-2 0,-5 1,-7 0,-2 0,-4 0,-6 0,-3 0,-5 0,-8 0,-2 0,-4 0,-5 0,-5 0,-9 0,-13 0,-197 -141,-361 -328,-397 12,-16 19,-36 19,-57 0,-53 -43,-96 -96,-96 -53,0 -96,43 -96,96 0,21 7,41 19,57 -186,36 -328,200 -328,397 0,4 0,8 0,12 0,1 0,2 0,3 0,3 0,7 0,10 0,1 0,1 0,2 1,8 1,16 2,25 -4,128 -30,546 -203,700l-35 31 46 9c6,1 127,24 378,33 10,110 103,197 215,197 113,0 206,-87 215,-197 251,-9 372,-32 378,-33l46 -9 -35 -31c-174,-153 -199,-572 -203,-700zm-451 -505c0,-27 22,-50 50,-50 27,0 50,22 50,50 0,27 -22,50 -50,50 -27,0 -50,-22 -50,-50zm50 1429c-87,0 -159,-65 -169,-150 38,1 79,2 123,2 1,0 1,0 2,0 6,0 12,0 18,0 1,0 3,0 4,0 5,0 11,0 16,0 1,0 2,0 4,0l0 0 6 0 0 0c1,0 2,0 3,0 5,0 11,0 16,0 1,0 3,0 4,0 6,0 12,0 18,0 0,0 1,0 1,0 44,0 85,-1 123,-2 -10,84 -82,150 -169,150zm105 -194c-1,0 -2,0 -4,0 -6,0 -12,0 -18,0 -2,0 -5,0 -7,0 -5,0 -11,0 -16,0 -3,0 -6,0 -9,0 -5,0 -11,0 -16,0 -3,0 -6,0 -9,0 -8,0 -17,0 -25,0 0,0 0,0 0,0 -9,0 -17,0 -26,0 -3,0 -6,0 -9,0 -6,0 -11,0 -16,0 -3,0 -6,0 -9,0 -5,0 -11,0 -16,0 -2,0 -5,0 -7,0 -6,0 -12,0 -18,0 -1,0 -2,0 -3,0 -226,-4 -370,-19 -436,-28 120,-139 164,-393 179,-572 18,37 43,72 72,102l33 -32c-54,-56 -88,-127 -98,-203 -1,-7 -2,-15 -2,-23 0,-1 0,-1 0,-2 0,-3 0,-6 0,-9 0,-1 0,-2 0,-3 0,-4 0,-7 0,-11 0,-198 161,-358 358,-358 198,0 358,161 358,358 0,4 0,8 0,12 0,2 0,5 0,7 0,2 0,3 0,5 0,3 0,6 -1,9 0,1 0,2 0,3 0,3 -1,7 -1,10 0,1 0,2 0,2l0 1 0 0c-16,116 -87,218 -195,272l21 41c66,-33 122,-84 161,-146 7,-12 14,-24 20,-36 15,179 58,433 179,573 -67,9 -211,24 -436,28z"/>
  <path class="fil5" d="M465 1271l-42 -19c-10,22 -21,43 -32,63l-18 31 36 3c47,4 98,8 151,11l3 -46c-40,-2 -78,-5 -115,-8 6,-12 12,-23 17,-36z"/>
  <path class="fil5" d="M560 481l42 19c46,-100 146,-164 256,-164 24,0 48,3 71,9l12 -45c-27,-7 -54,-10 -82,-10 -127,0 -244,75 -298,191z"/>
  <path class="fil5" d="M1226 1043c-3,-14 -6,-28 -9,-42l-45 9c3,15 6,29 9,44l45 -10z"/>
  <path class="fil5" d="M1267 1307c-38,3 -78,6 -119,8l2 46c55,-3 108,-7 156,-11l36 -3 -18 -31c-32,-55 -59,-123 -81,-202l-44 12c19,69 42,130 68,182z"/>
  <rect class="fil6" transform="matrix(2.35515 -2.2512 17.1766 17.9698 210.204 254.254)" width="11" height="73"/>
  <rect class="fil5" transform="matrix(2.35515 -2.2512 17.1766 17.9698 203.962 281.521)" width="11" height="73"/>
 </g>
</svg>
