<?xml version="1.0" encoding="utf-8"?>
<!-- Generator: Adobe Illustrator 22.1.0, SVG Export Plug-In . SVG Version: 6.00 Build 0)  -->
<svg version="1.1"
	 id="Layer_1" xmlns:cc="http://creativecommons.org/ns#" xmlns:dc="http://purl.org/dc/elements/1.1/" xmlns:inkscape="http://www.inkscape.org/namespaces/inkscape" xmlns:rdf="http://www.w3.org/1999/02/22-rdf-syntax-ns#" xmlns:sodipodi="http://sodipodi.sourceforge.net/DTD/sodipodi-0.dtd" xmlns:svg="http://www.w3.org/2000/svg"
	 xmlns="http://www.w3.org/2000/svg" xmlns:xlink="http://www.w3.org/1999/xlink" x="0px" y="0px" viewBox="0 0 512 512"
	 style="enable-background:new 0 0 512 512;" xml:space="preserve">
<style type="text/css">
	.st0{fill:none;}
	.st1{fill:#FE6700;}
	.st2{fill:#FF6600;stroke:#FFFFFF;stroke-miterlimit:10;}
	.st3{fill:#FFFFFF;}
</style>
<g id="Layer_x0020_1">
	<rect y="30" class="st0" width="512" height="512"/>
	<g id="noun_757321_cc.svg">
		<g>
			<path class="st1" d="M32,72c-9,0-16,7-16,16s7,16,16,16h51l55,260c2,10,8,18,17,18h267c8,0,16-7,16-16c0-8-8-16-16-16H168l-7-32
				h282c7,0,14-5,16-12l37-161c2-9-6-19-15-19H120l-9-41c-1-7-8-13-15-13H32z M127,158h97v48h-87L127,158z M256,158h75v48h-75V158z
				 M363,158h97l-11,48h-86V158z M144,238h80v48h-70L144,238z M256,238h75v48h-75V238z M363,238h79l-12,48h-67V238z M213,393
				c-29,0-53,24-53,53c0,30,24,54,53,54c30,0,54-24,54-54C267,417,243,393,213,393z M363,393c-29,0-53,24-53,53c0,30,24,54,53,54
				s53-24,53-54C416,417,392,393,363,393z M213,425c12,0,22,9,22,21s-10,22-22,22s-21-10-21-22S201,425,213,425z M363,425
				c12,0,21,9,21,21s-9,22-21,22s-21-10-21-22S351,425,363,425z"/>
		</g>
	</g>
</g>
<g>
	<circle class="st2" cx="391" cy="123.8" r="111.7"/>
	<path class="st3" d="M442.2,52.3c3.9-0.8,8.2,0,12.1,2.3l0,0.1l0-0.1c4,2.4,6.4,6,7.2,10c0.8,3.9,0,8.2-2.3,12.1l-79.5,119.2
		c-0.9,2.4-2.6,4.4-4.8,5.8c-2.2,1.4-5,2.2-8.1,2.2c-2.3,0-4.3-0.4-6.2-1.2c-1.8-0.8-3.4-2-4.9-3.5l-53-53
		c-3.2-3.2-4.7-7.1-4.7-11.1c0-4,1.6-8,4.7-11.1c3.2-3.2,7.1-4.7,11.1-4.7c4,0,8,1.6,11.1,4.7l38.9,38.9l68.5-103.4
		C434.7,55.5,438.2,53.1,442.2,52.3L442.2,52.3z"/>
</g>
</svg>
