<?xml version="1.0" encoding="UTF-8"?>
<!DOCTYPE svg PUBLIC "-//W3C//DTD SVG 1.1//EN" "http://www.w3.org/Graphics/SVG/1.1/DTD/svg11.dtd">
<!-- Creator: CorelDRAW 2017 -->
<svg xmlns="http://www.w3.org/2000/svg" xml:space="preserve" width="0.0799961in" height="0.0799961in" version="1.1" style="shape-rendering:geometricPrecision; text-rendering:geometricPrecision; image-rendering:optimizeQuality; fill-rule:evenodd; clip-rule:evenodd"
viewBox="0 0 80 80"
 xmlns:xlink="http://www.w3.org/1999/xlink">
 <defs>
  <style type="text/css">
   <![CDATA[
    .fil0 {fill:none}
    .fil1 {fill:white}
   ]]>
  </style>
 </defs>
 <g id="Layer_x0020_1">
  <metadata id="CorelCorpID_0Corel-Layer"/>
  <rect class="fil0" x="-0" y="-0" width="80" height="80"/>
  <rect class="fil0" x="-0" y="-0" width="80" height="80"/>
  <circle class="fil1" cx="40" cy="40" r="2.34"/>
  <g id="_127845208192">
   <g>
    <g>
     <path class="fil1" d="M53.85 26.51c-0.35,-0.46 -1.02,-0.55 -1.48,-0.19 -0.45,0.35 -0.91,0.72 -1.35,1.1 -0.44,0.38 -0.5,1.05 -0.11,1.5 0.21,0.24 0.51,0.37 0.81,0.37 0.24,0 0.49,-0.09 0.69,-0.26 0.41,-0.36 0.84,-0.7 1.26,-1.03 0.46,-0.36 0.55,-1.02 0.19,-1.49z"/>
    </g>
   </g>
   <g>
    <g>
     <path class="fil1" d="M75.79 21.45c-0.32,-0.27 -8,-6.54 -17.95,-4.87 -7.32,1.22 -13.84,6.4 -19.37,15.38 -2.4,-0.35 -5.02,-0.67 -7.86,-0.94 -1.96,-0.19 -3.58,-0.83 -4.7,-1.87 -1.19,-1.1 -1.79,-2.63 -1.79,-4.53l0 -5.97c0,-0.87 -0.15,-1.71 -0.44,-2.49l3.15 -1.75c0.3,-0.17 0.5,-0.47 0.54,-0.81 0.04,-0.34 -0.09,-0.68 -0.35,-0.91 -1.32,-1.17 -2.86,-2.04 -3.87,-2.54l0.93 -1.85c0.15,-0.31 0.15,-0.67 -0.02,-0.98 -0.17,-0.3 -0.46,-0.51 -0.81,-0.55 -3.31,-0.39 -5.36,0.53 -6.29,1.12l-1.57 -0.63c-0.31,-0.12 -0.67,-0.09 -0.95,0.08 -3.63,2.23 -4.57,6.6 -4.81,8.57 -2.28,0.15 -3.93,0.86 -4.9,2.11 -1.3,1.67 -0.83,3.62 -0.82,3.7 0.1,0.4 0.42,0.7 0.82,0.78l1.37 0.28 -0.67 4.02c-0.15,0.91 0.1,1.84 0.7,2.54 0.6,0.7 1.47,1.11 2.39,1.11 0.35,0 0.7,-0.06 1.01,-0.17l0 0.65c0,5.81 1.91,11.27 5.52,15.8 2.65,3.33 6.11,5.95 10,7.59l5.19 6.99c0.82,1.1 2.11,1.76 3.48,1.8l-0.36 8.07 -5.78 0c-0.59,0 -1.06,0.47 -1.06,1.06 0,0.59 0.47,1.06 1.06,1.06l10.18 -0c0.59,0 1.06,-0.47 1.06,-1.06 0,-0.59 -0.47,-1.06 -1.06,-1.06l-2.28 0 0.37 -8.19c1.08,-0.25 2.04,-0.91 2.68,-1.85l4.02 -5.98c0.89,-0.28 1.77,-0.61 2.63,-0.99 3.09,-1.36 5.83,-3.3 8.17,-5.76 0.98,-0.37 1.97,-0.78 2.97,-1.24 0.26,-0.12 0.45,-0.34 0.55,-0.61 0.09,-0.27 0.08,-0.56 -0.05,-0.82l-1.13 -2.3c2.01,-0.97 4.01,-2.26 5.89,-4 0.26,-0.24 0.38,-0.58 0.33,-0.93 -0.05,-0.35 -0.26,-0.65 -0.57,-0.8 -0.06,-0.03 -1,-0.49 -2.9,-1.17 2.68,-0.85 7.08,-1.95 12.17,-2.07 0.33,-0.01 0.64,-0.17 0.83,-0.44 0.19,-0.26 0.25,-0.61 0.15,-0.93 -0.04,-0.12 -0.77,-2.46 -2.67,-4.53 2.41,-0.46 3.92,-0.54 3.96,-0.54 0.34,-0.01 0.65,-0.19 0.84,-0.46 0.19,-0.28 0.23,-0.63 0.11,-0.96 -0.04,-0.13 -0.83,-2.22 -3.04,-3.95 2.44,0.14 3.96,0.59 3.99,0.6 0.48,0.15 1,-0.06 1.24,-0.5 0.24,-0.44 0.14,-1 -0.25,-1.32zm-66.25 5.87c0,0.56 -0.45,1.02 -1.01,1.02 -0.41,0 -0.67,-0.22 -0.78,-0.36 -0.11,-0.14 -0.3,-0.42 -0.22,-0.82l0.66 -3.95 1.36 0.27 0 3.84zm0 -8.67l0 2.67 -3.61 -0.72c0.02,-0.37 0.13,-0.85 0.48,-1.28 0.56,-0.7 1.65,-1.13 3.16,-1.26 -0.02,0.2 -0.03,0.4 -0.03,0.59zm5.58 -9.21l1.6 0.64c0.39,0.16 0.82,0.09 1.12,-0.21 0.11,-0.09 1.22,-1.01 3.61,-1.07l-0.69 1.38c-0.13,0.26 -0.15,0.57 -0.04,0.85 0.1,0.28 0.32,0.5 0.59,0.61 0.02,0.01 1.54,0.63 3.08,1.7l-1.73 0.96c-1.33,-1.78 -3.45,-2.93 -5.83,-2.93 -1.55,0 -2.98,0.48 -4.16,1.3 0.51,-1.18 1.28,-2.37 2.45,-3.23zm43.76 29.54c-5.33,4.21 -11.45,5.04 -15.79,4.96 -0.58,-0.02 -1.07,0.45 -1.08,1.04 -0.01,0.58 0.46,1.07 1.04,1.08 3.01,0.05 6.82,-0.3 10.7,-1.78l0.69 1.41c-4.6,2 -9.05,2.88 -13.24,2.65 -3.57,-0.2 -6.98,-1.23 -10.13,-3.03 -5.39,-3.1 -8.2,-7.5 -8.25,-7.58 -0.31,-0.5 -0.96,-0.65 -1.46,-0.34 -0.5,0.31 -0.65,0.96 -0.34,1.46 0.12,0.2 3.07,4.86 8.91,8.24 3.44,1.99 7.17,3.12 11.09,3.35 0.5,0.03 1.02,0.05 1.53,0.05 1.95,0 3.95,-0.22 5.98,-0.66 -3.93,2.84 -8.62,4.37 -13.59,4.37 -0.39,0 -0.77,-0.01 -1.15,-0.03 -0.58,-0.03 -1.08,0.42 -1.11,1.01 -0.03,0.58 0.42,1.08 1.01,1.11 0.42,0.02 0.83,0.03 1.26,0.03 1.54,0 3.06,-0.13 4.55,-0.41l-2.72 4.04c-0.43,0.64 -1.16,1.03 -1.94,1.03l-1.02 -0.01c-0.74,0 -1.44,-0.35 -1.87,-0.94l-3.36 -4.53c0.11,0.03 0.21,0.06 0.31,0.08 0.09,0.02 0.17,0.03 0.25,0.03 0.48,0 0.91,-0.33 1.03,-0.81 0.14,-0.57 -0.21,-1.14 -0.78,-1.28 -4.98,-1.22 -9.48,-4.1 -12.69,-8.13 -3.3,-4.15 -5.05,-9.16 -5.05,-14.48l0 -12.29c0,-2.85 2.32,-5.16 5.16,-5.16 2.85,0 5.17,2.32 5.17,5.16l0 5.97c0,4.82 3.14,7.99 8.41,8.51 16.03,1.56 25.12,4.54 28.48,5.85zm10.13 -6.56c-7.07,0.43 -12.52,2.5 -13.87,3.05 -0.37,-0.11 -0.76,-0.22 -1.18,-0.34 -0.26,-0.07 -0.53,-0.15 -0.81,-0.22 4.8,-3.14 9.61,-4.85 13.27,-5.78 1.26,1.02 2.1,2.33 2.58,3.3zm2.13 -6.36c-3.56,0.43 -12.23,2.05 -20.71,8.15 -2.61,-0.63 -5.83,-1.3 -9.68,-1.91 5.08,-7.96 10.93,-12.54 17.41,-13.63 4.74,-0.8 8.99,0.45 11.96,1.83 -3.5,-0.1 -8.37,0.45 -13.56,3.16 -0.52,0.27 -0.72,0.91 -0.45,1.43 0.27,0.52 0.91,0.72 1.43,0.45 3.12,-1.63 6.13,-2.4 8.74,-2.72 2.59,0.63 4.09,2.14 4.86,3.25z"/>
    </g>
   </g>
   <g>
    <g>
     <path class="fil1" d="M38.29 43.48c-1.1,-0.2 -1.76,-0.39 -1.78,-0.39 -0.56,-0.17 -1.15,0.15 -1.32,0.72 -0.17,0.56 0.15,1.15 0.72,1.32 0.03,0.01 0.77,0.22 2.01,0.45 0.07,0.01 0.13,0.02 0.19,0.02 0.5,0 0.95,-0.36 1.04,-0.87 0.11,-0.57 -0.28,-1.13 -0.85,-1.23z"/>
    </g>
   </g>
   <g>
    <g>
     <circle class="fil1" cx="15.14" cy="18.08" r="1.06"/>
    </g>
   </g>
   <g>
   </g>
   <g>
   </g>
   <g>
   </g>
   <g>
   </g>
   <g>
   </g>
   <g>
   </g>
   <g>
   </g>
   <g>
   </g>
   <g>
   </g>
   <g>
   </g>
   <g>
   </g>
   <g>
   </g>
   <g>
   </g>
   <g>
   </g>
   <g>
   </g>
  </g>
 </g>
</svg>
