<?xml version="1.0" encoding="utf-8"?>
<!-- Generator: Adobe Illustrator 13.0.0, SVG Export Plug-In . SVG Version: 6.00 Build 14948)  -->
<!DOCTYPE svg PUBLIC "-//W3C//DTD SVG 1.1//EN" "http://www.w3.org/Graphics/SVG/1.1/DTD/svg11.dtd">
<svg version="1.1" id="Capa_1" xmlns="http://www.w3.org/2000/svg" xmlns:xlink="http://www.w3.org/1999/xlink" x="0px" y="0px"
	 width="512px" height="512px" viewBox="0 0 512 512" enable-background="new 0 0 512 512" xml:space="preserve">
<path fill="#FF6600" d="M290.654,298.673c51.815,0.025,93.841-41.956,93.867-93.771c0.019-35.284-19.763-67.595-51.194-83.625
	V85.313h-17.068v29.238c-16.725-4.848-34.483-4.848-51.207,0V85.313h-17.068v35.963c-46.159,23.54-64.495,80.042-40.954,126.201
	C223.06,278.909,255.371,298.69,290.654,298.673z M290.654,127.984c42.421,0,76.81,34.389,76.81,76.81
	c0,42.42-34.389,76.81-76.81,76.81c-42.419,0-76.809-34.39-76.809-76.81C213.897,162.395,248.255,128.035,290.654,127.984z"/>
<g>
	<path fill="#FF6600" d="M273.586,247.465h8.534v17.069h17.069v-17.069h8.534c9.428,0,17.069-7.641,17.069-17.069v-17.068
		c0-9.427-7.642-17.069-17.069-17.069h-34.138V179.19h34.138v8.534h17.069v-8.534c0-9.427-7.642-17.069-17.069-17.069h-8.534
		v-17.068H282.12v17.068h-8.534c-9.428,0-17.068,7.642-17.068,17.069v17.069c0,9.427,7.641,17.069,17.068,17.069h34.138v17.068
		h-34.138v-8.534h-17.068v8.534C256.518,239.824,264.158,247.465,273.586,247.465z"/>
	<path fill="#FF6600" d="M333.327,196.259h17.069v17.069h-17.069V196.259z"/>
	<path fill="#FF6600" d="M230.915,196.259h17.069v17.069h-17.069V196.259z"/>
</g>
<g>
	<path fill="#FF6600" d="M491.974,304.697l-12.034-12.118c-16.723-16.619-43.733-16.592-60.424,0.059l-79.054,80.506
		c-4.963-18.729-21.898-31.776-41.272-31.8h-57.001c-9.862-20.859-30.874-34.154-53.946-34.137H145.57
		c-16.071-0.002-31.461,6.492-42.672,18.007v-26.541c0-4.714-3.821-8.535-8.535-8.535H26.089c-4.713,0-8.535,3.821-8.535,8.535
		v187.756c0,4.713,3.821,8.534,8.535,8.534h68.275c4.713,0,8.535-3.821,8.535-8.534v-17.069l232.732,0.163
		c2.264,0,4.435-0.901,6.034-2.501L491.956,316.73C495.27,313.407,495.276,308.03,491.974,304.697z M85.83,477.894H34.623V307.207
		H85.83V477.894z M332.098,452.462l-229.199-0.17v-85.345c0.028-23.555,19.117-42.645,42.672-42.672h42.672
		c18.066-0.033,34.178,11.365,40.163,28.411c1.195,3.428,4.427,5.725,8.057,5.727h62.728c14.141,0,25.604,11.462,25.604,25.603
		H196.776v17.069h136.551v-0.076c2.278,0.025,4.471-0.867,6.084-2.476l92.172-93.879c10.016-9.968,26.199-9.987,36.237-0.042
		l6.034,6.085L332.098,452.462z"/>
	<path fill="#FF6600" d="M43.158,324.275h17.068v17.068H43.158V324.275z"/>
	<path fill="#FF6600" d="M418.671,85.313h17.069v17.068h-17.069V85.313z"/>
	<path fill="#FF6600" d="M435.74,102.381h17.068v17.069H435.74V102.381z"/>
	<path fill="#FF6600" d="M418.671,119.45h17.069v17.069h-17.069V119.45z"/>
	<path fill="#FF6600" d="M401.602,102.381h17.069v17.069h-17.069V102.381z"/>
	<path fill="#FF6600" d="M94.364,179.19h17.069v17.069H94.364V179.19z"/>
	<path fill="#FF6600" d="M111.433,196.259h17.069v17.069h-17.069V196.259z"/>
	<path fill="#FF6600" d="M94.364,213.328h17.069v17.068H94.364V213.328z"/>
	<path fill="#FF6600" d="M77.295,196.259h17.069v17.069H77.295V196.259z"/>
	<path fill="#FF6600" d="M145.57,42.64h17.069v17.069H145.57V42.64z"/>
	<path fill="#FF6600" d="M162.639,59.709h17.069v17.069h-17.069V59.709z"/>
	<path fill="#FF6600" d="M145.57,76.778h17.069v17.068H145.57V76.778z"/>
	<path fill="#FF6600" d="M128.501,59.709h17.069v17.069h-17.069V59.709z"/>
	<path fill="#FF6600" d="M247.983,51.174h17.068v17.069h-17.068V51.174z"/>
	<path fill="#FF6600" d="M282.12,51.174h17.069v42.672H282.12V51.174L282.12,51.174z"/>
	<path fill="#FF6600" d="M282.12,17.037h17.069v17.068H282.12V17.037L282.12,17.037z"/>
	<path fill="#FF6600" d="M316.259,51.174h17.068v17.069h-17.068V51.174z"/>
</g>
</svg>
