<?xml version="1.0" encoding="UTF-8"?>
<!DOCTYPE svg PUBLIC "-//W3C//DTD SVG 1.1//EN" "http://www.w3.org/Graphics/SVG/1.1/DTD/svg11.dtd">
<!-- Creator: CorelDRAW X7 -->
<svg xmlns="http://www.w3.org/2000/svg" xml:space="preserve" width="512px" height="512px" version="1.1" style="shape-rendering:geometricPrecision; text-rendering:geometricPrecision; image-rendering:optimizeQuality; fill-rule:evenodd; clip-rule:evenodd"
viewBox="0 0 512 512"
 xmlns:xlink="http://www.w3.org/1999/xlink">
 <defs>
  <style type="text/css">
   <![CDATA[
    .str0 {stroke:white;stroke-width:14.6729}
    .fil0 {fill:none}
    .fil3 {fill:none;fill-rule:nonzero}
    .fil1 {fill:#FE6700}
    .fil2 {fill:white}
    .fil4 {fill:#FE6700;fill-rule:nonzero}
   ]]>
  </style>
 </defs>
 <g id="Layer_x0020_1">
  <metadata id="CorelCorpID_0Corel-Layer"/>
  <rect class="fil0" width="512" height="512"/>
  <g id="_434143725056">
   <path class="fil1" d="M376 415c-30,0 -54,-23 -57,-52l-120 0c-3,29 -27,52 -57,52 -29,0 -54,-23 -57,-52l-41 0 0 -17 0 -17 0 -171c0,-19 16,-35 34,-35l253 0c19,0 35,16 35,35l0 1 53 0c20,0 38,11 46,28l31 61 0 0c1,2 1,5 1,8l0 73 0 19 0 16 -64 0c-3,28 -27,51 -57,51zm-234 -80c-12,0 -23,10 -23,23 0,12 11,23 23,23 13,0 23,-11 23,-23 0,-13 -10,-23 -23,-23zm211 23c0,12 10,23 23,23 12,0 23,-11 23,-23 0,-13 -11,-23 -23,-23 -13,0 -23,10 -23,23zm81 -155c-3,-6 -8,-9 -15,-9l-54 0 0 44 87 0 -18 -35z"/>
  </g>
  <circle class="fil2" cx="129" cy="172" r="112"/>
  <g>
   <path class="fil3 str0" d="M129 52c-33,0 -63,13 -85,35 -22,22 -35,52 -35,85 0,33 13,63 35,84 22,22 52,35 85,35 33,0 63,-13 84,-35 22,-21 35,-51 35,-84 0,-33 -13,-63 -35,-85 -21,-22 -51,-35 -84,-35zm-75 45c19,-19 46,-30 75,-30 29,0 55,11 74,30 19,19 31,46 31,75 0,29 -12,55 -31,74 -19,19 -45,31 -74,31 -29,0 -56,-12 -75,-31 -19,-19 -30,-45 -30,-74 0,-29 11,-56 30,-75z"/>
   <path id="1" class="fil4" d="M129 52c-33,0 -63,13 -85,35 -22,22 -35,52 -35,85 0,33 13,63 35,84 22,22 52,35 85,35 33,0 63,-13 84,-35 22,-21 35,-51 35,-84 0,-33 -13,-63 -35,-85 -21,-22 -51,-35 -84,-35zm-75 45c19,-19 46,-30 75,-30 29,0 55,11 74,30 19,19 31,46 31,75 0,29 -12,55 -31,74 -19,19 -45,31 -74,31 -29,0 -56,-12 -75,-31 -19,-19 -30,-45 -30,-74 0,-29 11,-56 30,-75z"/>
  </g>
  <g>
   <path class="fil1" d="M187 127c0,-3 -1,-4 -4,-6 3,-4 4,-7 -2,-7 0,-3 1,-6 -4,-3 -1,-5 -2,-6 -4,-2 -1,-5 -3,-5 -4,-1 -5,-5 -5,3 -4,6 -11,5 -17,12 -18,27 -3,14 -24,9 -37,8 -13,-1 -25,-51 -28,-19 -5,-5 -7,-2 -5,6 -12,-2 -2,11 -3,11 0,0 -3,-2 -3,-1 -1,9 8,18 14,20 -2,1 -4,1 -7,0 0,7 6,12 11,15 -3,17 10,26 23,33 -1,1 -1,4 0,5 -1,5 -2,8 -4,13 -2,0 -5,1 -6,3 3,-1 4,-1 6,0 -1,3 2,2 5,6 0,2 0,3 2,3 0,1 0,2 0,2 3,-2 1,-4 -2,-9 2,1 4,2 6,3 1,2 1,2 4,2 1,0 1,1 2,2 0,-6 -3,-5 -10,-8 1,0 1,0 2,0 2,1 2,1 4,0 0,0 0,0 1,1 -5,-9 -15,7 -5,-15 5,0 4,-6 5,-6 2,0 4,0 5,0 1,4 1,8 5,9 1,6 2,10 2,16 -1,0 -3,2 -4,4 2,-2 4,-2 6,-2 0,3 3,1 6,4 1,2 1,2 3,2 1,0 1,1 1,2 1,-3 -1,-4 -4,-7 1,0 3,0 5,0 2,1 3,1 4,0 1,0 2,1 3,2 -2,-5 -4,-4 -12,-4 1,0 1,-1 2,-1 3,0 3,1 4,-1 0,-1 1,-1 2,0 -11,-7 -11,12 -12,-15 8,1 3,-10 15,-18 18,-11 31,-15 25,-42 -1,-11 -4,-21 -6,-32 7,5 11,-1 9,-6 0,0 6,0 6,0l0 0zm-11 -8c-1,0 -1,0 -1,1 0,1 0,1 1,1 1,0 2,0 2,-1 0,-1 -1,-1 -2,-1z"/>
  </g>
 </g>
</svg>
