<?xml version="1.0" encoding="UTF-8"?>
<!DOCTYPE svg PUBLIC "-//W3C//DTD SVG 1.1//EN" "http://www.w3.org/Graphics/SVG/1.1/DTD/svg11.dtd">
<!-- Creator: CorelDRAW 2017 -->
<svg xmlns="http://www.w3.org/2000/svg" xml:space="preserve" width="1.70667in" height="1.70667in" version="1.1" style="shape-rendering:geometricPrecision; text-rendering:geometricPrecision; image-rendering:optimizeQuality; fill-rule:evenodd; clip-rule:evenodd"
viewBox="0 0 1706.67 1706.67"
 xmlns:xlink="http://www.w3.org/1999/xlink">
 <defs>
  <style type="text/css">
   <![CDATA[
    .str0 {stroke:#FF6600;stroke-width:10.41;stroke-miterlimit:2.61313}
    .fil0 {fill:none}
    .fil1 {fill:#FE6700}
    .fil5 {fill:#FF6600}
    .fil3 {fill:white}
    .fil4 {fill:white}
    .fil2 {fill:#FF6600;fill-rule:nonzero}
   ]]>
  </style>
 </defs>
 <g id="Layer_x0020_1">
  <metadata id="CorelCorpID_0Corel-Layer"/>
  <rect class="fil0" x="-0" y="-0" width="1706.67" height="1706.67"/>
  <g id="_644148458592">
   <path class="fil1" d="M1595 530.15c-6.98,-5.8 -173.49,-141.83 -389.5,-105.71 -158.85,26.57 -300.15,138.87 -420.12,333.74 -52.13,-7.5 -108.94,-14.47 -170.57,-20.46 -42.56,-4.14 -77.82,-18.17 -102.02,-40.58 -25.79,-23.89 -38.88,-56.93 -38.88,-98.19l0 -129.53c0,-18.95 -3.36,-37.14 -9.51,-54l68.26 -37.92c6.51,-3.62 10.86,-10.16 11.69,-17.56 0.82,-7.4 -1.99,-14.74 -7.54,-19.7 -28.5,-25.44 -62.15,-44.36 -83.87,-55.17l20.08 -40.15c3.35,-6.7 3.23,-14.61 -0.32,-21.2 -3.56,-6.59 -10.09,-11.04 -17.53,-11.93 -71.82,-8.5 -116.25,11.61 -136.39,24.39l-34.24 -13.7c-6.76,-2.7 -14.41,-2.04 -20.61,1.78 -78.74,48.57 -99.05,143.22 -104.26,186.02 -49.43,3.32 -85.13,18.65 -106.27,45.74 -28.22,36.15 -18.05,78.56 -17.59,80.34 2.15,8.62 9.09,15.22 17.8,16.96l29.64 5.92 -14.52 87.17c-3.28,19.76 2.24,39.87 15.19,55.15 12.96,15.29 31.88,24.05 51.91,24.05 7.72,0 15.13,-1.31 22.04,-3.69l0 14.09c0,125.89 41.34,244.41 119.56,342.72 57.49,72.26 132.64,128.98 216.89,164.74l112.46 151.62c17.72,23.89 45.82,38.35 75.5,39.01l-7.82 175.03 -125.33 0c-12.71,0 -22.99,10.28 -22.99,22.99 0,12.7 10.28,23 22.99,23l220.96 0c12.7,0 22.99,-10.29 22.99,-23 0,-12.71 -10.29,-22.99 -22.99,-22.99l-49.61 0 7.94 -177.56c23.47,-5.5 44.32,-19.63 58.09,-40.11l87.31 -129.8c19.37,-6.09 38.46,-13.25 57.21,-21.52 66.98,-29.58 126.57,-71.61 177.16,-124.91 21.35,-7.95 42.83,-16.9 64.42,-26.94 5.6,-2.6 9.91,-7.35 11.97,-13.17 2.06,-5.83 1.7,-12.22 -1.02,-17.77l-24.43 -49.96c43.61,-21 86.93,-49.15 127.77,-86.69 5.57,-5.11 8.27,-12.64 7.21,-20.13 -1.06,-7.49 -5.73,-13.98 -12.49,-17.37 -1.31,-0.65 -21.53,-10.65 -62.96,-25.51 58.15,-18.41 153.68,-42.28 263.97,-45 7.19,-0.19 13.87,-3.7 18.07,-9.53 4.22,-5.83 5.44,-13.29 3.35,-20.17 -0.81,-2.64 -16.73,-53.47 -57.9,-98.33 52.22,-10.03 85.02,-11.58 85.89,-11.62 7.35,-0.28 14.1,-4.04 18.2,-10.13 4.11,-6.09 5.05,-13.76 2.55,-20.67 -1,-2.79 -18.07,-48.19 -65.97,-85.6 52.87,3.06 85.86,12.86 86.6,13.08 10.48,3.28 21.81,-1.31 27.05,-10.96 5.24,-9.65 2.94,-21.65 -5.5,-28.67l0.04 0zm-1437.11 127.48c0,12.16 -9.89,22.05 -22.05,22.05 -8.88,0 -14.36,-4.89 -16.82,-7.8 -2.46,-2.91 -6.39,-9.11 -4.93,-17.87l14.29 -85.7 29.5 5.9 0 83.42 0.02 0.01zm0 -188.21l0 57.87 -78.24 -15.65c0.52,-8.05 2.9,-18.41 10.32,-27.72 12.19,-15.27 35.66,-24.59 68.49,-27.42 -0.34,4.26 -0.56,8.56 -0.56,12.91l-0.01 0zm120.88 -199.7l34.74 13.89c8.57,3.43 17.89,1.88 24.37,-4.67 2.34,-2.04 26.4,-21.97 78.32,-23.17l-14.98 29.95c-2.86,5.74 -3.21,12.41 -0.95,18.41 2.26,6 6.93,10.78 12.87,13.18 0.42,0.18 33.54,13.73 66.91,36.8l-37.52 20.85c-28.84,-38.57 -74.86,-63.59 -126.63,-63.59 -33.5,0 -64.57,10.5 -90.17,28.35 11.13,-25.61 27.83,-51.41 53.03,-70.02l0.01 0.01zm949.36 640.75c-115.72,91.28 -248.42,109.45 -342.54,107.65 -12.59,-0.28 -23.18,9.87 -23.41,22.57 -0.22,12.7 9.88,23.18 22.57,23.41 65.36,1.19 147.98,-6.5 232.11,-38.49l14.98 30.63c-99.76,43.24 -196.28,62.51 -287.25,57.32 -77.54,-4.42 -151.46,-26.55 -219.72,-65.78 -116.94,-67.19 -177.94,-162.67 -178.98,-164.32 -6.72,-10.77 -20.9,-14.07 -31.67,-7.35 -10.78,6.71 -14.07,20.89 -7.36,31.67 2.66,4.28 66.63,105.45 193.27,178.84 74.62,43.24 155.54,67.73 240.48,72.78 10.98,0.65 22.03,0.97 33.14,0.97 42.37,0 85.67,-4.76 129.69,-14.21 -85.12,61.57 -186.95,94.73 -294.71,94.73 -8.33,0 -16.75,-0.2 -25.02,-0.6 -12.67,-0.61 -23.47,9.16 -24.09,21.83 -0.62,12.69 9.16,23.47 21.85,24.09 9,0.44 18.19,0.66 27.25,0.66 33.42,0 66.35,-2.95 98.65,-8.78l-59.01 87.72c-9.43,14.01 -25.13,22.38 -42.04,22.38l-21.91 0c-15.97,0 -31.17,-7.65 -40.68,-20.49l-72.88 -98.27c2.3,0.58 4.59,1.2 6.9,1.76 1.83,0.46 3.67,0.66 5.47,0.66 10.35,0 19.75,-7.05 22.32,-17.55 3.02,-12.34 -4.55,-24.78 -16.89,-27.78 -107.9,-26.32 -205.65,-88.97 -275.23,-176.43 -71.67,-90.09 -109.56,-198.7 -109.56,-314.08l0 -266.63c0,-61.78 50.26,-112.04 112.03,-112.04 61.78,0 112.04,50.26 112.04,112.04l0 129.54c0,104.43 68.2,173.42 182.42,184.54 347.74,33.86 544.73,98.61 617.75,126.99l0.01 0.01zm219.92 -142.28c-153.34,9.33 -271.62,54.19 -300.9,66.19 -8.14,-2.43 -16.62,-4.9 -25.54,-7.42 -5.59,-1.58 -11.43,-3.19 -17.47,-4.83 104.06,-68.03 208.34,-105.17 287.89,-125.34 27.42,22.03 45.45,50.53 56.01,71.41l0.01 -0zm46.15 -137.88c-77.22,9.19 -265.35,44.39 -449.3,176.69 -56.56,-13.57 -126.45,-28.04 -209.95,-41.33 110.18,-172.59 237.12,-272.11 377.65,-295.8 102.84,-17.34 195.01,9.87 259.36,39.65 -75.77,-2.18 -181.48,9.74 -294.1,68.58 -11.25,5.88 -15.6,19.77 -9.72,31.04 5.88,11.27 19.79,15.6 31.02,9.72 67.64,-35.36 133.06,-52.18 189.76,-59.05 56.16,13.7 88.51,46.53 105.3,70.5l-0.01 0z"/>
   <path class="fil2" d="M1589.27 536.99c-4.75,-3.96 -77.23,-63.07 -187.13,-92.9 -56.65,-15.37 -123.15,-22.89 -195.17,-10.84 -77.89,13.03 -151.56,47.14 -220.53,101.93 -69.35,55.08 -134,131.12 -193.44,227.69l-3.07 4.99 -5.8 -0.83c-25.77,-3.7 -52.93,-7.32 -81.51,-10.76 -28.99,-3.5 -58.58,-6.75 -88.63,-9.67 -22.12,-2.15 -42.41,-6.89 -60.34,-14.03 -18.17,-7.23 -33.97,-16.93 -46.89,-28.89 -13.93,-12.91 -24.42,-28.23 -31.38,-45.83 -6.91,-17.45 -10.39,-37.14 -10.39,-58.89l0 -129.53c0,-8.87 -0.78,-17.53 -2.25,-25.92 -1.53,-8.68 -3.79,-17.06 -6.7,-25.04l-2.6 -7.13 74.91 -41.61c1.98,-1.1 3.64,-2.65 4.87,-4.5 1.23,-1.89 2.03,-4.02 2.28,-6.25 0.25,-2.26 -0.06,-4.54 -0.85,-6.61 -0.78,-2.05 -2.06,-3.93 -3.76,-5.44 -13.79,-12.35 -28.94,-23.16 -43.29,-32.2 -14.26,-8.98 -27.89,-16.3 -38.63,-21.64l-7.98 -3.97 24.07 -48.14c1.02,-2.11 1.52,-4.36 1.49,-6.57 -0.03,-2.18 -0.6,-4.4 -1.7,-6.44 -1.09,-2.03 -2.63,-3.73 -4.45,-4.96 -1.81,-1.23 -3.96,-2.05 -6.27,-2.32 -28.46,-3.37 -52.43,-2.1 -72.13,1.42 -28,5 -47.24,14.53 -58.43,21.64l-3.84 2.44 -38.5 -15.41c-2.04,-0.81 -4.26,-1.12 -6.47,-0.93 -2.17,0.18 -4.29,0.87 -6.14,2.01 -37.59,23.19 -61.31,57.52 -76.25,91.2 -15.08,33.98 -21.28,67.43 -23.82,88.29l-0.89 7.37 -7.39 0.49c-23.69,1.59 -44,6.03 -60.83,13.27 -16.36,7.04 -29.41,16.74 -39.02,29.05 -8.64,11.07 -13.3,22.86 -15.66,33.63 -4.61,21.07 -0.56,37.97 -0.3,39.02l0 0.07c0.65,2.62 2.04,4.94 3.92,6.73 1.87,1.79 4.28,3.07 6.96,3.6l38.12 7.63 -15.95 95.7c-1.43,8.62 -0.94,17.3 1.3,25.46 2.24,8.13 6.26,15.81 11.9,22.46 5.62,6.64 12.55,11.87 20.22,15.42 7.67,3.56 16.15,5.45 24.88,5.45 3.41,0 6.66,-0.27 9.72,-0.78 3.19,-0.53 6.35,-1.35 9.43,-2.41l11.84 -4.07 0 26.61c0,61.99 10.16,122.12 29.92,178.77 19.78,56.68 49.19,110.01 87.69,158.39 28.23,35.48 60.74,67.13 96.46,94.27 35.96,27.32 75.31,50.16 116.94,67.82l3.66 2.9 112.46 151.63c8.02,10.81 18.41,19.5 30.16,25.57 11.78,6.09 24.91,9.54 38.36,9.83l9.15 0.2 -8.62 192.68 -133.85 0c-3.91,0 -7.43,1.57 -9.96,4.1 -2.52,2.56 -4.1,6.07 -4.1,9.96 0,3.88 1.58,7.4 4.12,9.94 2.52,2.54 6.04,4.11 9.94,4.11l220.95 0c3.88,0 7.4,-1.57 9.94,-4.11 2.54,-2.54 4.11,-6.06 4.11,-9.94 0,-3.89 -1.57,-7.41 -4.11,-9.95 -2.54,-2.54 -6.06,-4.11 -9.94,-4.11l-58.93 0 8.66 -193.65 6.57 -1.54c10.73,-2.52 20.85,-7.01 29.83,-13.2 8.89,-6.13 16.7,-13.96 22.89,-23.17l87.31 -129.8 4.74 -3.56c9.68,-3.05 19.21,-6.33 28.53,-9.84 9.18,-3.45 18.43,-7.24 27.73,-11.34 32.93,-14.54 64.07,-32.15 93.15,-52.66 29.15,-20.55 56.27,-44.01 81.15,-70.21l3.35 -2.2c10.24,-3.81 20.85,-8.01 31.82,-12.59 10.67,-4.45 21.34,-9.16 31.98,-14.11 1.68,-0.78 3.2,-1.91 4.44,-3.28 1.24,-1.37 2.22,-2.99 2.85,-4.76 0.63,-1.8 0.89,-3.68 0.79,-5.53 -0.1,-1.85 -0.58,-3.68 -1.39,-5.35l-28.38 -58.03 8.07 -3.88c21.48,-10.33 42.86,-22.43 63.84,-36.51 20.97,-14.07 41.65,-30.22 61.76,-48.71 1.69,-1.55 2.96,-3.49 3.71,-5.61 0.78,-2.08 1.02,-4.39 0.7,-6.7 -0.33,-2.32 -1.21,-4.48 -2.51,-6.28 -1.29,-1.8 -3.04,-3.31 -5.13,-4.34l-0.46 -0.25c-3.68,-1.8 -23.52,-11.25 -61.53,-24.88l0.31 -16.9c33.55,-10.61 79.48,-23.05 133.53,-32.26 40.3,-6.87 85.19,-11.94 132.92,-13.12 2.17,-0.05 4.3,-0.63 6.21,-1.64 1.91,-1.01 3.58,-2.44 4.84,-4.19 1.28,-1.78 2.13,-3.81 2.47,-5.92 0.36,-2.14 0.22,-4.34 -0.41,-6.43 -0.39,-1.24 -4.38,-13.96 -13.3,-32 -8.93,-18.05 -22.75,-41.22 -42.65,-62.9l-10.83 -11.79 15.71 -3.02c17.72,-3.4 33.37,-5.85 46.33,-7.61 25.29,-3.42 40.33,-4.13 40.91,-4.15 2.23,-0.08 4.39,-0.71 6.3,-1.77 1.88,-1.04 3.55,-2.56 4.82,-4.44 1.24,-1.85 2.02,-3.95 2.28,-6.12 0.27,-2.2 0.04,-4.44 -0.71,-6.52 -0.61,-1.74 -7.72,-20.67 -25.6,-43.86 -9.39,-12.19 -21.7,-25.44 -37.48,-37.76l5.97 -15.93c18.26,1.06 34.09,2.88 47.06,4.83 25.89,3.91 41.13,8.44 41.64,8.6l0.07 0.04c3.2,1 6.54,0.8 9.48,-0.39 2.95,-1.19 5.5,-3.37 7.09,-6.31 1.59,-2.94 2.04,-6.27 1.44,-9.39 -0.6,-3.12 -2.25,-6.05 -4.81,-8.19zm-182.45 -110.15c113.63,30.83 189.18,92.58 193.87,96.48 5.83,4.89 9.56,11.48 10.91,18.51 1.34,7.03 0.32,14.55 -3.33,21.26 -3.65,6.71 -9.39,11.66 -16.03,14.35 -6.63,2.69 -14.17,3.15 -21.42,0.91 -0.47,-0.13 -14.56,-4.32 -39.13,-8.03 -5.76,-0.87 -12.05,-1.71 -18.83,-2.46 7.74,7.7 14.38,15.39 20.04,22.74 19.39,25.16 27.47,46.58 28.24,48.69 1.75,4.81 2.31,9.87 1.71,14.76 -0.61,4.9 -2.37,9.7 -5.22,13.93 -2.83,4.2 -6.62,7.62 -10.96,10.03 -4.33,2.41 -9.23,3.82 -14.33,4.01 -0.55,0.02 -14.64,0.69 -39.17,4.01 -8.73,1.18 -18.81,2.71 -30.1,4.67 15.8,19.46 27.26,39.15 35.15,55.08 9.52,19.24 13.92,33.28 14.34,34.65 1.45,4.81 1.76,9.77 0.97,14.53 -0.79,4.8 -2.7,9.42 -5.61,13.46 -2.92,4.06 -6.71,7.31 -10.99,9.57 -4.27,2.25 -9.1,3.54 -14.11,3.67 -46.59,1.15 -90.65,6.14 -130.34,12.91 -40.54,6.91 -76.48,15.68 -105.91,24.11 24.98,9.72 37.65,15.95 38.92,16.57l0.09 0.04c4.68,2.31 8.65,5.76 11.64,9.92 2.99,4.15 4.99,9.01 5.72,14.17 0.72,5.17 0.15,10.39 -1.57,15.2 -1.68,4.8 -4.56,9.2 -8.43,12.75 -20.72,19.04 -42.13,35.75 -63.93,50.38 -19.14,12.85 -38.54,24.06 -57.98,33.82l20.52 41.97c1.89,3.86 2.97,8.02 3.21,12.2 0.24,4.18 -0.34,8.41 -1.77,12.44 -1.44,4.04 -3.65,7.72 -6.48,10.83 -2.81,3.1 -6.27,5.66 -10.17,7.47 -10.94,5.08 -21.82,9.89 -32.61,14.4 -9.9,4.13 -20.06,8.15 -30.5,12.06 -25.34,26.5 -52.88,50.25 -82.39,71.05 -30.07,21.2 -62.22,39.39 -96.22,54.41 -9.32,4.11 -18.88,8.01 -28.65,11.69 -8.85,3.33 -17.7,6.42 -26.52,9.24l-85.55 127.18c-7.48,11.13 -16.88,20.55 -27.57,27.92 -8.98,6.2 -18.87,10.98 -29.31,14.15l-7.24 161.69 40.29 0c8.81,0 16.8,3.57 22.58,9.35 5.78,5.78 9.35,13.77 9.35,22.59 0,8.81 -3.57,16.8 -9.35,22.58 -5.78,5.78 -13.78,9.35 -22.58,9.35l-220.95 0c-8.79,0 -16.77,-3.58 -22.55,-9.35 -5.81,-5.78 -9.39,-13.78 -9.39,-22.58 0,-8.81 3.57,-16.81 9.35,-22.59 5.81,-5.77 13.79,-9.35 22.59,-9.35l116.8 0 7.06 -157.78c-13.03,-1.43 -25.6,-5.27 -37.06,-11.19 -14.11,-7.29 -26.62,-17.77 -36.31,-30.82l-111.01 -149.67c-42.06,-18.06 -81.91,-41.33 -118.49,-69.11 -37.01,-28.11 -70.6,-60.8 -99.68,-97.34 -39.72,-49.92 -70.1,-105.01 -90.55,-163.62 -20.46,-58.65 -30.98,-120.75 -30.98,-184.64l0 -2.61 -0.45 0.07c-4.23,0.7 -8.46,1.07 -12.65,1.07 -11.29,0 -22.32,-2.49 -32.35,-7.14 -10.02,-4.64 -19.05,-11.46 -26.36,-20.09 -7.3,-8.61 -12.53,-18.63 -15.46,-29.31 -2.93,-10.64 -3.57,-21.91 -1.72,-33.04l13.1 -78.67 -21.16 -4.23c-6.03,-1.2 -11.46,-4.11 -15.76,-8.21 -4.28,-4.07 -7.43,-9.36 -8.93,-15.32 -0.34,-1.29 -5.34,-22.12 0.14,-47.19 2.85,-13.02 8.52,-27.3 19.07,-40.83 11.52,-14.76 26.9,-26.27 46,-34.49 16.88,-7.27 36.71,-11.98 59.39,-14.09 3.17,-22.02 9.94,-53.7 24.33,-86.11 16.19,-36.49 42.02,-73.78 83.16,-99.16 4.33,-2.67 9.15,-4.25 14.03,-4.67 4.85,-0.42 9.84,0.29 14.57,2.19l30.07 12.03c12.91,-7.6 33.1,-16.78 60.93,-21.75 21.2,-3.78 46.94,-5.16 77.37,-1.56 5.12,0.6 9.97,2.47 14.16,5.32 4.2,2.86 7.73,6.7 10.18,11.25 2.44,4.54 3.72,9.59 3.8,14.68 0.07,5.06 -1.04,10.13 -3.33,14.73l-16.15 32.22c9.49,4.95 20.55,11.15 32.22,18.5 15.02,9.46 30.95,20.84 45.65,33.96 3.87,3.42 6.78,7.7 8.59,12.41 1.78,4.67 2.47,9.79 1.91,14.92 -0.57,5.16 -2.37,10.01 -5.15,14.17 -2.79,4.16 -6.57,7.69 -11.08,10.2l-61.76 34.3c2.14,6.81 3.85,13.76 5.09,20.83 1.66,9.45 2.54,19.13 2.54,28.99l0 129.53c0,19.49 3.06,36.98 9.14,52.32 6.02,15.2 14.98,28.36 26.84,39.34 11.27,10.44 25.22,18.97 41.37,25.39 16.37,6.51 35.01,10.86 55.45,12.84 31.55,3.06 61.21,6.31 89.06,9.67 26.19,3.16 51.58,6.51 76.14,10 59.67,-95.95 124.67,-171.86 194.48,-227.32 71.37,-56.69 147.77,-92.02 228.7,-105.56 74.97,-12.54 144.04,-4.76 202.79,11.19zm-1239.99 230.8c0,8.54 -3.48,16.3 -9.08,21.9 -5.6,5.6 -13.36,9.09 -21.91,9.09 -5.06,0 -9.39,-1.17 -12.98,-2.83 -5.11,-2.37 -8.63,-5.74 -10.65,-8.15 -2.03,-2.39 -4.77,-6.4 -6.27,-11.83 -1.05,-3.8 -1.48,-8.27 -0.65,-13.27l15.81 -94.8 45.72 9.15c0,30.24 -0.08,60.5 0.02,90.75zm-21.72 9.26c2.22,-2.22 3.65,-5.24 3.83,-8.59l0 -76.78 -13.27 -2.65 -12.77 76.59c-0.36,2.18 -0.19,4.05 0.24,5.6 0.63,2.28 1.82,4.01 2.7,5.05 0.87,1.04 2.38,2.48 4.51,3.47 1.46,0.67 3.28,1.15 5.5,1.15 3.61,0 6.89,-1.47 9.26,-3.84zm21.73 -188.52l-0.01 59.83 -96.59 -19.32 0.5 -7.79c0.33,-5.17 1.35,-11.22 3.69,-17.52 1.9,-5.1 4.65,-10.3 8.55,-15.19 7.07,-8.85 17.2,-15.91 30.11,-21.07 12.37,-4.95 27.33,-8.21 44.59,-9.7l10.5 -0.91 -1.23 16.61 -0.11 6.1 -0.01 8.94zm-17.89 38.03l0 -49.82c-11.22,1.56 -21,4 -29.22,7.29 -10,4 -17.67,9.24 -22.77,15.62 -2.69,3.37 -4.57,6.89 -5.83,10.3 -0.59,1.59 -1.07,3.19 -1.44,4.76l59.26 11.85zm134.89 -254.24l32.99 13.19c2.72,1.09 5.52,1.39 8.11,0.89 2.43,-0.46 4.73,-1.66 6.62,-3.56l0.45 -0.42c1.33,-1.17 8.9,-7.48 22.98,-13.4 13.59,-5.72 33.72,-11.34 61.04,-11.97l14.75 -0.34 -21.59 43.16c-0.85,1.8 -1.36,3.71 -1.46,5.6 -0.1,1.92 0.19,3.87 0.88,5.7 0.69,1.83 1.76,3.5 3.1,4.87 1.33,1.36 2.94,2.46 4.74,3.18 0.5,0.19 34.46,14.1 68.66,37.74l11.8 8.15 -56.87 31.61 -4.67 -6.24c-13.88,-18.58 -31.96,-33.82 -52.76,-44.26 -20.03,-10.06 -42.7,-15.72 -66.71,-15.72 -15.55,0 -30.53,2.39 -44.58,6.8 -14.61,4.59 -28.24,11.37 -40.5,19.91l-13.27 -10.83c5.8,-13.35 13.09,-26.79 22.22,-39.34 9.23,-12.68 20.33,-24.46 33.68,-34.31l6.21 -4.58 4.17 4.17zm26.37 29.75l-30.06 -12.01c-10.13,8.09 -18.72,17.45 -25.99,27.45 -2.33,3.2 -4.53,6.47 -6.61,9.79 5.98,-2.7 12.15,-5.06 18.46,-7.04 15.78,-4.96 32.55,-7.65 49.89,-7.65 26.77,0 52.14,6.37 74.67,17.68 21.03,10.56 39.52,25.41 54.3,43.36l18 -10c-27.94,-17.57 -52.69,-27.72 -53.08,-27.88 -4.12,-1.67 -7.81,-4.19 -10.86,-7.3 -3.04,-3.1 -5.44,-6.85 -7,-11.02 -1.57,-4.16 -2.23,-8.56 -2.01,-12.9 0.22,-4.37 1.34,-8.69 3.31,-12.63l8.1 -16.13c-17.02,1.78 -30.04,5.68 -39.43,9.63 -10.74,4.52 -16.38,8.9 -17.89,10.17 -4.48,4.44 -9.92,7.22 -15.71,8.33 -5.89,1.13 -12.14,0.5 -18.09,-1.86zm1138.36 485.2l-0.52 0.03c-75.78,4.65 -142.89,18.06 -194.71,31.78 -51.95,13.76 -88.37,27.8 -102.82,33.71l-5.94 0.31 -12.4 -3.68c-16.48,-4.71 -32.98,-9.24 -49.51,-13.77l16.57 -10.83c46.85,-30.63 93.8,-55.09 138.58,-74.57 55.5,-24.17 107.61,-40.7 152.04,-51.96l4.27 -1.08 3.48 2.79c12.55,10.08 23.19,21.41 32.09,32.75 11.49,14.68 20.14,29.41 26.3,41.6l-7.7 3.88 0.26 9.04zm-199.77 14.56c49.65,-13.16 113.13,-26.02 184.8,-31.43 -4.88,-8.45 -10.82,-17.58 -17.92,-26.63 -7.36,-9.36 -15.94,-18.66 -25.82,-27.06 -42.7,11.03 -92.28,26.96 -144.9,49.87 -38.52,16.76 -78.72,37.31 -119.14,62.46l20.9 6.06c16.49,-6.62 52.46,-20.14 102.08,-33.28zm246.45 -152.48c-46.18,5.49 -132.47,20.4 -233.74,60.22 -66.43,26.13 -139.29,62.96 -211.41,114.83l-3.31 2.38 -3.95 -0.95c-27.6,-6.62 -59.04,-13.58 -94.56,-20.66 -35.27,-7.03 -73.57,-13.98 -114.74,-20.53l-13.41 -2.14 7.31 -11.45c55.65,-87.18 115.62,-155.97 179.51,-206.01 64.24,-50.32 132.45,-81.71 204.18,-93.8 46.36,-7.81 90.56,-6.79 131.08,-0.6 51.32,7.84 96.84,23.99 133.48,40.94l-3.98 17.01c-37.33,-1.07 -82.04,1.32 -131.24,11.23 -49.22,9.91 -103,27.35 -158.48,56.34 -3.43,1.79 -5.81,4.82 -6.89,8.26 -1.07,3.45 -0.86,7.3 0.91,10.72l0.04 0.07c1.78,3.42 4.81,5.8 8.25,6.87 3.42,1.07 7.27,0.83 10.72,-0.96 34.42,-17.96 68.24,-31.22 100.61,-40.85 32.45,-9.65 63.48,-15.68 92.25,-19.16l3.15 0.21c25.19,6.15 45.83,15.99 62.59,27.2 22.38,14.98 37.82,32.45 47.91,46.85l4.3 6.14 -5.28 5.28 -5.28 2.55zm-240.24 43.59c92.72,-36.46 173.15,-52.41 222.66,-59.33 -8.52,-10.03 -19.67,-20.71 -33.98,-30.29 -14.82,-9.93 -33.05,-18.67 -55.24,-24.29 -27.49,3.41 -57.03,9.2 -87.8,18.35 -31.29,9.3 -63.91,22.08 -97.02,39.35l-0.39 0.24c-7.78,4.05 -16.49,4.57 -24.27,2.14 -7.72,-2.41 -14.56,-7.79 -18.65,-15.54l-0.09 -0.16c-4.08,-7.82 -4.62,-16.55 -2.19,-24.31 2.44,-7.79 7.87,-14.65 15.69,-18.74 57.11,-29.85 112.51,-47.8 163.24,-58.01 32.52,-6.54 63.11,-9.91 91,-11.19 -26.59,-9.68 -56.33,-17.96 -88.43,-22.86 -38.88,-5.94 -81.22,-6.94 -125.5,0.53 -68.76,11.59 -134.28,41.79 -196.14,90.24 -59.5,46.6 -115.65,110.08 -168.09,190.13 37.04,6.05 70.98,12.25 101.94,18.43 32.88,6.56 63.36,13.3 91.24,19.93 72.47,-51.66 145.43,-88.45 212,-114.63z"/>
   <circle class="fil1" cx="279.15" cy="457.16" r="22.99"/>
   <g>
    <g>
     <path class="fil1" d="M781.58 1008.01c-23.95,-4.31 -38.26,-8.45 -38.74,-8.59 -12.17,-3.59 -24.95,3.36 -28.56,15.54 -3.6,12.18 3.35,24.97 15.53,28.57 0.67,0.2 16.64,4.89 43.6,9.75 1.37,0.25 2.74,0.37 4.1,0.37 10.91,0 20.59,-7.8 22.61,-18.93 2.26,-12.5 -6.05,-24.45 -18.56,-26.71l0.01 0z"/>
    </g>
   </g>
   <path class="fil3" d="M662.1 864.46c0,9.64 -7.85,17.47 -17.47,17.47 -7.05,0 -11.39,-3.88 -13.33,-6.18 -1.96,-2.3 -5.07,-7.22 -3.9,-14.17l11.33 -67.93 23.39 4.68 0 66.12 -0 0z"/>
  </g>
  <path class="fil1" d="M1658.07 860.32c-4.81,-4 -119.67,-97.83 -268.67,-72.92 -109.57,18.33 -207.04,95.79 -289.78,230.21 -35.96,-5.17 -75.15,-9.98 -117.65,-14.11 -29.35,-2.86 -53.68,-12.53 -70.37,-27.99 -17.79,-16.48 -26.82,-39.27 -26.82,-67.73l0 -89.35c0,-13.07 -2.32,-25.62 -6.56,-37.24l47.08 -26.15c4.48,-2.5 7.49,-7.01 8.06,-12.11 0.56,-5.11 -1.37,-10.17 -5.2,-13.59 -19.65,-17.55 -42.87,-30.6 -57.85,-38.06l13.85 -27.69c2.31,-4.62 2.22,-10.08 -0.22,-14.62 -2.45,-4.55 -6.96,-7.62 -12.09,-8.23 -49.54,-5.87 -80.18,8 -94.08,16.82l-23.62 -9.45c-4.67,-1.86 -9.94,-1.41 -14.21,1.23 -54.32,33.5 -68.32,98.79 -71.92,128.31 -34.09,2.29 -58.72,12.87 -73.31,31.55 -19.46,24.93 -12.45,54.19 -12.13,55.42 1.48,5.95 6.27,10.5 12.28,11.7l20.44 4.08 -10.02 60.13c-2.26,13.63 1.55,27.5 10.48,38.04 8.93,10.55 21.98,16.59 35.8,16.59 5.32,0 10.44,-0.9 15.21,-2.54l0 9.72c0,86.83 28.52,168.58 82.47,236.39 39.65,49.84 91.49,88.97 149.61,113.64l77.57 104.59c12.22,16.48 31.6,26.45 52.08,26.91l-5.4 120.73 -86.45 0c-8.77,0 -15.86,7.09 -15.86,15.86 0,8.76 7.09,15.86 15.86,15.86l152.41 0c8.76,0 15.86,-7.09 15.86,-15.86 0,-8.77 -7.09,-15.86 -15.86,-15.86l-34.22 0 5.48 -122.48c16.19,-3.79 30.57,-13.54 40.07,-27.67l60.22 -89.53c13.36,-4.21 26.53,-9.14 39.46,-14.85 46.2,-20.4 87.3,-49.39 122.2,-86.15 14.73,-5.48 29.55,-11.66 44.44,-18.58 3.86,-1.8 6.83,-5.07 8.26,-9.09 1.42,-4.02 1.17,-8.43 -0.7,-12.25l-16.85 -34.46c30.08,-14.48 59.96,-33.91 88.13,-59.8 3.84,-3.52 5.7,-8.72 4.97,-13.89 -0.73,-5.16 -3.95,-9.64 -8.61,-11.98 -0.9,-0.44 -14.85,-7.35 -43.43,-17.6 40.11,-12.69 106,-29.17 182.08,-31.04 4.96,-0.13 9.57,-2.56 12.47,-6.57 2.91,-4.03 3.76,-9.17 2.31,-13.91 -0.56,-1.82 -11.54,-36.89 -39.93,-67.83 36.02,-6.92 58.65,-7.99 59.24,-8.02 5.07,-0.19 9.73,-2.79 12.56,-6.98 2.83,-4.2 3.48,-9.49 1.76,-14.26 -0.69,-1.92 -12.46,-33.24 -45.5,-59.05 36.47,2.11 59.23,8.87 59.74,9.03 7.23,2.26 15.04,-0.91 18.66,-7.57 3.61,-6.65 2.03,-14.94 -3.8,-19.78l0.03 0z"/>
  <circle class="fil4" cx="1198.06" cy="461.32" r="399.84"/>
  <path class="fil2 str0" d="M1654.13 865.03c-3.28,-2.73 -53.28,-43.51 -129.08,-64.08 -39.07,-10.6 -84.94,-15.79 -134.63,-7.48 -53.72,8.98 -104.54,32.52 -152.11,70.31 -47.83,38 -92.43,90.45 -133.43,157.06l-2.12 3.44 -4 -0.57c-17.78,-2.56 -36.51,-5.05 -56.23,-7.43 -20,-2.41 -40.41,-4.66 -61.13,-6.67 -15.26,-1.48 -29.25,-4.76 -41.62,-9.68 -12.53,-4.98 -23.43,-11.68 -32.34,-19.93 -9.61,-8.9 -16.84,-19.48 -21.65,-31.61 -4.77,-12.04 -7.17,-25.62 -7.17,-40.62l0 -89.35c0,-6.11 -0.54,-12.09 -1.55,-17.88 -1.06,-5.99 -2.61,-11.77 -4.62,-17.27l-1.79 -4.92 51.67 -28.7c1.36,-0.76 2.52,-1.83 3.36,-3.11 0.85,-1.3 1.4,-2.77 1.57,-4.31 0.17,-1.56 -0.04,-3.13 -0.59,-4.56 -0.54,-1.42 -1.42,-2.71 -2.59,-3.75 -9.51,-8.52 -19.96,-15.98 -29.86,-22.21 -9.83,-6.2 -19.24,-11.24 -26.65,-14.93l-5.5 -2.74 16.6 -33.2c0.7,-1.46 1.05,-3.01 1.03,-4.53 -0.02,-1.51 -0.41,-3.04 -1.17,-4.44 -0.76,-1.4 -1.82,-2.57 -3.07,-3.42 -1.25,-0.85 -2.73,-1.41 -4.32,-1.6 -19.63,-2.32 -36.17,-1.45 -49.75,0.98 -19.32,3.45 -32.58,10.03 -40.3,14.93l-2.65 1.69 -26.56 -10.63c-1.41,-0.56 -2.94,-0.77 -4.46,-0.64 -1.5,0.12 -2.96,0.59 -4.24,1.39 -25.93,15.99 -42.29,39.67 -52.59,62.91 -10.4,23.44 -14.68,46.51 -16.43,60.9l-0.62 5.08 -5.09 0.34c-16.34,1.09 -30.35,4.15 -41.96,9.15 -11.28,4.85 -20.28,11.55 -26.91,20.04 -5.96,7.63 -9.18,15.77 -10.8,23.2 -3.18,14.54 -0.38,26.19 -0.2,26.92l0 0.05c0.44,1.8 1.41,3.41 2.7,4.64 1.3,1.24 2.96,2.12 4.8,2.48l26.3 5.26 -11 66.01c-0.98,5.94 -0.65,11.93 0.9,17.56 1.54,5.61 4.32,10.91 8.21,15.5 3.87,4.58 8.65,8.19 13.94,10.64 5.29,2.45 11.14,3.76 17.16,3.76 2.35,0 4.59,-0.19 6.7,-0.53 2.19,-0.37 4.38,-0.94 6.5,-1.67l8.17 -2.81 0 18.35c0,42.76 7.01,84.24 20.64,123.32 13.64,39.09 33.93,75.89 60.48,109.26 19.47,24.47 41.89,46.31 66.54,65.02 24.81,18.84 51.95,34.59 80.66,46.78l2.53 2 77.57 104.59c5.53,7.46 12.7,13.46 20.8,17.64 8.13,4.2 17.18,6.58 26.46,6.78l6.31 0.14 -5.94 132.9 -92.33 0c-2.69,0 -5.12,1.09 -6.87,2.83 -1.74,1.76 -2.82,4.19 -2.82,6.87 0,2.68 1.09,5.11 2.84,6.86 1.74,1.75 4.17,2.83 6.85,2.83l152.41 0c2.68,0 5.1,-1.09 6.85,-2.83 1.75,-1.75 2.84,-4.18 2.84,-6.86 0,-2.68 -1.09,-5.11 -2.84,-6.86 -1.75,-1.75 -4.18,-2.83 -6.85,-2.83l-40.65 0 5.97 -133.58 4.54 -1.06c7.4,-1.73 14.38,-4.83 20.57,-9.11 6.13,-4.23 11.52,-9.62 15.79,-15.98l60.22 -89.53 3.28 -2.46c6.68,-2.1 13.25,-4.37 19.68,-6.79 6.33,-2.38 12.71,-4.99 19.13,-7.82 22.72,-10.03 44.19,-22.18 64.25,-36.32 20.11,-14.17 38.82,-30.36 55.97,-48.43l2.31 -1.52c7.06,-2.63 14.38,-5.52 21.94,-8.68 7.36,-3.07 14.72,-6.32 22.06,-9.73 1.16,-0.54 2.21,-1.31 3.07,-2.26 0.85,-0.94 1.53,-2.06 1.96,-3.28 0.44,-1.24 0.61,-2.54 0.54,-3.81 -0.07,-1.28 -0.4,-2.54 -0.96,-3.69l-19.57 -40.03 5.56 -2.67c14.81,-7.13 29.56,-15.47 44.04,-25.19 14.46,-9.71 28.73,-20.85 42.6,-33.6 1.17,-1.07 2.04,-2.41 2.56,-3.87 0.54,-1.44 0.7,-3.02 0.48,-4.62 -0.23,-1.6 -0.83,-3.09 -1.73,-4.33 -0.89,-1.24 -2.1,-2.28 -3.54,-3l-0.31 -0.17c-2.54,-1.24 -16.23,-7.76 -42.44,-17.17l0.22 -11.66c23.15,-7.32 54.82,-15.9 92.11,-22.26 27.8,-4.74 58.76,-8.24 91.69,-9.05 1.5,-0.04 2.97,-0.44 4.28,-1.13 1.32,-0.7 2.47,-1.68 3.34,-2.89 0.89,-1.22 1.47,-2.63 1.7,-4.08 0.24,-1.48 0.15,-3 -0.28,-4.44 -0.27,-0.86 -3.02,-9.63 -9.17,-22.07 -6.16,-12.45 -15.69,-28.44 -29.42,-43.39l-7.47 -8.13 10.84 -2.08c12.22,-2.35 23.02,-4.04 31.96,-5.25 17.44,-2.36 27.82,-2.85 28.22,-2.87 1.54,-0.06 3.03,-0.49 4.35,-1.22 1.3,-0.72 2.45,-1.77 3.33,-3.06 0.85,-1.28 1.39,-2.73 1.57,-4.22 0.19,-1.52 0.03,-3.07 -0.49,-4.5 -0.42,-1.2 -5.33,-14.26 -17.66,-30.26 -6.48,-8.41 -14.97,-17.55 -25.85,-26.04l4.12 -10.98c12.59,0.73 23.52,1.98 32.46,3.33 17.85,2.7 28.37,5.83 28.72,5.93l0.05 0.03c2.2,0.69 4.52,0.55 6.54,-0.28 2.04,-0.82 3.79,-2.32 4.89,-4.35 1.1,-2.02 1.41,-4.32 0.99,-6.47 -0.41,-2.15 -1.55,-4.17 -3.31,-5.65zm-125.85 -75.98c78.38,21.27 130.49,63.86 133.72,66.55 4.02,3.37 6.59,7.92 7.53,12.77 0.93,4.85 0.22,10.04 -2.3,14.66 -2.52,4.63 -6.48,8.04 -11.06,9.9 -4.57,1.85 -9.78,2.17 -14.78,0.63 -0.32,-0.09 -10.04,-2.98 -26.99,-5.54 -3.97,-0.6 -8.31,-1.18 -12.98,-1.7 5.34,5.31 9.92,10.62 13.82,15.68 13.37,17.36 18.94,32.13 19.47,33.59 1.21,3.31 1.59,6.81 1.18,10.18 -0.42,3.38 -1.63,6.69 -3.6,9.61 -1.95,2.89 -4.56,5.26 -7.56,6.92 -2.98,1.66 -6.37,2.63 -9.89,2.76 -0.38,0.01 -10.1,0.48 -27.02,2.77 -6.02,0.81 -12.98,1.87 -20.76,3.22 10.9,13.43 18.81,27 24.24,38 6.57,13.28 9.6,22.95 9.89,23.91 1,3.31 1.21,6.74 0.67,10.02 -0.54,3.31 -1.86,6.5 -3.87,9.28 -2.02,2.8 -4.63,5.04 -7.58,6.6 -2.95,1.55 -6.28,2.44 -9.73,2.53 -32.14,0.79 -62.53,4.24 -89.9,8.9 -27.97,4.76 -52.76,10.82 -73.06,16.63 17.23,6.7 25.97,11 26.84,11.43l0.06 0.03c3.23,1.59 5.97,3.97 8.03,6.84 2.06,2.86 3.44,6.21 3.94,9.77 0.5,3.57 0.11,7.17 -1.08,10.49 -1.16,3.31 -3.15,6.35 -5.81,8.79 -14.29,13.13 -29.06,24.66 -44.1,34.75 -13.2,8.86 -26.58,16.6 -39.99,23.33l14.16 28.95c1.3,2.67 2.05,5.54 2.21,8.42 0.17,2.88 -0.24,5.8 -1.22,8.58 -0.99,2.79 -2.52,5.32 -4.47,7.47 -1.94,2.14 -4.32,3.9 -7.02,5.15 -7.55,3.51 -15.05,6.82 -22.49,9.93 -6.83,2.85 -13.84,5.63 -21.04,8.32 -17.48,18.28 -36.48,34.66 -56.83,49 -20.74,14.63 -42.92,27.17 -66.37,37.53 -6.43,2.84 -13.02,5.53 -19.76,8.06 -6.11,2.3 -12.21,4.43 -18.3,6.37l-59.01 87.73c-5.16,7.67 -11.64,14.17 -19.02,19.26 -6.19,4.28 -13.02,7.57 -20.22,9.76l-4.99 111.53 27.79 0c6.07,0 11.59,2.46 15.57,6.45 3.99,3.98 6.45,9.5 6.45,15.58 0,6.07 -2.46,11.59 -6.45,15.57 -3.98,3.99 -9.5,6.45 -15.57,6.45l-152.41 0c-6.06,0 -11.57,-2.47 -15.55,-6.45 -4.01,-3.98 -6.48,-9.5 -6.48,-15.57 0,-6.08 2.46,-11.59 6.45,-15.58 4.01,-3.98 9.51,-6.45 15.58,-6.45l80.56 0 4.87 -108.83c-8.98,-0.98 -17.66,-3.63 -25.56,-7.72 -9.73,-5.03 -18.36,-12.26 -25.04,-21.26l-76.57 -103.24c-29,-12.46 -56.5,-28.51 -81.73,-47.67 -25.53,-19.39 -48.7,-41.94 -68.76,-67.14 -27.4,-34.43 -48.35,-72.44 -62.46,-112.87 -14.11,-40.46 -21.37,-83.29 -21.37,-127.36l0 -1.8 -0.31 0.05c-2.92,0.48 -5.83,0.74 -8.72,0.74 -7.79,0 -15.39,-1.72 -22.32,-4.93 -6.91,-3.2 -13.14,-7.9 -18.19,-13.86 -5.04,-5.94 -8.64,-12.85 -10.67,-20.22 -2.02,-7.33 -2.46,-15.11 -1.19,-22.79l9.03 -54.26 -14.59 -2.92c-4.15,-0.83 -7.91,-2.83 -10.87,-5.67 -2.94,-2.81 -5.12,-6.45 -6.16,-10.57 -0.24,-0.89 -3.69,-15.26 0.09,-32.55 1.96,-8.98 5.87,-18.83 13.16,-28.17 7.94,-10.18 18.56,-18.12 31.73,-23.79 11.64,-5.01 25.32,-8.26 40.97,-9.72 2.19,-15.19 6.86,-37.04 16.78,-59.4 11.17,-25.17 28.98,-50.89 57.36,-68.39 2.99,-1.84 6.31,-2.93 9.68,-3.22 3.34,-0.29 6.78,0.2 10.05,1.5l20.74 8.3c8.9,-5.24 22.83,-11.57 42.02,-15 14.63,-2.61 32.38,-3.56 53.37,-1.08 3.53,0.42 6.87,1.71 9.77,3.67 2.9,1.97 5.33,4.62 7.02,7.76 1.69,3.13 2.57,6.62 2.62,10.13 0.06,3.49 -0.72,6.98 -2.3,10.16l-11.14 22.22c6.55,3.42 14.17,7.69 22.22,12.76 10.36,6.53 21.35,14.38 31.48,23.43 2.67,2.36 4.68,5.31 5.93,8.56 1.23,3.22 1.7,6.75 1.31,10.3 -0.39,3.56 -1.63,6.9 -3.55,9.78 -1.92,2.87 -4.53,5.3 -7.64,7.03l-42.6 23.67c1.48,4.69 2.65,9.49 3.51,14.37 1.15,6.52 1.75,13.2 1.75,20l0 89.35c0,13.44 2.11,25.5 6.3,36.09 4.15,10.48 10.34,19.56 18.52,27.13 7.77,7.2 17.39,13.09 28.54,17.52 11.29,4.49 24.15,7.49 38.24,8.85 21.76,2.12 42.22,4.35 61.43,6.67 18.07,2.18 35.58,4.49 52.52,6.9 41.16,-66.19 86,-118.55 134.15,-156.8 49.23,-39.11 101.93,-63.47 157.75,-72.81 51.71,-8.65 99.35,-3.28 139.88,7.72zm-855.32 159.2c0,5.89 -2.4,11.24 -6.26,15.11 -3.87,3.86 -9.22,6.26 -15.11,6.26 -3.49,0 -6.48,-0.81 -8.95,-1.95 -3.52,-1.63 -5.95,-3.96 -7.35,-5.62 -1.4,-1.65 -3.29,-4.41 -4.32,-8.16 -0.72,-2.62 -1.02,-5.7 -0.45,-9.15l10.9 -65.39 31.54 6.31c0,20.86 -0.06,41.73 0.01,62.59zm-14.98 6.39c1.53,-1.53 2.52,-3.62 2.64,-5.93l0 -52.96 -9.15 -1.83 -8.81 52.83c-0.25,1.5 -0.13,2.79 0.17,3.86 0.43,1.57 1.26,2.77 1.86,3.48 0.6,0.71 1.64,1.71 3.11,2.39 1,0.47 2.26,0.8 3.8,0.8 2.49,0 4.76,-1.02 6.39,-2.65zm14.99 -130.04l-0.01 41.28 -66.62 -13.32 0.35 -5.37c0.23,-3.57 0.93,-7.74 2.55,-12.09 1.31,-3.52 3.2,-7.1 5.9,-10.48 4.87,-6.11 11.87,-10.97 20.77,-14.54 8.53,-3.41 18.85,-5.66 30.76,-6.69l7.24 -0.62 -0.85 11.46 -0.08 4.21 -0 6.17zm-12.34 26.24l0 -34.36c-7.74,1.07 -14.48,2.76 -20.15,5.03 -6.9,2.76 -12.19,6.37 -15.7,10.77 -1.86,2.33 -3.15,4.76 -4.03,7.11 -0.41,1.1 -0.73,2.2 -0.99,3.28l40.87 8.17zm93.04 -175.37l22.76 9.1c1.87,0.75 3.81,0.95 5.6,0.61 1.67,-0.31 3.26,-1.14 4.56,-2.46l0.31 -0.29c0.92,-0.81 6.14,-5.16 15.85,-9.24 9.38,-3.94 23.26,-7.82 42.1,-8.26l10.18 -0.23 -14.89 29.77c-0.59,1.24 -0.94,2.56 -1.01,3.86 -0.06,1.33 0.13,2.67 0.61,3.93 0.48,1.26 1.21,2.41 2.14,3.36 0.91,0.94 2.03,1.7 3.27,2.19 0.35,0.13 23.76,9.73 47.35,26.04l8.14 5.63 -39.23 21.8 -3.22 -4.3c-9.57,-12.82 -22.04,-23.33 -36.39,-30.54 -13.81,-6.94 -29.45,-10.85 -46.01,-10.85 -10.73,0 -21.06,1.65 -30.75,4.69 -10.08,3.17 -19.48,7.84 -27.93,13.73l-9.16 -7.47c4,-9.21 9.03,-18.48 15.33,-27.13 6.37,-8.75 14.02,-16.87 23.23,-23.67l4.28 -3.16 2.87 2.88zm18.19 20.52l-20.73 -8.29c-6.99,5.58 -12.91,12.04 -17.93,18.94 -1.61,2.2 -3.12,4.46 -4.56,6.76 4.13,-1.87 8.38,-3.49 12.74,-4.86 10.89,-3.42 22.45,-5.27 34.41,-5.27 18.46,0 35.96,4.39 51.5,12.2 14.5,7.28 27.26,17.52 37.46,29.91l12.41 -6.9c-19.27,-12.12 -36.34,-19.12 -36.61,-19.23 -2.84,-1.15 -5.39,-2.89 -7.49,-5.04 -2.09,-2.14 -3.75,-4.73 -4.83,-7.6 -1.08,-2.87 -1.54,-5.91 -1.38,-8.89 0.15,-3.02 0.93,-6 2.28,-8.72l5.59 -11.12c-11.74,1.22 -20.72,3.91 -27.2,6.64 -7.41,3.11 -11.3,6.14 -12.34,7.02 -3.09,3.06 -6.84,4.98 -10.83,5.75 -4.06,0.78 -8.37,0.35 -12.48,-1.28zm785.22 334.68l-0.36 0.02c-52.27,3.21 -98.56,12.46 -134.3,21.93 -35.83,9.49 -60.96,19.17 -70.92,23.25l-4.09 0.22 -8.56 -2.54c-11.37,-3.25 -22.74,-6.37 -34.15,-9.5l11.43 -7.47c32.32,-21.13 64.7,-38 95.59,-51.44 38.29,-16.67 74.23,-28.07 104.87,-35.84l2.95 -0.74 2.4 1.92c8.65,6.96 16,14.77 22.13,22.59 7.93,10.13 13.89,20.29 18.14,28.69l-5.31 2.68 0.18 6.24zm-137.8 10.04c34.25,-9.07 78.04,-17.95 127.47,-21.68 -3.37,-5.83 -7.46,-12.13 -12.36,-18.37 -5.07,-6.45 -10.99,-12.87 -17.81,-18.66 -29.45,7.61 -63.65,18.59 -99.95,34.4 -26.57,11.56 -54.3,25.74 -82.18,43.09l14.41 4.18c11.37,-4.57 36.19,-13.89 70.41,-22.96zm170 -105.18c-31.86,3.78 -91.38,14.07 -161.23,41.54 -45.83,18.02 -96.08,43.43 -145.83,79.21l-2.28 1.64 -2.72 -0.65c-19.04,-4.57 -40.72,-9.37 -65.22,-14.25 -24.33,-4.85 -50.75,-9.64 -79.14,-14.16l-9.25 -1.47 5.04 -7.9c38.39,-60.14 79.76,-107.59 123.82,-142.1 44.32,-34.71 91.36,-56.37 140.84,-64.7 31.97,-5.39 62.46,-4.69 90.41,-0.41 35.4,5.41 66.8,16.55 92.07,28.24l-2.74 11.73c-25.75,-0.74 -56.59,0.91 -90.53,7.74 -33.95,6.84 -71.05,18.87 -109.32,38.87 -2.36,1.23 -4.01,3.32 -4.75,5.7 -0.74,2.38 -0.59,5.03 0.63,7.39l0.02 0.04c1.23,2.36 3.32,4 5.69,4.74 2.36,0.74 5.02,0.57 7.39,-0.66 23.74,-12.39 47.07,-21.54 69.4,-28.18 22.38,-6.66 43.79,-10.81 63.63,-13.22l2.17 0.15c17.37,4.24 31.61,11.03 43.17,18.76 15.44,10.34 26.09,22.38 33.05,32.32l2.96 4.24 -3.64 3.64 -3.64 1.76zm-165.71 30.07c63.95,-25.15 119.43,-36.15 153.58,-40.92 -5.88,-6.92 -13.57,-14.29 -23.44,-20.89 -10.22,-6.85 -22.8,-12.88 -38.1,-16.75 -18.96,2.35 -39.34,6.34 -60.56,12.65 -21.58,6.41 -44.08,15.23 -66.92,27.15l-0.26 0.17c-5.37,2.79 -11.37,3.16 -16.74,1.48 -5.33,-1.66 -10.05,-5.37 -12.87,-10.72l-0.06 -0.11c-2.82,-5.4 -3.19,-11.42 -1.51,-16.77 1.69,-5.37 5.43,-10.1 10.82,-12.92 39.39,-20.59 77.61,-32.97 112.6,-40.02 22.43,-4.52 43.53,-6.83 62.77,-7.72 -18.34,-6.68 -38.86,-12.39 -61,-15.77 -26.82,-4.1 -56.02,-4.79 -86.56,0.37 -47.43,7.99 -92.63,28.82 -135.29,62.25 -41.04,32.14 -79.77,75.93 -115.95,131.15 25.56,4.17 48.96,8.45 70.32,12.71 22.68,4.52 43.7,9.17 62.94,13.75 49.99,-35.64 100.31,-61.02 146.23,-79.07z"/>
  <path class="fil4" d="M1588.55 929.41c-53.26,6.33 -183.04,30.62 -309.92,121.88 -39.01,-9.36 -87.22,-19.34 -144.82,-28.51 76,-119.05 163.56,-187.69 260.49,-204.03 70.94,-11.96 134.51,6.81 178.9,27.35 -52.26,-1.5 -125.18,6.72 -202.86,47.31 -7.76,4.06 -10.76,13.64 -6.71,21.41 4.06,7.78 13.65,10.76 21.4,6.71 46.66,-24.39 91.78,-36 130.9,-40.73 38.73,9.45 61.05,32.09 72.63,48.63l-0 0z"/>
  <path class="fil4" d="M1405.02 1122.66c-79.82,62.96 -171.35,75.5 -236.28,74.26 -8.68,-0.2 -15.98,6.8 -16.15,15.57 -0.15,8.76 6.81,15.99 15.57,16.15 45.09,0.82 102.07,-4.48 160.1,-26.55l10.33 21.13c-68.81,29.82 -135.39,43.12 -198.13,39.54 -53.48,-3.05 -104.47,-18.32 -151.56,-45.37 -80.66,-46.35 -122.74,-112.2 -123.45,-113.35 -4.64,-7.43 -14.41,-9.7 -21.85,-5.07 -7.44,4.63 -9.7,14.41 -5.08,21.85 1.83,2.95 45.96,72.74 133.32,123.35 51.47,29.83 107.28,46.72 165.88,50.2 7.57,0.44 15.19,0.67 22.86,0.67 29.22,0 59.09,-3.29 89.46,-9.8 -58.71,42.47 -128.95,65.35 -203.29,65.35 -5.74,0 -11.55,-0.14 -17.26,-0.42 -8.74,-0.42 -16.19,6.32 -16.61,15.06 -0.43,8.75 6.32,16.19 15.07,16.61 6.21,0.3 12.55,0.45 18.8,0.45 23.06,0 45.77,-2.03 68.05,-6.06l-40.7 60.51c-6.5,9.67 -17.34,15.44 -29,15.44l-15.11 0c-11.02,0 -21.5,-5.28 -28.06,-14.13l-50.27 -67.78c1.59,0.4 3.17,0.83 4.76,1.22 1.26,0.31 2.52,0.45 3.77,0.45 7.14,0 13.63,-4.86 15.39,-12.1 2.08,-8.51 -3.14,-17.09 -11.65,-19.16 -74.43,-18.16 -141.85,-61.37 -189.84,-121.7 -49.44,-62.14 -75.57,-137.06 -75.57,-216.64l0 -183.92c0,-42.61 34.67,-77.28 77.28,-77.28 42.61,0 77.28,34.67 77.28,77.28l0 89.35c0,72.04 47.04,119.62 125.83,127.29 239.86,23.35 375.74,68.01 426.11,87.59l0.01 0.01z"/>
  <circle class="fil1" cx="750.43" cy="809.97" r="15.86"/>
  <path class="fil1" d="M1096.99 1189.93c-16.52,-2.97 -26.39,-5.83 -26.72,-5.93 -8.39,-2.48 -17.21,2.32 -19.7,10.72 -2.48,8.4 2.31,17.23 10.71,19.71 0.46,0.14 11.48,3.37 30.07,6.72 0.95,0.17 1.89,0.25 2.83,0.25 7.52,0 14.2,-5.38 15.59,-13.05 1.56,-8.63 -4.17,-16.87 -12.8,-18.43l0 0z"/>
  <path class="fil5" d="M1014.58 1090.92c0,6.65 -5.41,12.05 -12.05,12.05 -4.86,0 -7.85,-2.68 -9.2,-4.26 -1.35,-1.59 -3.49,-4.98 -2.69,-9.77l7.81 -46.85 16.13 3.23 0 45.61 -0 0z"/>
  <path class="fil4" d="M1556.71 1024.51c-105.77,6.43 -187.36,37.38 -207.56,45.65 -5.61,-1.68 -11.46,-3.38 -17.61,-5.12 -3.85,-1.09 -7.89,-2.2 -12.06,-3.33 71.78,-46.93 143.71,-72.55 198.58,-86.46 18.91,15.2 31.35,34.85 38.63,49.26l0 -0z"/>
  <path class="fil4" d="M750.17 680.69l23.96 9.58c5.91,2.36 12.34,1.3 16.81,-3.22 1.61,-1.41 18.21,-15.15 54.02,-15.98l-10.33 20.66c-1.98,3.96 -2.21,8.56 -0.66,12.69 1.56,4.14 4.78,7.44 8.88,9.09 0.29,0.12 23.13,9.47 46.15,25.39l-25.88 14.38c-19.89,-26.61 -51.64,-43.87 -87.35,-43.87 -23.11,0 -44.54,7.24 -62.2,19.56 7.68,-17.67 19.2,-35.46 36.58,-48.3l0.01 0.01z"/>
  <path class="fil4" d="M666.79 818.43l0 39.92 -53.96 -10.8c0.36,-5.55 2,-12.7 7.12,-19.12 8.41,-10.53 24.59,-16.96 47.24,-18.91 -0.23,2.94 -0.39,5.91 -0.39,8.9l-0.01 0z"/>
  <path class="fil4" d="M666.79 948.25c0,8.39 -6.82,15.21 -15.21,15.21 -6.13,0 -9.91,-3.37 -11.61,-5.38 -1.7,-2 -4.4,-6.28 -3.4,-12.33l9.85 -59.12 20.35 4.07 0 57.54 0.01 0z"/>
  <g id="clock.svg">
   <g>
    <circle class="fil5" cx="1182.06" cy="474.75" r="29.28"/>
    <path class="fil5" d="M1182.06 37.3c-242.19,0 -439.22,197.04 -439.22,439.22 0,242.19 197.04,439.22 439.22,439.22 242.19,0 439.22,-197.04 439.22,-439.22 0,-242.19 -197.04,-439.22 -439.22,-439.22zm-14.64 115.35c0,-8.09 6.56,-14.64 14.64,-14.64 8.08,0 14.64,6.55 14.64,14.64l0 14.64c0,8.09 -6.56,14.64 -14.64,14.64 -8.08,0 -14.64,-6.55 -14.64,-14.64l0 -14.64zm-292.81 336.74l-14.64 0c-8.08,0 -14.64,-6.55 -14.64,-14.64 0,-8.09 6.56,-14.64 14.64,-14.64l14.64 0c8.08,0 14.64,6.55 14.64,14.64 0,8.09 -6.56,14.64 -14.64,14.64zm100.41 213.12l-10.35 10.35c-2.86,2.85 -6.6,4.29 -10.35,4.29 -3.75,0 -7.5,-1.43 -10.35,-4.29 -5.72,-5.73 -5.72,-14.98 0,-20.7l10.35 -10.35c5.72,-5.72 14.98,-5.72 20.7,0 5.72,5.72 5.72,14.98 0,20.7zm0 -434.83c-2.86,2.85 -6.6,4.29 -10.35,4.29 -3.75,0 -7.5,-1.44 -10.35,-4.29l-10.35 -10.35c-5.72,-5.72 -5.72,-14.98 0,-20.7 5.72,-5.72 14.98,-5.72 20.7,0l10.35 10.35c5.72,5.72 5.72,14.99 0,20.7zm221.69 529.16c0,8.1 -6.56,14.64 -14.64,14.64 -8.08,0 -14.64,-6.54 -14.64,-14.64l0 -14.64c0,-8.09 6.56,-14.64 14.64,-14.64 8.08,0 14.64,6.54 14.64,14.64l0 14.64zm-14.64 -263.53c-27.2,0 -49.94,-18.74 -56.48,-43.93l-104.56 0c-8.08,0 -14.64,-6.55 -14.64,-14.64 0,-8.09 6.56,-14.64 14.64,-14.64l104.56 0c5.33,-20.48 21.36,-36.51 41.84,-41.84l0 -148.48c0,-8.09 6.56,-14.64 14.64,-14.64 8.08,0 14.64,6.55 14.64,14.64l0 148.49c25.18,6.54 43.92,29.27 43.92,56.48 0,32.3 -26.27,58.56 -58.56,58.56zm238.1 179.56c-2.85,2.85 -6.6,4.29 -10.35,4.29 -3.75,0 -7.5,-1.43 -10.35,-4.29l-10.35 -10.35c-5.72,-5.72 -5.72,-14.98 0,-20.7 5.72,-5.72 14.98,-5.72 20.7,0l10.35 10.35c5.72,5.71 5.72,14.98 0,20.7zm0 -455.53l-10.35 10.35c-2.86,2.85 -6.6,4.29 -10.35,4.29 -3.75,0 -7.49,-1.44 -10.35,-4.29 -5.72,-5.72 -5.72,-14.98 0,-20.7l10.35 -10.35c5.73,-5.72 14.98,-5.72 20.7,0 5.72,5.72 5.72,14.99 0,20.7zm83.99 232.06l-14.64 0c-8.08,0 -14.64,-6.55 -14.64,-14.64 0,-8.09 6.56,-14.64 14.64,-14.64l14.64 0c8.08,0 14.64,6.55 14.64,14.64 0,8.09 -6.56,14.64 -14.64,14.64z"/>
   </g>
   <g>
   </g>
   <g>
   </g>
   <g>
   </g>
   <g>
   </g>
   <g>
   </g>
   <g>
   </g>
   <g>
   </g>
   <g>
   </g>
   <g>
   </g>
   <g>
   </g>
   <g>
   </g>
   <g>
   </g>
   <g>
   </g>
   <g>
   </g>
   <g>
   </g>
  </g>
 </g>
</svg>
