<?xml version="1.0" encoding="UTF-8"?>
<!DOCTYPE svg PUBLIC "-//W3C//DTD SVG 1.1//EN" "http://www.w3.org/Graphics/SVG/1.1/DTD/svg11.dtd">
<!-- Creator: CorelDRAW 2017 -->
<svg xmlns="http://www.w3.org/2000/svg" xml:space="preserve" width="0.0799961in" height="0.0799961in" version="1.1" style="shape-rendering:geometricPrecision; text-rendering:geometricPrecision; image-rendering:optimizeQuality; fill-rule:evenodd; clip-rule:evenodd"
viewBox="0 0 80 80"
 xmlns:xlink="http://www.w3.org/1999/xlink">
 <defs>
  <style type="text/css">
   <![CDATA[
    .fil0 {fill:none}
    .fil1 {fill:white}
   ]]>
  </style>
 </defs>
 <g id="Layer_x0020_1">
  <metadata id="CorelCorpID_0Corel-Layer"/>
  <rect class="fil0" x="-0" y="-0" width="80" height="80"/>
  <path class="fil1" d="M73.19 71.12c0,1.15 -0.93,2.07 -2.07,2.07l-62.24 0c-1.15,0 -2.07,-0.93 -2.07,-2.07l0 -62.24c0,-1.15 0.93,-2.07 2.07,-2.07 1.15,0 2.07,0.93 2.07,2.07l0 10.37 2.07 0c1.15,0 2.07,0.93 2.07,2.07 0,1.15 -0.93,2.07 -2.07,2.07l-2.07 0 0 8.3 2.07 0c1.15,0 2.07,0.93 2.07,2.07 0,1.15 -0.93,2.07 -2.07,2.07l-2.07 0 0 8.3 2.07 0c1.15,0 2.07,0.93 2.07,2.07 0,1.15 -0.93,2.07 -2.07,2.07l-2.07 0 0 8.3 2.07 0c1.15,0 2.07,0.93 2.07,2.07 0,1.15 -0.93,2.07 -2.07,2.07l-2.07 0 0 8.3 60.16 0c1.15,0 2.07,0.93 2.07,2.07zm-49.79 -6.22c2.29,0 4.15,-1.85 4.15,-4.15l0 -12.45c0,-2.3 -1.86,-4.15 -4.15,-4.15 -2.29,0 -4.15,1.85 -4.15,4.15l0 12.45c0,2.3 1.85,4.15 4.15,4.15zm12.45 0c2.29,0 4.15,-1.85 4.15,-4.15l0 -24.89c0,-2.29 -1.86,-4.15 -4.15,-4.15 -2.29,0 -4.15,1.86 -4.15,4.15l0 24.89c0,2.3 1.86,4.15 4.15,4.15zm12.45 0c2.29,0 4.15,-1.85 4.15,-4.15l0 -33.19c0,-2.29 -1.86,-4.15 -4.15,-4.15 -2.3,0 -4.15,1.86 -4.15,4.15l0 33.19c0,2.3 1.85,4.15 4.15,4.15zm12.45 0c2.3,0 4.15,-1.85 4.15,-4.15l0 -41.49c0,-2.3 -1.85,-4.15 -4.15,-4.15 -2.29,0 -4.15,1.85 -4.15,4.15l0 41.49c0,2.3 1.86,4.15 4.15,4.15z"/>
 </g>
</svg>
