<?xml version="1.0" encoding="UTF-8"?>
<!DOCTYPE svg PUBLIC "-//W3C//DTD SVG 1.1//EN" "http://www.w3.org/Graphics/SVG/1.1/DTD/svg11.dtd">
<!-- Creator: CorelDRAW 2017 -->
<svg xmlns="http://www.w3.org/2000/svg" xml:space="preserve" width="0.0799961in" height="0.0799961in" version="1.1" style="shape-rendering:geometricPrecision; text-rendering:geometricPrecision; image-rendering:optimizeQuality; fill-rule:evenodd; clip-rule:evenodd"
viewBox="0 0 80 80"
 xmlns:xlink="http://www.w3.org/1999/xlink">
 <defs>
  <style type="text/css">
   <![CDATA[
    .fil0 {fill:none}
    .fil1 {fill:white}
   ]]>
  </style>
 </defs>
 <g id="Layer_x0020_1">
  <metadata id="CorelCorpID_0Corel-Layer"/>
  <rect class="fil0" x="-0" y="-0" width="80" height="80"/>
  <g id="_127591703200">
   <path class="fil1" d="M58.81 36.53l-37.49 0c-0.53,0 -0.96,0.43 -0.96,0.95 0,0.53 0.43,0.95 0.96,0.95l37.49 0c0.53,0 0.96,-0.43 0.96,-0.95 0,-0.53 -0.43,-0.95 -0.96,-0.95z"/>
  </g>
  <g id="_127591704416">
   <path class="fil1" d="M39.05 46.38l-17.74 0c-0.53,0 -0.96,0.43 -0.96,0.95 0,0.53 0.43,0.95 0.96,0.95l17.74 0c0.53,0 0.96,-0.43 0.96,-0.95 0,-0.53 -0.43,-0.95 -0.96,-0.95z"/>
  </g>
  <g id="_127591702720">
   <path class="fil1" d="M42.94 66.07l-21.62 0c-0.53,0 -0.96,0.43 -0.96,0.96 0,0.53 0.43,0.95 0.96,0.95l21.62 0c0.53,0 0.95,-0.43 0.95,-0.95 0,-0.53 -0.43,-0.96 -0.95,-0.96z"/>
  </g>
  <g id="_127591709856">
   <path class="fil1" d="M40.35 21.25l-9.18 -8.62c-0.42,-0.4 -1.08,-0.4 -1.5,0l-9.18 8.62c-0.44,0.41 -0.46,1.11 -0.05,1.55 0.41,0.44 1.11,0.46 1.55,0.05l8.43 -7.92 8.43 7.92c0.21,0.2 0.48,0.3 0.75,0.3 0.29,0 0.59,-0.12 0.8,-0.35 0.42,-0.44 0.39,-1.14 -0.05,-1.55z"/>
  </g>
  <g id="_127591711648">
   <path class="fil1" d="M37.1 22.73l-5.48 -5.15c-0.68,-0.64 -1.74,-0.64 -2.42,0l-5.48 5.15c-0.35,0.33 -0.56,0.8 -0.56,1.29l0 7.48c0,0.98 0.8,1.77 1.77,1.77l10.96 0c0.97,0 1.77,-0.8 1.77,-1.77l0 -7.48c0,-0.48 -0.2,-0.96 -0.56,-1.29zm-5.9 8.4l-1.57 0 0 -3.71 1.57 0 0 3.71zm4.32 0l-2.18 0 0 -4.39c0,-0.8 -0.65,-1.46 -1.46,-1.46l-2.93 0c-0.81,0 -1.46,0.66 -1.46,1.46l0 4.39 -2.18 0 0 -6.95 0 0 5.1 -4.8 5.11 4.8 0 6.95z"/>
  </g>
  <g id="_127591711904">
   <path class="fil1" d="M64.85 33.67c-0.53,0 -0.95,0.43 -0.95,0.96l0 36.92c0,0.04 -0.04,0.07 -0.07,0.07l-47.65 0c-0.04,0 -0.07,-0.03 -0.07,-0.07l0 -63.09c0,-0.04 0.04,-0.07 0.07,-0.07l32.49 0 0 13.22c0,1.11 0.9,2.02 2.02,2.02l13.22 0 0 5.01c0,0.53 0.43,0.96 0.95,0.96 0.53,0 0.95,-0.43 0.95,-0.96l0 -5.97c0,-0.01 0,-0.02 0,-0.03 0,-0.01 0,-0.02 0,-0.03 -0,-0.04 -0.01,-0.08 -0.02,-0.12 0,0 0,0 0,0 -0.01,-0.04 -0.02,-0.08 -0.04,-0.12 0,-0.01 -0,-0.02 -0.01,-0.03 -0.02,-0.04 -0.03,-0.07 -0.05,-0.11 -0,-0 -0,-0 -0,-0.01 -0.02,-0.04 -0.04,-0.07 -0.07,-0.1 -0,-0.01 -0.01,-0.02 -0.02,-0.03 -0.02,-0.03 -0.05,-0.06 -0.08,-0.09l-15.24 -15.24c-0.03,-0.03 -0.06,-0.06 -0.09,-0.08 -0.01,-0.01 -0.02,-0.01 -0.03,-0.02 -0.03,-0.02 -0.07,-0.05 -0.1,-0.07 -0,0 -0,0 -0.01,-0 -0.04,-0.02 -0.07,-0.03 -0.11,-0.04 -0.01,-0 -0.02,-0.01 -0.03,-0.01 -0.04,-0.02 -0.07,-0.02 -0.12,-0.03 0,-0 0,-0 -0,-0 -0.04,-0 -0.07,-0.01 -0.12,-0.01 -0.01,-0 -0.02,-0 -0.03,-0 -0.01,0 -0.02,0 -0.03,0l-33.44 0c-1.09,0 -1.98,0.89 -1.98,1.98l0 63.09c0,1.09 0.89,1.98 1.98,1.98l47.65 0c1.09,0 1.98,-0.89 1.98,-1.98l0 -36.92c0,-0.53 -0.43,-0.96 -0.95,-0.96zm-14.28 -23.94l11.98 11.98 -11.87 0c-0.06,0 -0.11,-0.05 -0.11,-0.11l0 -11.87z"/>
  </g>
  <g id="_127591710912">
   <path class="fil1" d="M60.93 52.18c-0.21,-0.22 -0.21,-0.57 0,-0.79 0.57,-0.59 0.79,-1.42 0.57,-2.21 -0.21,-0.8 -0.82,-1.41 -1.6,-1.63 -0.3,-0.08 -0.47,-0.39 -0.4,-0.69 0.2,-0.8 -0.03,-1.62 -0.61,-2.2 -0.58,-0.58 -1.41,-0.81 -2.2,-0.61 -0.3,0.08 -0.6,-0.1 -0.69,-0.39 -0.23,-0.79 -0.83,-1.39 -1.63,-1.6 -0.8,-0.21 -1.62,0 -2.21,0.57 -0.22,0.22 -0.57,0.22 -0.79,0 -0.59,-0.57 -1.42,-0.78 -2.22,-0.57 -0.79,0.21 -1.4,0.81 -1.63,1.6 -0.08,0.3 -0.39,0.47 -0.69,0.39 -0.8,-0.2 -1.62,0.03 -2.2,0.61 -0.58,0.58 -0.81,1.41 -0.61,2.2 0.07,0.3 -0.1,0.6 -0.39,0.69 -0.79,0.23 -1.39,0.84 -1.6,1.63 -0.21,0.79 0,1.62 0.57,2.21 0.21,0.22 0.21,0.57 0,0.79 -0.57,0.59 -0.78,1.42 -0.57,2.21 0.21,0.8 0.81,1.41 1.6,1.63 0.3,0.09 0.47,0.39 0.39,0.69 -0.2,0.8 0.03,1.62 0.61,2.2 0.58,0.58 1.41,0.81 2.2,0.61 0.08,-0.02 0.17,-0.02 0.24,-0l0 7.61c0,0.4 0.22,0.75 0.58,0.93 0.15,0.07 0.3,0.11 0.45,0.11 0.23,0 0.45,-0.07 0.64,-0.22l3.01 -2.36 3.02 2.36c0.31,0.24 0.73,0.29 1.09,0.11 0.36,-0.17 0.58,-0.53 0.58,-0.93l0 -7.61c0.08,-0.02 0.16,-0.02 0.24,0 0.8,0.2 1.62,-0.03 2.2,-0.61 0.58,-0.58 0.81,-1.41 0.61,-2.2 -0.07,-0.3 0.1,-0.6 0.4,-0.69 0.79,-0.22 1.39,-0.83 1.6,-1.63 0.21,-0.8 -0,-1.62 -0.57,-2.21zm-9.17 11.45c-0.22,0 -0.45,0.07 -0.63,0.22l-2.3 1.8 0 -4.23c0,0 0.01,0 0.01,0 0.04,0.02 0.07,0.03 0.11,0.04 0.02,0.01 0.03,0.01 0.05,0.02 0.05,0.02 0.1,0.03 0.15,0.05 0.01,0 0.02,0 0.03,0.01 0.04,0.01 0.08,0.02 0.12,0.03 0.01,0 0.02,0 0.04,0 0.04,0.01 0.07,0.02 0.11,0.02 0.02,0 0.03,0 0.05,0 0.04,0 0.07,0.01 0.1,0.01 0.02,0 0.04,0 0.06,0 0.03,0 0.07,0 0.1,0 0,0 0,0 0,0 0,0 0.01,0 0.01,0 0.06,0 0.12,-0 0.19,-0.01 0.02,0 0.03,-0 0.04,-0 0.07,-0.01 0.13,-0.02 0.2,-0.03 0,0 0,-0 0.01,-0 0.06,-0.01 0.12,-0.03 0.18,-0.04 0.02,-0 0.03,-0.01 0.05,-0.01 0.06,-0.02 0.12,-0.04 0.19,-0.07 0,0 0,0 0,-0 0.06,-0.02 0.12,-0.05 0.17,-0.08 0.02,-0.01 0.03,-0.01 0.04,-0.02 0.06,-0.03 0.11,-0.07 0.17,-0.1 0,0 0,0 0,0 0.05,-0.04 0.11,-0.07 0.16,-0.11 0.01,-0.01 0.02,-0.02 0.04,-0.03 0.05,-0.04 0.1,-0.09 0.15,-0.13 0.22,-0.22 0.57,-0.22 0.79,0 0.04,0.04 0.08,0.07 0.13,0.11 0.56,0.46 1.28,0.64 1.98,0.48 0.04,-0.01 0.07,-0.02 0.11,-0.02 0,0 0,0 0.01,-0 0.05,-0.01 0.1,-0.03 0.15,-0.04 0.02,-0.01 0.04,-0.01 0.05,-0.02 0.04,-0.01 0.07,-0.02 0.1,-0.04 0,0 0.01,-0 0.02,-0l0 4.23 -2.3 -1.8c-0.19,-0.15 -0.41,-0.22 -0.64,-0.22zm7.91 -10.23c0.2,0.21 0.17,0.45 0.14,0.54 -0.02,0.09 -0.11,0.32 -0.39,0.4 -1.21,0.35 -1.92,1.57 -1.61,2.79 0.07,0.28 -0.08,0.47 -0.15,0.54 -0.07,0.07 -0.26,0.22 -0.54,0.15 -1.09,-0.27 -2.19,0.27 -2.65,1.25 -0.02,0.04 -0.03,0.07 -0.05,0.11 -0.01,0.02 -0.02,0.04 -0.03,0.07 -0.02,0.06 -0.05,0.13 -0.07,0.19 -0.02,0.08 -0.06,0.15 -0.1,0.2 -0.07,0.08 -0.15,0.13 -0.21,0.17 -0.04,0.02 -0.07,0.03 -0.09,0.03 -0.04,0.01 -0.12,0.02 -0.2,0.02 -0.1,-0.01 -0.22,-0.05 -0.34,-0.16 -0.91,-0.87 -2.32,-0.87 -3.22,0 -0.02,0.02 -0.05,0.04 -0.07,0.06 -0,0 -0.01,0.01 -0.02,0.01 -0,0 -0.01,0 -0.01,0.01 -0.04,0.03 -0.08,0.04 -0.12,0.06 -0.07,0.02 -0.15,0.03 -0.21,0.03 -0.05,-0 -0.09,-0.01 -0.12,-0.02 -0.09,-0.02 -0.32,-0.11 -0.4,-0.39 -0.02,-0.06 -0.04,-0.11 -0.06,-0.17 -0.01,-0.03 -0.02,-0.05 -0.03,-0.07 -0.01,-0.03 -0.02,-0.06 -0.03,-0.08 -0.02,-0.04 -0.04,-0.07 -0.05,-0.11 -0.01,-0.01 -0.01,-0.02 -0.02,-0.03 -0.4,-0.76 -1.19,-1.23 -2.04,-1.23 -0.19,0 -0.38,0.02 -0.57,0.07 -0.28,0.07 -0.47,-0.08 -0.54,-0.15 -0.07,-0.07 -0.22,-0.26 -0.15,-0.54 0.3,-1.22 -0.41,-2.45 -1.61,-2.79 -0.28,-0.08 -0.37,-0.31 -0.39,-0.4 -0.02,-0.09 -0.06,-0.33 0.14,-0.54 0.87,-0.91 0.87,-2.32 0,-3.22 -0.2,-0.21 -0.17,-0.45 -0.14,-0.54 0.03,-0.09 0.11,-0.32 0.39,-0.4 1.21,-0.35 1.92,-1.57 1.61,-2.79 -0.07,-0.28 0.08,-0.47 0.15,-0.54 0.07,-0.07 0.26,-0.22 0.54,-0.15 1.22,0.3 2.45,-0.41 2.8,-1.61 0.08,-0.28 0.31,-0.37 0.4,-0.39 0.09,-0.03 0.33,-0.06 0.54,0.14 0.91,0.87 2.32,0.87 3.23,0 0.21,-0.2 0.45,-0.17 0.54,-0.14 0.09,0.02 0.32,0.11 0.4,0.39 0.35,1.21 1.57,1.92 2.8,1.61 0.28,-0.07 0.47,0.08 0.54,0.15 0.07,0.07 0.22,0.26 0.15,0.54 -0.3,1.22 0.41,2.45 1.61,2.79 0.28,0.08 0.37,0.31 0.39,0.4 0.02,0.09 0.06,0.33 -0.14,0.54 -0.87,0.9 -0.87,2.32 0,3.22z"/>
  </g>
  <g id="_127591713440">
   <path class="fil1" d="M56.03 47.53c-2.35,-2.35 -6.18,-2.35 -8.52,0 -2.35,2.35 -2.35,6.17 0,8.52 1.17,1.17 2.72,1.76 4.26,1.76 1.54,0 3.09,-0.59 4.26,-1.76 0,0 0,0 0,0 2.35,-2.35 2.35,-6.17 0,-8.52zm-1.24 7.28c-1.67,1.67 -4.38,1.67 -6.05,0 -1.67,-1.67 -1.67,-4.38 0,-6.04 0.83,-0.83 1.93,-1.25 3.02,-1.25 1.09,0 2.19,0.42 3.02,1.25 1.67,1.67 1.67,4.38 0,6.04z"/>
  </g>
  <g id="_127591714848">
   <path class="fil1" d="M39.17 56.22l-8.79 0c-0.53,0 -0.96,0.43 -0.96,0.96 0,0.53 0.43,0.95 0.96,0.95l8.79 0c0.53,0 0.95,-0.43 0.95,-0.95 0,-0.53 -0.43,-0.96 -0.95,-0.96z"/>
  </g>
  <g id="_127591716128">
   <path class="fil1" d="M24.45 56.22l-3.06 0c-0.53,0 -0.96,0.43 -0.96,0.96 0,0.53 0.43,0.95 0.96,0.95l3.06 0c0.53,0 0.95,-0.43 0.95,-0.95 0,-0.53 -0.43,-0.96 -0.95,-0.96z"/>
  </g>
 </g>
</svg>
