<?xml version="1.0" encoding="UTF-8"?>
<!DOCTYPE svg PUBLIC "-//W3C//DTD SVG 1.1//EN" "http://www.w3.org/Graphics/SVG/1.1/DTD/svg11.dtd">
<!-- Creator: CorelDRAW 2017 -->
<svg xmlns="http://www.w3.org/2000/svg" xml:space="preserve" width="1.70666in" height="1.70666in" version="1.1" style="shape-rendering:geometricPrecision; text-rendering:geometricPrecision; image-rendering:optimizeQuality; fill-rule:evenodd; clip-rule:evenodd"
viewBox="0 0 1707 1707"
 xmlns:xlink="http://www.w3.org/1999/xlink">
 <defs>
  <style type="text/css">
   <![CDATA[
    .fil0 {fill:none}
    .fil1 {fill:#FE6700}
   ]]>
  </style>
 </defs>
 <g id="Layer_x0020_1">
  <metadata id="CorelCorpID_0Corel-Layer"/>
  <rect class="fil0" width="1707" height="1707"/>
  <g id="add-to-cart.svg">
   <g>
    <g>
     <path class="fil1" d="M1574 768c-16,-20 -41,-31 -66,-31l-967 0 -9 -49c-6,-31 -29,-56 -59,-66l-247 -77c-45,-14 -93,11 -108,57 -14,45 11,93 57,108l198 61 151 662c5,28 24,51 48,62 -1,6 -1,12 -1,18 0,80 65,146 146,146 80,0 146,-65 146,-146 0,-3 0,-7 0,-10l230 0c0,3 0,7 0,10 0,80 65,146 146,146 80,0 146,-65 146,-146 0,-4 0,-7 0,-11 37,-4 67,-32 74,-69l137 -594c5,-25 -2,-51 -18,-71zm-858 816c-39,0 -71,-32 -71,-71 0,-39 32,-71 71,-71 39,0 71,32 71,71 0,39 -32,71 -71,71zm520 0c-39,0 -71,-32 -71,-71 0,-39 32,-71 71,-71 39,0 71,32 71,71 0,39 -32,71 -71,71zm50 -295l-589 0c-28,0 -52,-23 -52,-52 0,-28 23,-52 52,-52l589 0c28,0 52,23 52,52 0,28 -23,52 -52,52zm0 -275l-589 0c-28,0 -52,-23 -52,-52 0,-28 23,-52 52,-52l589 0c28,0 52,23 52,52 0,28 -23,52 -52,52z"/>
     <path class="fil1" d="M1013 655c9,9 21,14 33,14 12,0 24,-5 33,-14l189 -189c13,-13 17,-33 10,-51 -7,-17 -24,-29 -43,-29l-120 0 0 -271c0,-38 -31,-69 -69,-69 -38,0 -69,31 -69,69l0 271 -120 0c-19,0 -36,11 -43,29 -7,17 -3,37 10,51l189 189z"/>
    </g>
   </g>
   <g>
   </g>
   <g>
   </g>
   <g>
   </g>
   <g>
   </g>
   <g>
   </g>
   <g>
   </g>
   <g>
   </g>
   <g>
   </g>
   <g>
   </g>
   <g>
   </g>
   <g>
   </g>
   <g>
   </g>
   <g>
   </g>
   <g>
   </g>
   <g>
   </g>
  </g>
 </g>
</svg>
