<?xml version="1.0" encoding="UTF-8"?>
<!DOCTYPE svg PUBLIC "-//W3C//DTD SVG 1.1//EN" "http://www.w3.org/Graphics/SVG/1.1/DTD/svg11.dtd">
<!-- Creator: CorelDRAW 2017 -->
<svg xmlns="http://www.w3.org/2000/svg" xml:space="preserve" width="1.19841in" height="1.20086in" version="1.1" style="shape-rendering:geometricPrecision; text-rendering:geometricPrecision; image-rendering:optimizeQuality; fill-rule:evenodd; clip-rule:evenodd"
viewBox="0 0 282.47 283.05"
 xmlns:xlink="http://www.w3.org/1999/xlink">
 <defs>
  <style type="text/css">
   <![CDATA[
    .fil0 {fill:#FF6600}
   ]]>
  </style>
 </defs>
 <g id="Layer_x0020_1">
  <metadata id="CorelCorpID_0Corel-Layer"/>
  <g id="_270860931872">
   <path class="fil0" d="M118.44 233.37c-13.7,0 -24.84,11.15 -24.84,24.84 0,13.7 11.15,24.84 24.84,24.84 13.7,0 24.84,-11.15 24.84,-24.84 -0,-13.7 -11.15,-24.84 -24.84,-24.84zm44.26 -233.37c18.98,0 36.16,7.69 48.59,20.13 11.96,11.96 19.53,28.32 20.1,46.43l37.21 0c4.19,0 8.11,1.86 10.75,5.11 2.64,3.25 3.68,7.46 2.83,11.56l-19.4 94.16c-1.32,6.42 -7.04,11.07 -13.59,11.07l-171.52 0 4.08 19.82 166.15 0c3.83,0 6.94,3.1 6.94,6.93 0,3.83 -3.11,6.93 -6.94,6.93l-166.15 0c-6.55,0 -12.26,-4.66 -13.59,-11.07l-33.56 -162.9 -30.44 -13.21c-3.51,-1.52 -5.13,-5.61 -3.6,-9.12 1.52,-3.51 5.61,-5.13 9.12,-3.6l30.44 13.21c4.14,1.8 7.15,5.51 8.06,9.92l4.36 21.18 41.44 0c0.56,-18.12 8.13,-34.47 20.09,-46.43 12.44,-12.44 29.62,-20.13 48.6,-20.13zm67.73 80.43c-2.45,14.29 -9.31,27.07 -19.13,36.89 -12.44,12.44 -29.62,20.13 -48.59,20.13 -18.98,0 -36.16,-7.69 -48.6,-20.13 -9.82,-9.82 -16.68,-22.6 -19.13,-36.89l-39.55 0 19.4 94.16 174.38 0 19.4 -94.16 -38.17 0zm-29.99 -49.45c-9.66,-9.66 -23,-15.63 -37.74,-15.63 -14.74,0 -28.08,5.97 -37.74,15.63 -9.66,9.66 -15.63,23 -15.63,37.74 0,14.74 5.97,28.08 15.63,37.74 9.66,9.66 23,15.63 37.74,15.63 14.74,0 28.08,-5.97 37.74,-15.63 9.66,-9.66 15.63,-23 15.63,-37.74 0,-14.74 -5.97,-28.08 -15.63,-37.74zm5.15 202.38c-13.7,0 -24.84,11.15 -24.84,24.84 0,13.7 11.14,24.84 24.84,24.84 13.7,0 24.84,-11.15 24.84,-24.84 -0,-13.7 -11.15,-24.84 -24.84,-24.84zm0 35.81c-6.05,0 -10.97,-4.92 -10.97,-10.97 0,-6.05 4.92,-10.97 10.97,-10.97 6.05,0 10.97,4.92 10.97,10.97 0,6.05 -4.92,10.97 -10.97,10.97zm-87.14 0c-6.05,0 -10.97,-4.92 -10.97,-10.97 0,-6.05 4.92,-10.97 10.97,-10.97 6.05,0 10.97,4.92 10.97,10.97 0,6.05 -4.92,10.97 -10.97,10.97z"/>
   <path class="fil0" d="M170.14 98.86c0,3.66 -2.97,6.63 -6.63,6.63 -3.66,0 -6.63,-2.97 -6.63,-6.63l0 -38.01 -9.29 12.66c-2.16,2.95 -6.3,3.58 -9.25,1.42 -2.95,-2.16 -3.58,-6.3 -1.42,-9.25l20.99 -28.59c1.18,-1.85 3.25,-3.09 5.6,-3.09 2.36,0 4.43,1.23 5.6,3.09l20.99 28.59c2.16,2.95 1.52,7.09 -1.42,9.25 -2.95,2.16 -7.09,1.52 -9.25,-1.42l-9.29 -12.66 0 38.01z"/>
  </g>
 </g>
</svg>
