<?xml version="1.0" encoding="UTF-8"?>
<!DOCTYPE svg PUBLIC "-//W3C//DTD SVG 1.1//EN" "http://www.w3.org/Graphics/SVG/1.1/DTD/svg11.dtd">
<!-- Creator: CorelDRAW 2017 -->
<svg xmlns="http://www.w3.org/2000/svg" xml:space="preserve" width="0.0799961in" height="0.0799961in" version="1.1" style="shape-rendering:geometricPrecision; text-rendering:geometricPrecision; image-rendering:optimizeQuality; fill-rule:evenodd; clip-rule:evenodd"
viewBox="0 0 80 80"
 xmlns:xlink="http://www.w3.org/1999/xlink">
 <defs>
  <style type="text/css">
   <![CDATA[
    .fil0 {fill:none}
    .fil1 {fill:white}
   ]]>
  </style>
 </defs>
 <g id="Layer_x0020_1">
  <metadata id="CorelCorpID_0Corel-Layer"/>
  <rect class="fil0" x="-0" y="-0" width="80" height="80"/>
  <g id="_127845223488">
   <path class="fil1" d="M77.79 36.67l-13.78 -22.06c-0.16,-0.25 -0.4,-0.44 -0.69,-0.53l-22.95 -7.17c-0.24,-0.07 -0.5,-0.07 -0.74,0l-22.95 7.17c-0.28,0.09 -0.53,0.28 -0.69,0.53l-13.78 22.06c-0.18,0.28 -0.23,0.62 -0.16,0.94 0.07,0.32 0.27,0.6 0.55,0.78l4.5 2.81c0.58,0.36 1.35,0.19 1.71,-0.39l0.76 -1.22 0 31.07 -2.74 0c-0.69,0 -1.24,0.56 -1.24,1.24 0,0.69 0.56,1.24 1.24,1.24l66.33 0c0.69,0 1.24,-0.56 1.24,-1.24 0,-0.69 -0.56,-1.24 -1.24,-1.24l-2.74 0 0 -31.07 0.76 1.22c0.24,0.37 0.64,0.58 1.06,0.58 0.22,0 0.45,-0.06 0.66,-0.19l4.5 -2.81c0.28,-0.17 0.48,-0.45 0.55,-0.78 0.07,-0.32 0.02,-0.66 -0.16,-0.94zm-35.36 12.6l12.38 0 -6.19 8.57 -6.19 -8.57zm4.65 10.69l-5.84 8.09 0 -16.18 5.84 8.09zm-8.33 -8.09l0 16.19 -5.84 -8.09 5.84 -8.09zm-7.38 5.97l-6.19 -8.57 12.38 0 -6.19 8.57zm6.19 12.82l-12.38 0 6.19 -8.57 6.19 8.57zm11.06 -8.57l6.19 8.57 -12.38 0 6.19 -8.57zm1.54 -2.12l5.84 -8.09 0 16.19 -5.84 -8.09zm-28.81 -13.18l0 -2.82 37.31 0 0 2.82 -37.31 0zm8.5 13.18l-5.84 8.09 0 -16.18 5.84 8.09zm38.1 10.69l-9.45 0 0 -21.39 1.41 0c0.69,0 1.24,-0.56 1.24,-1.24l0 -5.31c0,-0.69 -0.56,-1.24 -1.24,-1.24l-39.8 0c-0.69,0 -1.24,0.56 -1.24,1.24l0 5.31c0,0.69 0.56,1.24 1.24,1.24l1.41 0 0 21.39 -9.45 0 0 -35.05 9.25 -14.81 18.69 -5.84 18.69 5.84 9.25 14.81 0 35.05zm4.7 -32.23l-12.09 -19.34c-0.15,-0.25 -0.4,-0.44 -0.68,-0.53l-19.5 -6.09c-0.12,-0.04 -0.24,-0.06 -0.37,-0.06 -0.13,0 -0.25,0.02 -0.37,0.06l-19.5 6.09c-0.28,0.09 -0.53,0.28 -0.69,0.53l-12.08 19.34 -2.39 -1.49 12.88 -20.62 22.14 -6.92 22.14 6.92 12.88 20.62 -2.39 1.49z"/>
   <path class="fil1" d="M46.63 21.57l-13.27 0c-0.69,0 -1.24,0.56 -1.24,1.24l0 13.26c0,0.69 0.56,1.24 1.24,1.24l13.27 0c0.69,0 1.24,-0.56 1.24,-1.24l0 -13.26c0,-0.69 -0.56,-1.24 -1.24,-1.24zm-12.02 4.25l3.63 3.63 -3.63 3.63 0 -7.26zm1.76 -1.76l7.26 0 -3.63 3.63 -3.63 -3.63zm3.63 7.15l3.63 3.63 -7.26 0 3.63 -3.63zm1.76 -1.76l3.63 -3.63 0 7.26 -3.63 -3.63z"/>
  </g>
 </g>
</svg>
