<?xml version="1.0" encoding="UTF-8"?>
<!DOCTYPE svg PUBLIC "-//W3C//DTD SVG 1.1//EN" "http://www.w3.org/Graphics/SVG/1.1/DTD/svg11.dtd">
<!-- Creator: CorelDRAW X7 -->
<svg xmlns="http://www.w3.org/2000/svg" xml:space="preserve" width="512px" height="512px" version="1.1" style="shape-rendering:geometricPrecision; text-rendering:geometricPrecision; image-rendering:optimizeQuality; fill-rule:evenodd; clip-rule:evenodd"
viewBox="0 0 512 512"
 xmlns:xlink="http://www.w3.org/1999/xlink"
 xmlns:x="http://ns.adobe.com/Extensibility/1.0/"
 xmlns:i="http://ns.adobe.com/AdobeIllustrator/10.0/"
 xmlns:graph="http://ns.adobe.com/Graphs/1.0/"
 enable-background="new 0 0 40 40">
 <defs>
  <style type="text/css">
   <![CDATA[
    .fil0 {fill:none}
    .fil1 {fill:#FE6700}
   ]]>
  </style>
 </defs>
 <g id="Layer_x0020_1">
  <metadata id="CorelCorpID_0Corel-Layer"/>
  <rect class="fil0" width="512" height="512"/>
 </g>
 <g id="Layer_x0020_1_0">
  <metadata id="CorelCorpID_1Corel-Layer"/>
  <g id="_434151834800">
   <foreignObject requiredExtensions="http://ns.adobe.com/AdobeIllustrator/10.0/" x="0" y="0" width="1" height="1"/>
   <g i:extraneous="self">
    <g>
     <path class="fil1" d="M488 113l-227 -96c-4,-2 -6,-2 -10,0l-227 96c-5,2 -8,8 -8,13l0 67c0,4 3,9 7,10 4,3 8,3 12,2l21 -10 0 288c0,8 7,13 13,13l374 0c6,0 13,-5 13,-13l0 -288 21 10c2,1 4,1 6,1 2,0 5,-1 6,-3 4,-2 7,-6 7,-10l0 -67c0,-5 -3,-11 -8,-13zm-112 357l-240 0 0 -31 240 0 0 31zm0 -58l-240 0 0 -26 240 0 0 26zm0 -53l-240 0 0 -27 240 0 0 27zm0 -53l-240 0 0 -27 240 0 0 27zm0 -53l-240 0 0 -30 240 0 0 30zm53 217l-26 0 0 -260c0,-7 -7,-13 -14,-13l-266 0c-7,0 -14,6 -14,13l0 260 -26 0 0 -285 173 -74 173 74 0 285zm40 -297l-208 -88c-1,-2 -4,-2 -5,-2 -1,0 -4,0 -5,2l-208 88 0 -38 213 -89 213 89 0 38z"/>
    </g>
   </g>
  </g>
 </g>
</svg>
