<?xml version="1.0" encoding="UTF-8"?>
<!DOCTYPE svg PUBLIC "-//W3C//DTD SVG 1.1//EN" "http://www.w3.org/Graphics/SVG/1.1/DTD/svg11.dtd">
<!-- Creator: CorelDRAW X7 -->
<svg xmlns="http://www.w3.org/2000/svg" xml:space="preserve" width="512px" height="512px" version="1.1" style="shape-rendering:geometricPrecision; text-rendering:geometricPrecision; image-rendering:optimizeQuality; fill-rule:evenodd; clip-rule:evenodd"
viewBox="0 0 512 512"
 xmlns:xlink="http://www.w3.org/1999/xlink"
 enable-background="new 0 0 432 432">
 <defs>
  <style type="text/css">
   <![CDATA[
    .fil0 {fill:none}
    .fil1 {fill:#FE6700}
   ]]>
  </style>
 </defs>
 <g id="Layer_x0020_1">
  <metadata id="CorelCorpID_0Corel-Layer"/>
  <rect class="fil0" width="512" height="512"/>
 </g>
 <g id="Layer_x0020_1_0">
  <metadata id="CorelCorpID_1Corel-Layer"/>
  <g id="_434151833040">
   <path class="fil1" d="M384 130l9 -12 5 3c2,2 5,3 8,3 4,0 8,-2 11,-6 4,-5 3,-14 -3,-18l-30 -21c-6,-5 -15,-3 -19,3 -4,6 -3,14 3,18l4 3 -10 13c-18,-11 -38,-19 -60,-24 0,0 0,-1 0,-1l0 -19c0,-7 -6,-13 -13,-13l-18 0 0 -11 14 0c8,0 14,-5 14,-13 0,-7 -6,-13 -14,-13l-52 0c-7,0 -13,6 -13,13 0,8 6,13 13,13l12 0 0 11 -18 0c-7,0 -13,6 -13,13l0 19c0,0 0,0 0,0 -92,21 -161,103 -161,201 0,113 92,205 205,205 113,0 205,-92 205,-205 0,-66 -31,-124 -79,-162zm-126 335c-95,0 -173,-78 -173,-173 0,-95 78,-173 173,-173 95,0 173,78 173,173 0,95 -78,173 -173,173z"/>
  </g>
  <polygon class="fil1" points="349,286 278,327 206,369 206,286 206,203 278,244 "/>
 </g>
</svg>
