<?xml version="1.0" encoding="UTF-8"?>
<!DOCTYPE svg PUBLIC "-//W3C//DTD SVG 1.1//EN" "http://www.w3.org/Graphics/SVG/1.1/DTD/svg11.dtd">
<!-- Creator: CorelDRAW 2017 -->
<svg xmlns="http://www.w3.org/2000/svg" xml:space="preserve" width="0.0799961in" height="0.0799961in" version="1.1" style="shape-rendering:geometricPrecision; text-rendering:geometricPrecision; image-rendering:optimizeQuality; fill-rule:evenodd; clip-rule:evenodd"
viewBox="0 0 80 80"
 xmlns:xlink="http://www.w3.org/1999/xlink">
 <defs>
  <style type="text/css">
   <![CDATA[
    .fil0 {fill:none}
    .fil1 {fill:white}
   ]]>
  </style>
 </defs>
 <g id="Layer_x0020_1">
  <metadata id="CorelCorpID_0Corel-Layer"/>
  <rect class="fil0" x="-0" y="-0" width="80" height="80"/>
  <g id="_127852391776">
   <g>
    <g>
     <path class="fil1" d="M46.8 10.37c-2.08,-2.43 -3.96,-4.58 -5.42,-6.39 -0.07,-0.14 -0.21,-0.21 -0.28,-0.28 -0.77,-0.62 -1.87,-0.48 -2.5,0.28 -1.46,1.81 -3.33,3.96 -5.42,6.39 -9.17,10.63 -21.87,25.34 -21.87,37.64 0,7.92 3.19,15.07 8.4,20.28 5.21,5.14 12.36,8.41 20.28,8.41 7.91,0 15.07,-3.2 20.28,-8.41 5.21,-5.2 8.4,-12.36 8.4,-20.28 -0,-12.29 -12.71,-27.01 -21.88,-37.64zm10.97 55.34c-4.58,4.58 -10.83,7.43 -17.77,7.43 -6.94,0 -13.19,-2.85 -17.77,-7.36 -4.52,-4.52 -7.36,-10.84 -7.36,-17.78 0,-10.97 12.22,-25.14 21.04,-35.34 1.46,-1.74 2.85,-3.33 4.09,-4.86 1.25,1.53 2.64,3.13 4.09,4.79 8.82,10.21 21.04,24.3 21.04,35.34 0,6.94 -2.85,13.19 -7.36,17.77z"/>
    </g>
   </g>
   <g>
    <g>
     <path class="fil1" d="M40.14 64.04c-4.3,0 -8.19,-1.74 -10.97,-4.51 -2.78,-2.78 -4.51,-6.67 -4.51,-10.97 0,-0.97 -0.76,-1.74 -1.74,-1.74 -0.97,0 -1.74,0.77 -1.74,1.74 0,5.28 2.15,10 5.55,13.47 3.33,3.33 8.13,5.48 13.4,5.48 0.97,0 1.74,-0.77 1.74,-1.74 0,-0.97 -0.76,-1.74 -1.73,-1.74z"/>
    </g>
   </g>
   <g>
   </g>
   <g>
   </g>
   <g>
   </g>
   <g>
   </g>
   <g>
   </g>
   <g>
   </g>
   <g>
   </g>
   <g>
   </g>
   <g>
   </g>
   <g>
   </g>
   <g>
   </g>
   <g>
   </g>
   <g>
   </g>
   <g>
   </g>
   <g>
   </g>
  </g>
 </g>
</svg>
